<svg xmlns="http://www.w3.org/2000/svg" xmlns:xlink="http://www.w3.org/1999/xlink" width="79.652" height="79.652" viewBox="0 0 79.652 79.652"><defs><linearGradient id="a" x1="0.192" x2="0.929" y2="1" gradientUnits="objectBoundingBox"><stop offset="0" stop-color="#ff6969"/><stop offset="1" stop-color="#ffc05a"/></linearGradient><clipPath id="b"><path d="M0-15.92H36.234V11.813H0Z" transform="translate(0 15.92)" fill="#fff"/></clipPath></defs><g transform="translate(-148.589 -501.073)"><g transform="translate(-6 -2)"><g transform="translate(-156.411 -244.927)"><circle cx="39.826" cy="39.826" r="39.826" transform="translate(311 748)" fill="url(#a)"/></g></g><g transform="translate(170 528.289)"><g clip-path="url(#b)"><g transform="translate(0.001 0)"><path d="M15.258,1.778l-22.3,23.136a1.271,1.271,0,0,1-.981.422,1.088,1.088,0,0,1-.972-.422l-10.867-11.7-.28-.279a1.524,1.524,0,0,1-.42-.972,1.533,1.533,0,0,1,.42-.981l1.948-1.953a1.361,1.361,0,0,1,1.953,0l.143.143,7.661,8.221a.672.672,0,0,0,.974,0L11.216-1.978h.136a1.349,1.349,0,0,1,1.953,0L15.258-.032a1.2,1.2,0,0,1,0,1.81" transform="translate(20.562 2.396)" fill="#fff"/></g></g></g></g></svg>