<svg xmlns="http://www.w3.org/2000/svg" xmlns:xlink="http://www.w3.org/1999/xlink" width="85.55" height="97.083" viewBox="0 0 85.55 97.083">
  <defs>
    <linearGradient id="linear-gradient" x1="0.192" x2="0.929" y2="1" gradientUnits="objectBoundingBox">
      <stop offset="0" stop-color="#ff6969"/>
      <stop offset="1" stop-color="#ffc05a"/>
    </linearGradient>
    <clipPath id="clip-path">
      <path id="Path_597" data-name="Path 597" d="M0-15.92H36.234V11.813H0Z" transform="translate(0 15.92)" fill="#fff"/>
    </clipPath>
  </defs>
  <g id="Group_6599" data-name="Group 6599" transform="translate(-145.641 -501.073)">
    <g id="Group_1044" data-name="Group 1044" transform="translate(-6 -2)">
      <g id="WRITE_RIVIEW_FAB_BUTTON" data-name="WRITE RIVIEW FAB BUTTON" transform="translate(-156.411 -244.927)">
        <circle id="BG" cx="30.775" cy="30.775" r="30.775" transform="translate(320.051 771.534)" fill="#a2a2a2" opacity="0.5"/>
        <circle id="SHADOW" cx="39.826" cy="39.826" r="39.826" transform="translate(311 748)" fill="url(#linear-gradient)"/>
      </g>
    </g>
    <g id="Group_1043" data-name="Group 1043" transform="translate(170 528.289)">
      <g id="Group_1042" data-name="Group 1042" clip-path="url(#clip-path)">
        <g id="Group_1041" data-name="Group 1041" transform="translate(0.001 0)">
          <path id="Path_596" data-name="Path 596" d="M15.258,1.778l-22.3,23.136a1.271,1.271,0,0,1-.981.422,1.088,1.088,0,0,1-.972-.422l-10.867-11.7-.28-.279a1.524,1.524,0,0,1-.42-.972,1.533,1.533,0,0,1,.42-.981l1.948-1.953a1.361,1.361,0,0,1,1.953,0l.143.143,7.661,8.221a.672.672,0,0,0,.974,0L11.216-1.978h.136a1.349,1.349,0,0,1,1.953,0L15.258-.032a1.2,1.2,0,0,1,0,1.81" transform="translate(20.562 2.396)" fill="#fff"/>
        </g>
      </g>
    </g>
  </g>
</svg>
