<svg xmlns="http://www.w3.org/2000/svg" viewBox="0 0 16.641 16.641">
  <defs>
    <style>
      .cls-1 {
        fill: #00b2aa;
      }
    </style>
  </defs>
  <path id="addIcon" class="cls-1" d="M14.18-6.68H10.82V-3.32H9.18V-6.68H5.82V-8.32H9.18V-11.68H10.82V-8.32H14.18ZM10-15.82A8.27,8.27,0,0,0,4.1-13.4,8.27,8.27,0,0,0,1.68-7.5,8.27,8.27,0,0,0,4.1-1.6,8.27,8.27,0,0,0,10,.82,8.27,8.27,0,0,0,15.9-1.6,8.27,8.27,0,0,0,18.32-7.5,8.27,8.27,0,0,0,15.9-13.4,8.27,8.27,0,0,0,10-15.82Z" transform="translate(-1.68 15.82)"/>
</svg>
