<svg xmlns="http://www.w3.org/2000/svg" width="59.464" height="76.545" viewBox="0 0 59.464 76.545"><g transform="translate(-5706 1112.18)"><g transform="translate(5706 -1112.18)"><g transform="translate(3.318 16.558)"><g transform="translate(0.039)"><path d="M31.275,41.78A26.579,26.579,0,0,0,8.48,64.575,1.606,1.606,0,0,0,10.066,66.4h0a1.617,1.617,0,0,0,1.586-1.388,23.465,23.465,0,0,1,20.02-20.1,1.587,1.587,0,0,0,1.388-1.586h0A1.566,1.566,0,0,0,31.275,41.78Z" transform="translate(-8.467 -41.767)" fill="#13adc2"/><path d="M79.4,43.366h0a1.617,1.617,0,0,0,1.388,1.586,23.465,23.465,0,0,1,20.059,20.059,1.587,1.587,0,0,0,1.586,1.388h0a1.628,1.628,0,0,0,1.586-1.824A26.579,26.579,0,0,0,81.224,41.78,1.587,1.587,0,0,0,79.4,43.366Z" transform="translate(-51.28 -41.767)" fill="#13adc2"/></g><g transform="translate(0 28.12)"><path d="M31.612,134.147a23.465,23.465,0,0,1-20.059-20.06A1.587,1.587,0,0,0,9.967,112.7h0a1.628,1.628,0,0,0-1.586,1.824,26.579,26.579,0,0,0,22.795,22.795A1.606,1.606,0,0,0,33,135.733h0A1.559,1.559,0,0,0,31.612,134.147Z" transform="translate(-8.369 -112.7)" fill="#13adc2"/><path d="M100.747,114.088a23.465,23.465,0,0,1-20.059,20.059,1.587,1.587,0,0,0-1.388,1.586h0a1.628,1.628,0,0,0,1.824,1.586,26.579,26.579,0,0,0,22.795-22.795,1.606,1.606,0,0,0-1.586-1.824h0A1.617,1.617,0,0,0,100.747,114.088Z" transform="translate(-51.181 -112.7)" fill="#13adc2"/></g></g><path d="M49.609,19.386a8.222,8.222,0,0,1-.238-1.982V11.417a8.226,8.226,0,1,1,16.452,0v6.026a8.4,8.4,0,0,1-.2,1.744,11.868,11.868,0,0,1,2.934,1.348,11.424,11.424,0,0,0,.436-3.092V11.417A11.42,11.42,0,0,0,57.578,0h0A11.412,11.412,0,0,0,46.2,11.417v6.026a11.278,11.278,0,0,0,.555,3.489A10.72,10.72,0,0,1,49.609,19.386Z" transform="translate(-27.885)" fill="#13adc2"/><circle cx="1.07" cy="1.07" r="1.07" transform="translate(24.658 7.175)" fill="#13adc2"/><circle cx="1.07" cy="1.07" r="1.07" transform="translate(32.904 7.175)" fill="#13adc2"/><path d="M65.671,170.7H62.5a9.059,9.059,0,0,0,7.1,8.84,1.6,1.6,0,0,0,1.943-1.546h0a1.608,1.608,0,0,0-1.229-1.546A5.91,5.91,0,0,1,65.671,170.7Z" transform="translate(-37.723 -103.029)" fill="#13adc2"/><path d="M69.71,141.03H59.165a1.675,1.675,0,0,1-1.665-1.665h0a1.675,1.675,0,0,1,1.665-1.665H69.71a1.675,1.675,0,0,1,1.665,1.665h0A1.675,1.675,0,0,1,69.71,141.03Z" transform="translate(-34.705 -83.111)" fill="#13adc2"/><path d="M40.517,121.262l-5.273-9.118a1.683,1.683,0,0,1,.595-2.3h0a1.683,1.683,0,0,1,2.3.595l5.273,9.158a1.683,1.683,0,0,1-.595,2.3h0A1.732,1.732,0,0,1,40.517,121.262Z" transform="translate(-21.132 -66.158)" fill="#13adc2"/><path d="M101.811,112.084,96.539,121.2a1.674,1.674,0,0,1-2.3.595h0a1.674,1.674,0,0,1-.595-2.3l5.273-9.158a1.674,1.674,0,0,1,2.3-.595h0A1.721,1.721,0,0,1,101.811,112.084Z" transform="translate(-56.38 -66.097)" fill="#13adc2"/><path d="M69.71,70.4H59.165A1.675,1.675,0,0,0,57.5,72.065h0a1.675,1.675,0,0,0,1.665,1.665H69.71a1.675,1.675,0,0,0,1.665-1.665h0A1.675,1.675,0,0,0,69.71,70.4Z" transform="translate(-34.705 -42.491)" fill="#13adc2"/><path d="M40.517,76.239,35.245,85.4a1.683,1.683,0,0,0,.595,2.3h0a1.683,1.683,0,0,0,2.3-.595l5.273-9.158a1.683,1.683,0,0,0-.595-2.3h0A1.683,1.683,0,0,0,40.517,76.239Z" transform="translate(-21.132 -45.516)" fill="#13adc2"/><path d="M101.811,85.3l-5.273-9.158a1.674,1.674,0,0,0-2.3-.595h0a1.674,1.674,0,0,0-.595,2.3L98.917,87a1.674,1.674,0,0,0,2.3.595h0A1.674,1.674,0,0,0,101.811,85.3Z" transform="translate(-56.38 -45.455)" fill="#13adc2"/><g transform="translate(6.581 41.269)"><path d="M21.476,107.43H18.265a1.675,1.675,0,0,1-1.665-1.665h0a1.675,1.675,0,0,1,1.665-1.665h3.211a1.675,1.675,0,0,1,1.665,1.665h0A1.675,1.675,0,0,1,21.476,107.43Z" transform="translate(-16.6 -104.1)" fill="#13adc2"/><path d="M122.076,107.43h-3.211a1.675,1.675,0,0,1-1.665-1.665h0a1.675,1.675,0,0,1,1.665-1.665h3.211a1.675,1.675,0,0,1,1.665,1.665h0A1.675,1.675,0,0,1,122.076,107.43Z" transform="translate(-77.319 -104.1)" fill="#13adc2"/></g><g transform="translate(17.328 22.561)"><path d="M48.464,146.544l-1.625,2.775a1.674,1.674,0,0,1-2.3.595h0a1.674,1.674,0,0,1-.595-2.3l1.625-2.775a1.674,1.674,0,0,1,2.3-.595h0A1.758,1.758,0,0,1,48.464,146.544Z" transform="translate(-43.711 -109.482)" fill="#13adc2"/><path d="M98.764,59.444l-1.625,2.775a1.674,1.674,0,0,1-2.3.595h0a1.674,1.674,0,0,1-.595-2.3l1.625-2.775a1.674,1.674,0,0,1,2.3-.595h0A1.758,1.758,0,0,1,98.764,59.444Z" transform="translate(-74.071 -56.911)" fill="#13adc2"/></g><g transform="translate(17.328 22.561)"><path d="M45.57,62.219l-1.625-2.775a1.683,1.683,0,0,1,.595-2.3h0a1.683,1.683,0,0,1,2.3.595l1.625,2.775a1.683,1.683,0,0,1-.595,2.3h0A1.665,1.665,0,0,1,45.57,62.219Z" transform="translate(-43.711 -56.911)" fill="#13adc2"/><path d="M95.87,149.319l-1.625-2.775a1.683,1.683,0,0,1,.595-2.3h0a1.683,1.683,0,0,1,2.3.595l1.625,2.775a1.683,1.683,0,0,1-.595,2.3h0A1.665,1.665,0,0,1,95.87,149.319Z" transform="translate(-74.071 -109.482)" fill="#13adc2"/></g><g transform="translate(0 22.953)"><path d="M10.823,59.367A6.656,6.656,0,1,0,4.2,70.744,26.335,26.335,0,0,1,10.823,59.367Z" transform="translate(0 -57.9)" fill="#13adc2"/><g transform="translate(48.642)"><path d="M122.7,59.367a6.656,6.656,0,1,1,6.62,11.378A26.733,26.733,0,0,0,122.7,59.367Z" transform="translate(-122.7 -57.9)" fill="#13adc2"/></g><g transform="translate(0 27.116)"><path d="M10.823,137.678A6.656,6.656,0,1,1,4.2,126.3,26.335,26.335,0,0,0,10.823,137.678Z" transform="translate(0 -126.3)" fill="#13adc2"/><g transform="translate(48.642)"><path d="M122.7,137.678a6.656,6.656,0,1,0,6.62-11.378A26.733,26.733,0,0,1,122.7,137.678Z" transform="translate(-122.7 -126.3)" fill="#13adc2"/></g></g></g></g></g></svg>