<svg xmlns="http://www.w3.org/2000/svg" width="29.208" height="28.194" viewBox="0 0 29.208 28.194"><path d="M6.906,34.24H2.027A2.4,2.4,0,0,1,0,31.9V18.654A2.253,2.253,0,0,1,2.027,16.5H6.843a1.954,1.954,0,0,1,1.711,2.154V31.959c.063,1.14-.7,2.281-1.647,2.281Zm0,0" transform="translate(0 -16.5)" fill="#dd3b00"/><path d="M33.561,12.862a2.869,2.869,0,0,1,.887,2.027,2.931,2.931,0,0,1-.824,2.027,2.84,2.84,0,0,1-1.964.887H25.324A9.888,9.888,0,0,1,23.8,27.181h0a3.035,3.035,0,0,1-2.218,1.014A2.812,2.812,0,0,1,18.8,25.407v-.57c.507-2.408-.57-5.2-1.267-6.589-.063-.127-.127-.19-.19-.317a.575.575,0,0,0-.444-.19h-.19c-.063,0-.19-.063-.253-.063A2.325,2.325,0,0,1,14.3,15.459V2.218A2.418,2.418,0,0,1,16.708,0H31.66c.063,0,.127.063.19.063a2.763,2.763,0,0,1,2.471,2.788A2.78,2.78,0,0,1,33.5,4.815a2.761,2.761,0,0,1,0,4.055,2.869,2.869,0,0,1,.887,2.027,2.452,2.452,0,0,1-.824,1.964Zm0,0" transform="translate(-5.24)" fill="#dd3b00"/></svg>