<svg xmlns="http://www.w3.org/2000/svg" xmlns:xlink="http://www.w3.org/1999/xlink" viewBox="0 0 70 69">
  <defs>
    <style>
      .cls-1 {
        fill: none;
        stroke: #707070;
      }

      .cls-2 {
        clip-path: url(#clip-path);
      }

      .cls-3 {
        fill: #00b2aa;
      }
    </style>
    <clipPath id="clip-path">
      <rect id="Rectangle_581" data-name="Rectangle 581" class="cls-1" width="70" height="69" transform="translate(475 3292)"/>
    </clipPath>
  </defs>
  <g id="grocery_green_icon" class="cls-2" transform="translate(-475 -3292)">
    <g id="Group_2218" data-name="Group 2218" transform="translate(487.957 3301.01)">
      <path id="Path_1444" data-name="Path 1444" class="cls-3" d="M89.353,437.8h-13.7a.853.853,0,1,0,0,1.705h13.69a.852.852,0,0,0,.853-.853A.843.843,0,0,0,89.353,437.8Z" transform="translate(-67.259 -393.9)"/>
      <path id="Path_1445" data-name="Path 1445" class="cls-3" d="M249.773,437.8h-3.42a.853.853,0,1,0,0,1.705h3.42a.853.853,0,1,0,0-1.705Z" transform="translate(-220.839 -393.9)"/>
      <path id="Path_1446" data-name="Path 1446" class="cls-3" d="M118.353,391.8h-13.7a.853.853,0,1,0,0,1.705h13.69a.852.852,0,0,0,.853-.853A.843.843,0,0,0,118.353,391.8Z" transform="translate(-93.351 -352.513)"/>
      <path id="Path_1447" data-name="Path 1447" class="cls-3" d="M278.773,391.8h-3.42a.853.853,0,1,0,0,1.705h3.42a.853.853,0,1,0,0-1.705Z" transform="translate(-246.93 -352.513)"/>
      <path id="Path_1448" data-name="Path 1448" class="cls-3" d="M.951,10.692A5.948,5.948,0,0,0,.2,15.206l.893,3.912a4.383,4.383,0,0,0-.241,1.765l2.357,28.1a2.59,2.59,0,0,0,2.558,2.357h27.8a2.582,2.582,0,0,0,2.558-2.357l2.357-28.1a4.182,4.182,0,0,0-.6-2.558l-1.234-2.056L42.785,7.3A4.617,4.617,0,0,0,41.842.933a4.651,4.651,0,0,0-6.369.923l-5.3,6.549a6.026,6.026,0,0,0-3.711-.642,5.989,5.989,0,0,0-11.875,0,6.151,6.151,0,0,0-2.056.05,1.654,1.654,0,0,0-.712-.913A1.723,1.723,0,0,0,10.53,6.68l-.08.02-.381-1.675.08-.02a.851.851,0,0,0,.642-1.023L10.018.652A.859.859,0,0,0,9.637.121.849.849,0,0,0,9,.011L2.245,1.565A.851.851,0,0,0,1.6,2.588l.772,3.34a.848.848,0,0,0,.832.662A1.229,1.229,0,0,0,3.4,6.57l.9-.211.381,1.675A5.943,5.943,0,0,0,.951,10.692Zm35.826,10.05-2.357,28.1a.86.86,0,0,1-.853.782H5.765a.86.86,0,0,1-.853-.782L2.566,20.752a2.512,2.512,0,0,1,.361-1.535l1.284-2.106,1.1,1.825a1.734,1.734,0,0,0,1.474.832,1.712,1.712,0,0,0,1.474-.832l1.113-1.825,1.1,1.825h0a1.734,1.734,0,0,0,1.474.832,1.712,1.712,0,0,0,1.474-.832l1.113-1.825,1.1,1.835a1.712,1.712,0,0,0,1.474.832h0a1.629,1.629,0,0,0,.692-.16l.01-.01a1.744,1.744,0,0,0,.762-.662L19.7,17.121l1.1,1.825a1.69,1.69,0,0,0,.762.662l.01.01a1.665,1.665,0,0,0,.692.16h0a1.712,1.712,0,0,0,1.474-.832l1.023-1.685c.02,0,.04.01.06.01.04,0,.08-.01.11-.01l1.023,1.685a1.737,1.737,0,0,0,.772.672h0a1.681,1.681,0,0,0,2.166-.672l1.113-1.825,1.1,1.825a1.734,1.734,0,0,0,1.474.832,1.712,1.712,0,0,0,1.474-.832l1.113-1.825,1.274,2.106A2.633,2.633,0,0,1,36.777,20.742ZM36.025,10.6c.271-.481,1.394-.391,2.5-.1l-1.635,2.387c-.642-.792-1.173-1.745-.863-2.287Zm.782-7.673a2.935,2.935,0,0,1,4.012-.622,2.912,2.912,0,0,1,.552,4.022L39.535,9.017c-1.464-.471-4.022-.993-5,.742-.923,1.635.391,3.53,1.344,4.6l-.7,1.033h-.02a1.712,1.712,0,0,0-1.474.832l-1.113,1.825-1.1-1.835a1.712,1.712,0,0,0-1.474-.832h0a1.684,1.684,0,0,0-1.464.832L27.47,17.954h-.12L26.3,16.219l-.12-.15L31.05,10.04c0-.01.01-.01.02-.01a.01.01,0,0,1,.01-.01ZM15.113,9.649A.862.862,0,0,0,16.246,8.7a.754.754,0,0,1,0-.15,4.283,4.283,0,1,1,8.565,0V8.7a.855.855,0,0,0,1.133.953,4.3,4.3,0,0,1,3.139.12l-1.3,1.6-4,.832a.847.847,0,0,0-.672.923.859.859,0,0,0,.853.772,1.105,1.105,0,0,0,.181-.02l1.946-.411-1.595,1.966a1.73,1.73,0,0,0-1.133.782L22.3,17.964h-.11l-1.053-1.735a1.734,1.734,0,0,0-1.474-.832,1.712,1.712,0,0,0-1.474.832l-1.053,1.735h-.11l-1.043-1.735a1.712,1.712,0,0,0-1.474-.832h0a.894.894,0,0,0-.221.03l-.522-2.257,3.059,1.023a.856.856,0,1,0,.542-1.625l-4.052-1.354-.4-1.745a4.3,4.3,0,0,1,2.2.181Zm-4.2-1.294,1.9,8.254-.883,1.454h0l-1.1-1.825a1.7,1.7,0,0,0-1.464-.832h0a1.712,1.712,0,0,0-1.474.832L6.768,18.064l-1.1-1.835A1.712,1.712,0,0,0,4.191,15.4h0a1.684,1.684,0,0,0-1.464.832l-.391.652-.471-2.046A4.27,4.27,0,0,1,5.073,9.709ZM3.469,3.04,8.544,1.876l.381,1.665-.08.02h0L4.752,4.5h0l-.9.2ZM8.393,5.417l.381,1.665-2.417.562L5.976,5.978Z"/>
      <path id="Path_1449" data-name="Path 1449" class="cls-3" d="M81.022,107.971a.848.848,0,0,0,.832.662,1.229,1.229,0,0,0,.191-.02.851.851,0,0,0,.642-1.023l-.321-1.414a.833.833,0,0,0-.582-.622.845.845,0,0,0-.832.191.866.866,0,0,0-.251.822Z" transform="translate(-72.549 -94.942)"/>
      <path id="Path_1450" data-name="Path 1450" class="cls-3" d="M196.653,75.14a.842.842,0,0,0,.6-.251.859.859,0,0,0,.251-.6V69.153a.853.853,0,1,0-1.705,0v5.135a.842.842,0,0,0,.251.6.825.825,0,0,0,.6.251Z" transform="translate(-176.123 -61.459)"/>
    </g>
  </g>
</svg>
