<svg xmlns="http://www.w3.org/2000/svg" xmlns:xlink="http://www.w3.org/1999/xlink" width="17" height="17" viewBox="0 0 17 17"><defs><clipPath id="a"><rect width="17" height="17" transform="translate(64 925)" fill="none" stroke="#707070" stroke-width="0.25"/></clipPath></defs><g transform="translate(-64 -925)" clip-path="url(#a)"><g transform="translate(64.346 926)"><path d="M14.673,4.793H14.4a6.484,6.484,0,0,0-12.519,0H1.6A1.6,1.6,0,0,0,0,6.394v1.8a1.6,1.6,0,0,0,1.6,1.6h.2a4.1,4.1,0,0,0,4.058,3.573h.381a1.329,1.329,0,0,0,1.22.813h1.35a1.332,1.332,0,1,0,0-2.665H7.466a1.329,1.329,0,0,0-1.22.813H5.866A3.054,3.054,0,0,1,2.812,9.275V5.381a5.444,5.444,0,0,1,10.659-.017V9.257a.521.521,0,0,0,.519.519h.683a1.6,1.6,0,0,0,1.6-1.6V6.394a1.6,1.6,0,0,0-1.6-1.6Zm-7.207,7.76h1.35a.294.294,0,1,1,0,.588H7.466a.294.294,0,1,1,0-.588ZM1.038,8.184V6.394A.561.561,0,0,1,1.6,5.831h.164V8.747H1.6a.561.561,0,0,1-.562-.562Zm14.2,0a.561.561,0,0,1-.562.562h-.164V5.831h.164a.561.561,0,0,1,.562.562Zm0,0" fill="#00b2aa"/></g></g></svg>