<svg xmlns="http://www.w3.org/2000/svg" width="196.856" height="64.394" viewBox="0 0 196.856 64.394"><g transform="translate(-101.254 -946.267)"><path d="M298.11,1001.958a8.7,8.7,0,0,1-8.7,8.7H109.956a8.7,8.7,0,0,1-8.7-8.7V954.969a8.7,8.7,0,0,1,8.7-8.7H289.41a8.7,8.7,0,0,1,8.7,8.7Z" transform="translate(0 0)"/><g transform="translate(114.459 956.278)"><path d="M174.38,1022.493a31.877,31.877,0,0,1-2.882,5.382c-1.873,2.851-4.511,6.4-7.78,6.43-2.906.027-3.652-1.891-7.594-1.87s-4.766,1.9-7.672,1.876c-3.269-.03-5.77-3.235-7.642-6.085-5.235-7.97-5.782-17.322-2.554-22.294,2.295-3.534,5.914-5.6,9.318-5.6,3.465,0,5.644,1.9,8.509,1.9,2.779,0,4.473-1.9,8.48-1.9a11.308,11.308,0,0,1,8.523,4.5C165.594,1008.932,166.81,1019.633,174.38,1022.493Z" transform="translate(-136.25 -989.939)" fill="#fff"/><g transform="translate(18.327 0)"><path d="M191.765,980a9.727,9.727,0,0,0,2.16-7.2,10.509,10.509,0,0,0-6.784,3.649,9.029,9.029,0,0,0-2.217,7.027A8.87,8.87,0,0,0,191.765,980Z" transform="translate(-184.82 -972.797)" fill="#fff"/></g></g><g transform="translate(161.038 956.373)"><g transform="translate(0 15.426)"><path d="M267.194,1014.862l-7.5,22.075h3.434l2.239-6.778h7.261l2.3,6.778h3.529l-7.531-22.075Zm1.779,3.629c.253.985.526,2.009.878,3.115l2.021,5.853h-5.752l1.993-5.892C268.417,1020.612,268.705,1019.581,268.974,1018.491Z" transform="translate(-259.695 -1014.51)" fill="#fff"/><path d="M321.125,1030.028a6.249,6.249,0,0,0-5.31,2.547l-.133-2.2h-3.055l.018.281c.09,1.368.127,2.874.127,5.035v17.015h3.34v-7.94a5.865,5.865,0,0,0,4.566,1.962,6.885,6.885,0,0,0,5.061-2.151,9.125,9.125,0,0,0,2.235-6.424,8.885,8.885,0,0,0-1.941-5.866A6.355,6.355,0,0,0,321.125,1030.028Zm-.832,2.765c2.978,0,4.31,2.758,4.31,5.491,0,3.525-1.7,5.715-4.437,5.715a4.049,4.049,0,0,1-3.935-3.1,4.262,4.262,0,0,1-.118-1.081v-2.686a5.067,5.067,0,0,1,.106-.824c.017-.091.035-.183.048-.271A4.229,4.229,0,0,1,320.293,1032.793Z" transform="translate(-292.654 -1023.954)" fill="#fff"/><path d="M366.706,1030.028a6.252,6.252,0,0,0-5.31,2.547l-.133-2.2h-3.054l.017.281c.091,1.369.129,2.874.129,5.035v17.015h3.34v-7.94a5.862,5.862,0,0,0,4.564,1.962,6.894,6.894,0,0,0,5.063-2.151,9.136,9.136,0,0,0,2.233-6.424,8.885,8.885,0,0,0-1.942-5.866A6.352,6.352,0,0,0,366.706,1030.028Zm-.831,2.765c2.976,0,4.309,2.758,4.309,5.491,0,3.525-1.7,5.715-4.436,5.715a4.048,4.048,0,0,1-3.934-3.1,4.243,4.243,0,0,1-.118-1.081v-2.686a4.959,4.959,0,0,1,.106-.827c.017-.09.033-.18.048-.268A4.227,4.227,0,0,1,365.875,1032.793Z" transform="translate(-321.037 -1023.954)" fill="#fff"/><path d="M424.71,1023.635c-3.117-1.207-4.116-2.156-4.116-3.91,0-1.477,1.173-2.967,3.8-2.967a7.588,7.588,0,0,1,3.921.984l.283.175.943-2.787-.186-.109a9.681,9.681,0,0,0-4.864-1.091c-4.259,0-7.234,2.514-7.234,6.113,0,2.9,1.863,4.932,5.862,6.386,2.834,1.06,3.889,2.145,3.889,4.005,0,2.106-1.628,3.412-4.245,3.412a9.139,9.139,0,0,1-4.814-1.365l-.289-.186-.9,2.852.164.109a11.44,11.44,0,0,0,5.644,1.451c5.74,0,7.776-3.5,7.776-6.5C430.344,1027.12,428.712,1025.214,424.71,1023.635Z" transform="translate(-357.494 -1013.93)" fill="#fff"/><path d="M459.332,1020.88l-3.276,1.029v2.775h-2.4v2.67h2.4v8.177a6.25,6.25,0,0,0,1.157,4.237,4.281,4.281,0,0,0,3.231,1.269,7.87,7.87,0,0,0,2.582-.4l.187-.066-.16-2.674-.32.1a5.032,5.032,0,0,1-1.553.179c-1.294,0-1.847-.819-1.847-2.741v-8.08h4.029v-2.67h-4.029Z" transform="translate(-380.47 -1018.258)" fill="#fff"/><path d="M488.211,1030.028c-4.673,0-7.936,3.488-7.936,8.48,0,4.842,3.158,8.224,7.681,8.224h.031c3.823,0,7.936-2.663,7.936-8.511a8.438,8.438,0,0,0-2.128-5.908A7.431,7.431,0,0,0,488.211,1030.028Zm-.1,2.637c3,0,4.372,2.929,4.372,5.652,0,3.348-1.867,5.778-4.436,5.778h-.032c-2.533,0-4.372-2.39-4.372-5.681C483.648,1035.552,485.029,1032.665,488.115,1032.665Z" transform="translate(-397.044 -1023.954)" fill="#fff"/><path d="M535.138,1030.183l-.2-.051a3.214,3.214,0,0,0-.831-.1,4.764,4.764,0,0,0-4.188,2.689l-.1-2.338h-3l.019.281c.089,1.322.126,2.806.126,4.809l-.031,10.911h3.34v-8.512a8.618,8.618,0,0,1,.092-1.295c.377-2.044,1.756-3.366,3.514-3.366a8.577,8.577,0,0,1,.9.056l.357.037Z" transform="translate(-426.028 -1023.954)" fill="#fff"/><path d="M556.3,1029.944c-4.446,0-7.552,3.553-7.552,8.639,0,4.9,3.089,8.064,7.871,8.064a12.811,12.811,0,0,0,5.288-1.014l.2-.091-.642-2.489-.279.112a10.346,10.346,0,0,1-4.185.748,4.643,4.643,0,0,1-5-4.843l10.78.032.044-.213a7.472,7.472,0,0,0,.1-1.394C562.921,1034.013,561.186,1029.944,556.3,1029.944Zm-.223,2.541a3.3,3.3,0,0,1,2.452.935,4.754,4.754,0,0,1,1.151,3.109h-7.618C552.368,1034.6,553.575,1032.485,556.073,1032.485Z" transform="translate(-439.677 -1023.901)" fill="#fff"/></g><g transform="translate(0 0)"><path d="M259.7,974.54a24.353,24.353,0,0,1,3.2-.217,7.149,7.149,0,0,1,4.7,1.287,4.572,4.572,0,0,1,1.654,3.767,5.288,5.288,0,0,1-1.671,4.061,7.75,7.75,0,0,1-5.15,1.5,23.248,23.248,0,0,1-2.739-.124Zm1.516,9.254a10.818,10.818,0,0,0,1.516.062c3.2.015,4.943-1.612,4.943-4.433.017-2.5-1.533-4.03-4.7-4.03a9.518,9.518,0,0,0-1.757.139Z" transform="translate(-259.695 -973.842)" fill="#fff"/><path d="M292.674,989.724a3.765,3.765,0,0,1-4-3.859,3.87,3.87,0,0,1,4.133-3.984,3.736,3.736,0,0,1,4.013,3.845,3.884,3.884,0,0,1-4.133,4Zm.052-1.023a2.67,2.67,0,0,0,2.532-2.93,2.549,2.549,0,1,0-2.55,2.93Z" transform="translate(-277.742 -978.548)" fill="#fff"/><path d="M314.064,982.333l1.12,3.8c.223.837.448,1.627.6,2.4h.052c.189-.76.465-1.565.741-2.387l1.361-3.814h1.275l1.292,3.751c.309.884.551,1.69.74,2.45h.052a20.765,20.765,0,0,1,.637-2.434l1.188-3.767h1.5l-2.687,7.5h-1.378l-1.274-3.58a24.581,24.581,0,0,1-.741-2.48h-.034a20.626,20.626,0,0,1-.758,2.5l-1.343,3.565h-1.378l-2.515-7.5Z" transform="translate(-292.583 -978.83)" fill="#fff"/><path d="M348.51,984.082c0-.791-.017-1.41-.069-2.031h1.344l.086,1.225h.035a3.157,3.157,0,0,1,2.756-1.4,2.854,2.854,0,0,1,2.945,3.193v4.48h-1.515v-4.325c0-1.209-.5-2.232-1.93-2.232a2.162,2.162,0,0,0-2.032,1.395,1.838,1.838,0,0,0-.1.635v4.526H348.51Z" transform="translate(-314.955 -978.548)" fill="#fff"/><path d="M373.959,973.049h1.516v11.006h-1.516Z" transform="translate(-330.844 -973.049)" fill="#fff"/><path d="M387.041,989.724a3.766,3.766,0,0,1-4-3.859,3.87,3.87,0,0,1,4.134-3.984,3.736,3.736,0,0,1,4.013,3.845,3.884,3.884,0,0,1-4.134,4Zm.051-1.023a2.67,2.67,0,0,0,2.533-2.93,2.549,2.549,0,1,0-2.549,2.93Z" transform="translate(-336.501 -978.548)" fill="#fff"/><path d="M414.5,987.756a11.309,11.309,0,0,0,.121,1.8h-1.361l-.138-.945h-.051a3.2,3.2,0,0,1-2.549,1.116,2.273,2.273,0,0,1-2.549-2.155c0-1.813,1.791-2.806,5.012-2.79v-.155c0-.62-.189-1.752-1.894-1.736a4.347,4.347,0,0,0-2.187.558l-.345-.914a5.871,5.871,0,0,1,2.756-.651c2.566,0,3.186,1.565,3.186,3.07Zm-1.481-2.031c-1.653-.031-3.531.232-3.531,1.689a1.267,1.267,0,0,0,1.412,1.3,2.1,2.1,0,0,0,2.049-1.256,1.243,1.243,0,0,0,.069-.434Z" transform="translate(-352.022 -978.548)" fill="#fff"/><path d="M437.911,973.049v9.068c0,.666.018,1.426.069,1.938h-1.36l-.069-1.3h-.034a3.12,3.12,0,0,1-2.825,1.472,3.577,3.577,0,0,1-3.583-3.813,3.741,3.741,0,0,1,3.737-4.03,2.868,2.868,0,0,1,2.516,1.132h.034v-4.464Zm-1.515,6.557a2.272,2.272,0,0,0-.069-.589,2.191,2.191,0,0,0-2.187-1.566c-1.568,0-2.5,1.24-2.5,2.884a2.489,2.489,0,0,0,2.463,2.79,2.256,2.256,0,0,0,2.222-1.627,2.126,2.126,0,0,0,.069-.589Z" transform="translate(-365.807 -973.049)" fill="#fff"/><path d="M469.529,989.724a3.766,3.766,0,0,1-4-3.859,3.871,3.871,0,0,1,4.134-3.984,3.736,3.736,0,0,1,4.014,3.845,3.884,3.884,0,0,1-4.133,4Zm.052-1.023a2.669,2.669,0,0,0,2.532-2.93,2.548,2.548,0,1,0-2.549,2.93Z" transform="translate(-387.864 -978.548)" fill="#fff"/><path d="M492.08,984.082c0-.791-.018-1.41-.069-2.031h1.344l.087,1.225h.034a3.157,3.157,0,0,1,2.756-1.4,2.854,2.854,0,0,1,2.946,3.193v4.48h-1.516v-4.325c0-1.209-.5-2.232-1.929-2.232a2.165,2.165,0,0,0-2.033,1.395,1.855,1.855,0,0,0-.1.635v4.526H492.08Z" transform="translate(-404.351 -978.548)" fill="#fff"/><path d="M527.47,977.569v1.8h2.17V980.4h-2.17v4.047c0,.93.293,1.457,1.137,1.457a3.132,3.132,0,0,0,.878-.093l.069,1.039a4.557,4.557,0,0,1-1.343.186,2.3,2.3,0,0,1-1.637-.573,2.724,2.724,0,0,1-.585-1.969V980.4H524.7v-1.038h1.292v-1.38Z" transform="translate(-424.704 -975.863)" fill="#fff"/><path d="M542.318,973.049h1.515v4.682h.036a2.569,2.569,0,0,1,1.085-.961,3.2,3.2,0,0,1,1.55-.388c1.119,0,2.91.62,2.91,3.209v4.464H547.9v-4.309c0-1.225-.5-2.232-1.929-2.232a2.179,2.179,0,0,0-2.033,1.365,1.5,1.5,0,0,0-.1.651v4.526h-1.515Z" transform="translate(-435.676 -973.049)" fill="#fff"/><path d="M567.52,986.01a2.541,2.541,0,0,0,2.843,2.6,6.32,6.32,0,0,0,2.309-.372l.275.961a7.456,7.456,0,0,1-2.791.481c-2.55,0-4.1-1.535-4.1-3.782a3.82,3.82,0,0,1,3.927-4.062,3.284,3.284,0,0,1,3.428,3.535,3.15,3.15,0,0,1-.051.651Zm4.428-.977a2.013,2.013,0,0,0-2.085-2.217,2.36,2.36,0,0,0-2.325,2.217Z" transform="translate(-450.457 -978.523)" fill="#fff"/></g></g></g></svg>