<?xml version="1.0"?>
<svg xmlns="http://www.w3.org/2000/svg" height="512px" viewBox="1 -24 511.999 511" width="512px" class=""><g><path d="m112.464844 193.300781h-57.296875c-30.421875 0-55.167969 24.746094-55.167969 55.164063v160.667968c0 30.417969 24.746094 55.167969 55.167969 55.167969h57.296875zm0 0" data-original="#000000" class="active-path" data-old_color="#000000" fill="#808080"/><path d="m456.832031 161.167969h-137.632812v-105.5c0-30.421875-24.746094-55.167969-55.164063-55.167969h-32.132812c-30.421875 0-55.167969 24.746094-55.167969 55.167969v67.035156l-34.269531 42.835937v298.761719h234.035156c27.472656 0 59.441406-18.8125 72.78125-42.828125l41.324219-74.378906c11.996093-21.59375 21.394531-57.859375 21.394531-82.5625v-48.199219c0-30.417969-24.746094-55.164062-55.167969-55.164062zm0 0" data-original="#000000" class="active-path" data-old_color="#000000" fill="#808080"/></g> </svg>
