<svg xmlns="http://www.w3.org/2000/svg" xmlns:xlink="http://www.w3.org/1999/xlink" width="39.69" height="38.814" viewBox="0 0 39.69 38.814"><defs><linearGradient id="a" x1="0.5" x2="1" y2="1" gradientUnits="objectBoundingBox"><stop offset="0" stop-color="#ff6969"/><stop offset="1" stop-color="#ffc05a"/></linearGradient></defs><path d="M37.729,1.967a6.892,6.892,0,0,0-9.591,0L20.9,9.045a6.525,6.525,0,0,0-1.353,7.481L16.9,19.116a6.88,6.88,0,0,0-7.65,1.324L2.011,27.518a6.531,6.531,0,0,0,0,9.38,6.892,6.892,0,0,0,9.591,0l7.238-7.078a6.544,6.544,0,0,0,1.177-7.826l2.471-2.417a6.92,6.92,0,0,0,8-1.151l7.238-7.078a6.531,6.531,0,0,0,0-9.38ZM16.6,27.633,9.366,34.711a3.754,3.754,0,0,1-5.178,0,3.556,3.556,0,0,1,0-5.064l7.238-7.078a3.6,3.6,0,0,1,2.942-1.036l-1.942,1.9a2.052,2.052,0,0,0,0,2.935,2.165,2.165,0,0,0,3,0L17.546,24.3a3.5,3.5,0,0,1-.941,3.338ZM35.493,9.16l-7.238,7.078a3.856,3.856,0,0,1-3.354.978L26.2,15.951a2.052,2.052,0,0,0,0-2.935,2.165,2.165,0,0,0-3,0l-1.118,1.093a3.432,3.432,0,0,1,1.059-2.877L30.315,4.1a3.754,3.754,0,0,1,5.178,0,3.556,3.556,0,0,1,0,5.064Zm0,0" transform="translate(-0.025 -0.025)" fill="url(#a)"/></svg>