<svg xmlns="http://www.w3.org/2000/svg" xmlns:xlink="http://www.w3.org/1999/xlink" width="17" height="17" viewBox="0 0 17 17"><defs><clipPath id="a"><rect width="17" height="17" transform="translate(64 709)" fill="none" stroke="#707070" stroke-width="0.25"/></clipPath></defs><g transform="translate(-64 -709)" clip-path="url(#a)"><g transform="translate(64 710)"><path d="M26.841,8.665a4.333,4.333,0,1,1,4.341-4.341A4.344,4.344,0,0,1,26.841,8.665Zm0-7.835a3.494,3.494,0,1,0,3.494,3.494A3.506,3.506,0,0,0,26.841.83Z" transform="translate(-18.608)" fill="#00b2aa"/><path d="M.415,62.6A.41.41,0,0,1,0,62.183,5.484,5.484,0,0,1,5.483,56.7h5.535A5.484,5.484,0,0,1,16.5,62.183a.41.41,0,0,1-.415.415ZM5.483,57.53a4.657,4.657,0,0,0-4.6,4.03l-.017.19H15.653l-.035-.19a4.657,4.657,0,0,0-4.6-4.03Z" transform="translate(0 -46.893)" fill="#00b2aa"/></g></g></svg>