<svg xmlns="http://www.w3.org/2000/svg" xmlns:xlink="http://www.w3.org/1999/xlink" width="17" height="17" viewBox="0 0 17 17"><defs><clipPath id="a"><rect width="17" height="17" transform="translate(63 761)" fill="none" stroke="#707070" stroke-width="0.25"/></clipPath></defs><g transform="translate(-63 -761)" clip-path="url(#a)"><g transform="translate(63 761)"><path d="M15.992,6.052l-.517-.074-.64-.049-.172-.443.418-.492.3-.418a.772.772,0,0,0,.172-.517V3.986a.745.745,0,0,0-.246-.541L13.286,1.427a.745.745,0,0,0-.541-.246h-.074a.91.91,0,0,0-.517.148l-.418.3-.492.418L10.8,1.87l-.049-.64-.1-.492A.9.9,0,0,0,9.792,0H6.938a.945.945,0,0,0-.886.738l-.074.517-.049.64-.443.172-.492-.418-.418-.3a.831.831,0,0,0-.492-.148H4.01a.848.848,0,0,0-.566.246L1.427,3.469a.853.853,0,0,0-.246.541v.1a.887.887,0,0,0,.148.492l.3.418.443.492a3.9,3.9,0,0,0-.2.443L1.23,6l-.492.049A.923.923,0,0,0,0,6.938V9.792a.9.9,0,0,0,.738.861l.517.074.64.049a4.373,4.373,0,0,0,.2.443l-.443.492-.3.418a.81.81,0,0,0-.148.467v.1a.918.918,0,0,0,.246.566l2.017,2.017a.8.8,0,0,0,.566.246h.074a.831.831,0,0,0,.492-.148l.418-.3.492-.443c.172.074.32.148.443.2l.049.64.074.517a.923.923,0,0,0,.886.738H9.817a.9.9,0,0,0,.861-.738l.074-.517.049-.64a3.486,3.486,0,0,0,.443-.2l.492.443.418.3a.887.887,0,0,0,.492.148h.1a.7.7,0,0,0,.541-.246L15.3,13.261a.8.8,0,0,0,.246-.566v-.074a.709.709,0,0,0-.172-.492l-.3-.418-.418-.492.172-.443.64-.049.517-.074a.9.9,0,0,0,.738-.861V6.938a.945.945,0,0,0-.738-.886ZM15.82,9.767l-.467.074-.221.025-.96.074a1.989,1.989,0,0,1-.172.541,2.393,2.393,0,0,1-.148.369c-.025.049-.1.221-.246.492l.59.738.148.172.3.394-1.993,1.993-.369-.3-.2-.148-.738-.64a5.379,5.379,0,0,1-.492.271c-.074.049-.344.123-.369.148l-.541.172-.074.935-.025.246-.074.467h-2.8l-.074-.443-.025-.246-.074-.935L6.274,14,5.9,13.851a2.546,2.546,0,0,1-.492-.271l-.738.64-.172.148-.394.3L2.116,12.671l.3-.394.148-.172.64-.738a2.546,2.546,0,0,1-.271-.492l-.148-.369-.172-.541-.96-.074L1.4,9.866.935,9.792V6.963L1.4,6.889l.246-.025.96-.074.172-.517L2.928,5.9A2.546,2.546,0,0,1,3.2,5.413l-.64-.738-.148-.2-.3-.369L4.109,2.116l.394.3.172.148.738.615.2-.1c.123-.074.221-.1.3-.148q.3-.111.369-.148a4.24,4.24,0,0,1,.517-.172l.074-.96.025-.271L6.963.91h2.8l.074.467.025.221.074.96a3.484,3.484,0,0,1,.541.172l.369.148.271.148.221.1.738-.615.2-.148.369-.3,1.993,1.993-.3.369-.148.2-.59.738c.148.271.221.443.246.492A1.9,1.9,0,0,1,14,6.225a4.24,4.24,0,0,1,.172.517l.96.074.221.025.467.074Zm0,0" fill="#00b2aa"/><path d="M25.254,22.3a2.693,2.693,0,0,0-2.017.837,2.828,2.828,0,0,0-.837,2.017,2.693,2.693,0,0,0,.837,2.017,2.828,2.828,0,0,0,2.017.837,2.731,2.731,0,0,0,2.017-.837,2.693,2.693,0,0,0,.837-2.017,2.731,2.731,0,0,0-.837-2.017,2.828,2.828,0,0,0-2.017-.837Zm1.378,4.256a1.879,1.879,0,0,1-1.353.566,1.992,1.992,0,0,1-1.4-.566,1.916,1.916,0,0,1-.59-1.4,1.978,1.978,0,0,1,.566-1.378,1.916,1.916,0,0,1,1.4-.59,1.809,1.809,0,0,1,1.353.59,1.862,1.862,0,0,1,.59,1.378,1.992,1.992,0,0,1-.566,1.4Zm0,0" transform="translate(-16.889 -16.814)" fill="#00b2aa"/></g></g></svg>