<svg xmlns="http://www.w3.org/2000/svg" xmlns:xlink="http://www.w3.org/1999/xlink" width="17" height="17" viewBox="0 0 17 17"><defs><clipPath id="a"><rect width="17" height="17" transform="translate(64 1089)" fill="none" stroke="#707070" stroke-width="0.25"/></clipPath></defs><g transform="translate(-64 -1089)" clip-path="url(#a)"><g transform="translate(64.303 1090)"><path d="M66.681,1091.614H58.908v-13.006h7.773v2.309a.331.331,0,0,0,.308.308H67.6a.331.331,0,0,0,.308-.308v-2.309A1.349,1.349,0,0,0,66.6,1077.3h-7.7a1.349,1.349,0,0,0-1.308,1.308v13.006a1.349,1.349,0,0,0,1.308,1.308h7.773a1.349,1.349,0,0,0,1.308-1.308v-2.309a.331.331,0,0,0-.308-.308h-.616a.331.331,0,0,0-.308.308v2.309Z" transform="translate(-57.6 -1077.3)" fill="#00b2aa"/><path d="M75.544,1086.117l-3.925-3.54a.577.577,0,0,0-.385-.077c-.154.077-.231.154-.231.307v.616c0,.077.077.154.077.231l2.232,2h-9a.331.331,0,0,0-.308.308v.616a.331.331,0,0,0,.308.308h9.158l-2.232,2a.283.283,0,0,0-.077.231v.616c0,.154.077.231.231.308h.154a.283.283,0,0,0,.231-.077l3.925-3.54a.283.283,0,0,0,.077-.231C75.775,1086.117,75.621,1086.194,75.544,1086.117Z" transform="translate(-59.075 -1078.498)" fill="#00b2aa"/></g></g></svg>