<svg xmlns="http://www.w3.org/2000/svg" width="33.286" height="33.285" viewBox="0 0 33.286 33.285"><path d="M5739.029-8231.714a1.029,1.029,0,0,1-1.029-1.029v-29.809a2.454,2.454,0,0,1,2.448-2.449h28.39a2.455,2.455,0,0,1,2.448,2.449v29.809a1.029,1.029,0,0,1-1.029,1.029Zm1.029-2.059h29.17v-23.492h-29.17Zm5.679-25.551h23.492v-3.229a.393.393,0,0,0-.39-.39h-23.1Zm-5.679-3.229v3.229h3.62v-3.618h-3.229A.393.393,0,0,0,5740.058-8262.552Zm8.908,26.58a1.031,1.031,0,0,1-1.03-1.029,1.031,1.031,0,0,1,1.03-1.03h11.355a1.031,1.031,0,0,1,1.029,1.03,1.03,1.03,0,0,1-1.029,1.029Zm-1.419-4.259a1.03,1.03,0,0,1-1.03-1.028,1.031,1.031,0,0,1,1.03-1.03h14.195a1.03,1.03,0,0,1,1.029,1.03,1.029,1.029,0,0,1-1.029,1.028Zm-1.42-4.258a1.031,1.031,0,0,1-1.029-1.03,1.03,1.03,0,0,1,1.029-1.028h17.034a1.03,1.03,0,0,1,1.029,1.028,1.031,1.031,0,0,1-1.029,1.03Zm-1.418-4.258a1.03,1.03,0,0,1-1.03-1.03,1.03,1.03,0,0,1,1.03-1.029h19.872a1.03,1.03,0,0,1,1.029,1.029,1.03,1.03,0,0,1-1.029,1.03Zm-1.421-4.26a1.031,1.031,0,0,1-1.029-1.029,1.03,1.03,0,0,1,1.029-1.028H5766a1.03,1.03,0,0,1,1.029,1.028,1.03,1.03,0,0,1-1.029,1.029Z" transform="translate(-5738 8265)" fill="#c6c6c6"/></svg>