<svg xmlns="http://www.w3.org/2000/svg" xmlns:xlink="http://www.w3.org/1999/xlink" viewBox="0 0 34 34">
  <defs>
    <style>
      .cls-1 {
        fill: none;
        stroke: #707070;
        stroke-width: 0.5px;
      }

      .cls-2 {
        clip-path: url(#clip-path);
      }

      .cls-3 {
        fill: #11b7af;
      }
    </style>
    <clipPath id="clip-path">
      <rect id="Rectangle_715" data-name="Rectangle 715" class="cls-1" width="34" height="34" transform="translate(-2991 8861)"/>
    </clipPath>
  </defs>
  <g id="value_fairTrade" class="cls-2" transform="translate(2991 -8861)">
    <g id="Group_2366" data-name="Group 2366" transform="translate(-2990 8868)">
      <path id="Path_1677" data-name="Path 1677" class="cls-3" d="M2492.048,1384.118a1.824,1.824,0,0,1-1.083-.364,1.778,1.778,0,0,1-.625-.905,1.923,1.923,0,0,1-.606.093,1.976,1.976,0,0,1-1.269-.457,2.047,2.047,0,0,1-.673-1.064h-.083a2.224,2.224,0,0,1-2.221-2.23,1.873,1.873,0,0,1-1.018-.429,1.893,1.893,0,0,1-.251-2.66l.112-.131a2.709,2.709,0,0,0-1.26-1.437l-3.527-2.109a.482.482,0,0,1-.168-.653l.607-1.073a.478.478,0,0,1,.42-.243.4.4,0,0,1,.234.066.469.469,0,0,1,.177.653l-.382.662,3.135,1.876a4.275,4.275,0,0,1,1.437,1.427l.168-.205a1.868,1.868,0,0,1,2.977.093,2.217,2.217,0,0,1,3.023-.261,1.97,1.97,0,0,1,.775,1.335,2.218,2.218,0,0,1-.047.737,1.91,1.91,0,0,1,.849.411,2.008,2.008,0,0,1,.719,1.353,2.143,2.143,0,0,1-.028.6,1.774,1.774,0,0,1,.737.336,1.8,1.8,0,0,1,.681,1.176,1.743,1.743,0,0,1-.355,1.316l-.064.093a9.08,9.08,0,0,0,2.846.765h.028c.644-.009.989-.606,1.147-1.007a22.23,22.23,0,0,1-3.789-2,.483.483,0,0,1-.131-.672.5.5,0,0,1,.4-.215.485.485,0,0,1,.271.084,12.482,12.482,0,0,0,4.871,2.221.4.4,0,0,0,.2-.038,1.316,1.316,0,0,0,.476-.905l-4.525-2.612a.486.486,0,0,1-.178-.663.48.48,0,0,1,.42-.243.454.454,0,0,1,.243.065l4.787,2.762a1.085,1.085,0,0,0,.541.14,1.105,1.105,0,0,0,.868-.438.662.662,0,0,0,.028-.756c-.019-.037-.037-.074-.056-.121a1.9,1.9,0,0,1-.364-.177l-2.612-1.624a.485.485,0,0,1-.159-.662.479.479,0,0,1,.411-.224.471.471,0,0,1,.252.075l2.622,1.624a1.074,1.074,0,0,0,.579.168,1.1,1.1,0,0,0,.9-.467,1.092,1.092,0,0,0-.307-1.549l-8.688-5.506a1.188,1.188,0,0,0-.607-.233c-.3,0-.6.252-1.185.784-.2.177-.429.383-.69.606a4.737,4.737,0,0,1-2.725,1.39,2.143,2.143,0,0,1-.886-.2,1.344,1.344,0,0,1-.719-1.437,2.851,2.851,0,0,1,.654-1.661l.98-1.222a6.049,6.049,0,0,1-3.089-1.223l-2.735-2.239-2.874,5.076a.477.477,0,0,1-.419.242.4.4,0,0,1-.233-.065.462.462,0,0,1-.224-.29.452.452,0,0,1,.047-.364l3.163-5.571a.463.463,0,0,1,.327-.233.26.26,0,0,1,.084-.009.465.465,0,0,1,.308.112l3.182,2.6a5.228,5.228,0,0,0,2.968,1.026,2.787,2.787,0,0,0,.28-.009l.261-.326c.009-.019.028-.028.037-.047a5.973,5.973,0,0,1,4.2-1.26,16.648,16.648,0,0,1,3.984.532,7.676,7.676,0,0,0,1.839.242,5.244,5.244,0,0,0,1.39-.177l-.242-.429a.956.956,0,0,1,.317-1.278l2.09-1.344a.938.938,0,0,1,.513-.149.914.914,0,0,1,.224.028.974.974,0,0,1,.606.447l5.413,9.192a.963.963,0,0,1-.326,1.306l-2.286,1.381a.921.921,0,0,1-.494.14,1,1,0,0,1-.242-.028.91.91,0,0,1-.589-.457l-.345-.607-1.847,1.68c.009.047.019.084.028.131a2.054,2.054,0,0,1-1.661,2.426,1.611,1.611,0,0,1-.271,1.344,2.043,2.043,0,0,1-1.643.831,1.736,1.736,0,0,1-.373-.038,2.1,2.1,0,0,1-.84,1.316,1.348,1.348,0,0,1-.738.187,3.232,3.232,0,0,1-.69-.084,2.245,2.245,0,0,1-2.062,1.7h-.037a10.392,10.392,0,0,1-3.462-.942l-.392.513A1.9,1.9,0,0,1,2492.048,1384.118Zm-.812-1.848a.816.816,0,0,0,.812.887.85.85,0,0,0,.654-.318l1.063-1.39a.836.836,0,0,0,.159-.606.824.824,0,0,0-.812-.709.638.638,0,0,0-.131.009l-1.708,2.081c0,.009-.019.028-.037.047Zm-2.52-1.185a1.045,1.045,0,0,0,.364.662,1.034,1.034,0,0,0,.654.233,1.06,1.06,0,0,0,.708-.28l.019-.019.075-.075,1.763-2.146a1.022,1.022,0,0,0,.233-.756,1.032,1.032,0,0,0-1.026-.933h-.047l-2.1,2.678A3.191,3.191,0,0,1,2488.717,1381.085Zm-2.24-2.044a1.232,1.232,0,0,0,.467,1.157,1.279,1.279,0,0,0,.774.271c.28,0,.56-.2.886-.616l2.119-2.7c.028-.037.046-.065.074-.1l.009-.009a1.232,1.232,0,0,0,.224-.812,1.023,1.023,0,0,0-.41-.691,1.226,1.226,0,0,0-.775-.27,1.267,1.267,0,0,0-.989.476l-.307.392a1.906,1.906,0,0,1-.43,1.232l-.961,1.157A2.15,2.15,0,0,1,2486.477,1379.042Zm.177-3.808a.925.925,0,0,0-.718.336l-.961,1.157a.93.93,0,0,0,.122,1.306.911.911,0,0,0,.588.215,1.069,1.069,0,0,0,.243-.028h.01a.87.87,0,0,0,.457-.3l.961-1.157a.947.947,0,0,0,.205-.7h0a.9.9,0,0,0-.326-.6A.8.8,0,0,0,2486.655,1375.234Zm8.259-6.3a2.117,2.117,0,0,1,1.13.383l8.688,5.515a2.029,2.029,0,0,1,.411.336l1.838-1.67-2.156-3.808a.46.46,0,0,1-.047-.364.5.5,0,0,1,.224-.289.553.553,0,0,1,.233-.065.479.479,0,0,1,.42.243l2.986,5.273,2.277-1.381-5.422-9.183-2.09,1.353,1.26,2.2a.455.455,0,0,1,.047.364.5.5,0,0,1-.224.289.55.55,0,0,1-.233.065.48.48,0,0,1-.42-.242l-.522-.924a6.059,6.059,0,0,1-1.885.28,8.6,8.6,0,0,1-2.072-.271,16.236,16.236,0,0,0-3.78-.495,5.1,5.1,0,0,0-3.48.971l-1.988,2.473a1.908,1.908,0,0,0-.438,1.1c-.01.2.009.448.159.513a1.14,1.14,0,0,0,.476.112,3.865,3.865,0,0,0,2.118-1.157c.243-.206.466-.4.663-.579C2493.737,1369.392,2494.251,1368.935,2494.913,1368.935Z" transform="translate(-2479.311 -1363)"/>
      <path id="Path_1678" data-name="Path 1678" class="cls-3" d="M2676.405,1487.546a.467.467,0,0,1-.252-.075l-.784-.485a.484.484,0,0,1-.159-.662.49.49,0,0,1,.411-.224.47.47,0,0,1,.251.075l.784.485a.467.467,0,0,1,.215.3.5.5,0,0,1-.056.364A.49.49,0,0,1,2676.405,1487.546Z" transform="translate(-2656.865 -1474.612)"/>
    </g>
  </g>
</svg>
