<svg xmlns="http://www.w3.org/2000/svg" xmlns:xlink="http://www.w3.org/1999/xlink" viewBox="0 0 34 34">
  <defs>
    <style>
      .cls-1 {
        fill: none;
        stroke: #707070;
        stroke-width: 0.5px;
      }

      .cls-2 {
        clip-path: url(#clip-path);
      }

      .cls-3 {
        fill: #11b7af;
      }

      .cls-4 {
        fill: #00b2aa;
      }
    </style>
    <clipPath id="clip-path">
      <rect id="Rectangle_699" data-name="Rectangle 699" class="cls-1" width="34" height="34" transform="translate(-2991 8533)"/>
    </clipPath>
  </defs>
  <g id="value_glutenFree" class="cls-2" transform="translate(2991 -8533)">
    <g id="Group_2368" data-name="Group 2368" transform="translate(-3315 8351)">
      <g id="Group_2344" data-name="Group 2344" transform="translate(332 224)">
        <path id="Path_1654" data-name="Path 1654" class="cls-3" d="M653.5,1359.007a14.2,14.2,0,1,1,14.2-14.2A14.222,14.222,0,0,1,653.5,1359.007Zm-11.73-20.474a13.3,13.3,0,0,0,22.732,13.755l-3-1.82.457-.765,3.023,1.829a13.307,13.307,0,0,0-22.77-13.774l4.349,2.632-.457.765Z" transform="translate(-644.3 -1369.6)"/>
      </g>
      <path id="Path_1721" data-name="Path 1721" class="cls-4" d="M140.528,65.711a.412.412,0,0,1-.414-.414V61.368l-1.647-1.149a4.832,4.832,0,0,1-2.068-3.96V54.222a.411.411,0,0,1,.222-.368l.023-.008.13-.061-.054-.138a4.784,4.784,0,0,1-.322-1.731V49.9a.411.411,0,0,1,.222-.368l.023-.008.13-.061-.054-.138a4.784,4.784,0,0,1-.322-1.731V45.56a.411.411,0,0,1,.222-.368.415.415,0,0,1,.191-.046.383.383,0,0,1,.237.077l1.2.842V44.672a.414.414,0,0,1,.827,0v1.961l1.026.712V43.914a.414.414,0,1,1,.827,0v3.439l1.026-.712V44.672a.414.414,0,0,1,.827,0v1.386l1.2-.842a.437.437,0,0,1,.237-.077.411.411,0,0,1,.414.414V47.59a4.784,4.784,0,0,1-.322,1.731l-.054.138.13.061a.027.027,0,0,1,.015.008.411.411,0,0,1,.222.368v2.037a4.783,4.783,0,0,1-.322,1.731l-.054.138.13.061.015.008a.427.427,0,0,1,.23.368v2.037a4.832,4.832,0,0,1-2.068,3.96l-1.647,1.149v3.929A.376.376,0,0,1,140.528,65.711Zm-3.3-9.443a4,4,0,0,0,1.708,3.278l1.172.819V57.041l-2.88-2.014Zm3.715.766v3.324l1.172-.812a3.993,3.993,0,0,0,1.708-3.278V55.027Zm-3.715-5.1a4,4,0,0,0,1.708,3.278l1.172.82V52.706l-2.88-2.007Zm3.715.766v3.324l1.172-.819a3.982,3.982,0,0,0,1.708-3.278V50.684l-1.248.873Zm0-4.335v3.324l1.172-.819a3.993,3.993,0,0,0,1.708-3.278V46.349Zm-3.715-.766a4,4,0,0,0,1.708,3.278l1.172.82V48.363l-2.88-2.007Z" transform="translate(201.047 144.926)"/>
    </g>
  </g>
</svg>
