<svg xmlns="http://www.w3.org/2000/svg" xmlns:xlink="http://www.w3.org/1999/xlink" viewBox="0 0 34 34">
  <defs>
    <style>
      .cls-1 {
        fill: none;
        stroke: #707070;
        stroke-width: 0.5px;
      }

      .cls-2 {
        clip-path: url(#clip-path);
      }

      .cls-3 {
        fill: #00b2aa;
      }
    </style>
    <clipPath id="clip-path">
      <rect id="Rectangle_696" data-name="Rectangle 696" class="cls-1" width="34" height="34" transform="translate(-3197 8533)"/>
    </clipPath>
  </defs>
  <g id="value_vegan" class="cls-2" transform="translate(3197 -8533)">
    <path id="Union_15" data-name="Union 15" class="cls-3" d="M11.674,27.886a25.77,25.77,0,0,1-2.93-.327c-.579-.1-1.148-.215-1.717-.345a1.1,1.1,0,0,1-.84-1.073.367.367,0,0,1,0-.1.677.677,0,0,0-.28-.653,20.643,20.643,0,0,1-4.115-5.338A15.512,15.512,0,0,1,.177,15.39a10.967,10.967,0,0,1-.14-2.819,5.319,5.319,0,0,1,.112-.532c.009-.056.018-.121.028-.177a1.885,1.885,0,0,1,.7-1.083,5.736,5.736,0,0,1,1.67-.924,15.49,15.49,0,0,1,2.324-.69c.018-.009.047-.009.065-.018-.028-.168-.065-.336-.084-.5A4.678,4.678,0,0,1,5.2,6.357,7.458,7.458,0,0,1,6.075,4.78a1.381,1.381,0,0,0,.084-.121c-.037-.018-.065-.047-.1-.065A9.327,9.327,0,0,1,3.378,2.326,5.134,5.134,0,0,1,2.538.832.894.894,0,0,1,2.482.422.5.5,0,0,1,2.93,0a.5.5,0,0,1,.532.336,4.543,4.543,0,0,0,1.1,1.782A8.926,8.926,0,0,0,6.6,3.725c.158-.4.289-.8.476-1.176A3.833,3.833,0,0,1,9.387.44,4.661,4.661,0,0,1,11.478.282a9.965,9.965,0,0,1,3.6,1.307,16.438,16.438,0,0,1,3.322,2.4A15.831,15.831,0,0,1,21.183,7.5c.28.476.523.962.775,1.446a.174.174,0,0,0,.14.1,16.526,16.526,0,0,1,3.2.933,5,5,0,0,1,1.483.9,1.71,1.71,0,0,1,.616,1.092c.037.383.056.756.075,1.138a15,15,0,0,1-.093,2.333,13.665,13.665,0,0,1-1.017,3.78A15.632,15.632,0,0,1,23.3,23.808a20.334,20.334,0,0,1-1.857,1.736.22.22,0,0,0-.093.205,4.853,4.853,0,0,1-.018.523,1.05,1.05,0,0,1-.849.933c-.914.159-1.82.317-2.734.448a29.611,29.611,0,0,1-3.145.261q-.586.022-1.169.022C12.849,27.936,12.263,27.919,11.674,27.886ZM1.045,13.711a11.855,11.855,0,0,0,.355,2.5,15.573,15.573,0,0,0,2.212,4.9,21.31,21.31,0,0,0,3.406,3.92.6.6,0,0,1,.205.466v.579a.145.145,0,0,0,.14.168c.8.14,1.6.3,2.4.42a24.383,24.383,0,0,0,3.3.243,32.07,32.07,0,0,0,3.9-.2c1.092-.121,2.174-.289,3.248-.495.1-.018.14-.065.131-.168v-.663a.535.535,0,0,1,.205-.439,19.658,19.658,0,0,0,2.781-2.725,13.918,13.918,0,0,0,2.221-3.7,12.633,12.633,0,0,0,.859-3.509c.019-.429.037-.877.066-1.344-.317.168-.6.345-.9.485a12.745,12.745,0,0,1-2.6.868,32.436,32.436,0,0,1-4.526.719c-1.475.14-2.958.205-4.442.214-.439,0-.877,0-1.307-.018-.663-.018-1.325-.037-1.988-.075-1.167-.065-2.324-.177-3.481-.345a24.359,24.359,0,0,1-3.649-.775,8.869,8.869,0,0,1-2.5-1.12c-.01-.01-.019,0-.037-.01A.317.317,0,0,0,1.045,13.711Zm4.246-3.565c-.5.121-1.008.242-1.5.392a7.64,7.64,0,0,0-1.969.84,1.92,1.92,0,0,0-.56.5.406.406,0,0,0,0,.5,2.418,2.418,0,0,0,.373.383,4.594,4.594,0,0,0,1.251.662,19.406,19.406,0,0,0,4.181,1.027c1.148.177,2.305.289,3.462.364,1.483.093,2.977.121,4.46.093,1.437-.037,2.865-.121,4.283-.289a29.065,29.065,0,0,0,3.686-.653,11.035,11.035,0,0,0,2.408-.859,2.6,2.6,0,0,0,.887-.672.423.423,0,0,0-.01-.616,2.6,2.6,0,0,0-.513-.448,7.109,7.109,0,0,0-1.913-.83c-.42-.131-.859-.243-1.335-.374a.4.4,0,0,1,.028.093c.168.514.345,1.017.495,1.531a.512.512,0,0,1-.4.709,24.161,24.161,0,0,1-3.91.784,25.308,25.308,0,0,1-4.115.168,24.648,24.648,0,0,1-4.143-.541,11.878,11.878,0,0,1-3.014-1.036A5.18,5.18,0,0,1,5.4,10.173a.1.1,0,0,0-.081-.031A.125.125,0,0,0,5.291,10.146ZM7.008,5.237A6.046,6.046,0,0,0,6.047,7.01a3.19,3.19,0,0,0-.14,1.773,2.9,2.9,0,0,0,1.111,1.633,7.207,7.207,0,0,0,2.24,1.12,20.568,20.568,0,0,0,4.573.849,21.254,21.254,0,0,0,2.781.047,25.081,25.081,0,0,0,4.339-.56c.317-.075.635-.159.952-.233-.018-.056-.028-.1-.037-.14A17.137,17.137,0,0,0,19.756,7.16,14.714,14.714,0,0,0,13.13,1.784a5.864,5.864,0,0,0-2.519-.523A2.753,2.753,0,0,0,8.352,2.419a4.9,4.9,0,0,0-.775,1.764.164.164,0,0,0,.066.187A27.335,27.335,0,0,0,9.882,5.993a22.737,22.737,0,0,0,7.3,3.219.505.505,0,0,1,.382.625.516.516,0,0,1-.616.373,18.785,18.785,0,0,1-2.837-.868,27.7,27.7,0,0,1-6.971-4.06c-.028-.028-.066-.047-.093-.075C7.027,5.228,7.017,5.237,7.008,5.237ZM6.6,3.725C6.588,3.725,6.6,3.735,6.6,3.725ZM7.745,23.574c-.28-.252-.56-.523-.821-.793a13.325,13.325,0,0,1-2.23-3.154c-.037-.094-.056-.177-.084-.261a.542.542,0,0,1,.392-.5.5.5,0,0,1,.579.252c.14.243.261.485.4.728A12.482,12.482,0,0,0,8.4,22.791a.519.519,0,0,1,.13.681.508.508,0,0,1-.433.241A.514.514,0,0,1,7.745,23.574ZM4.1,17.957c-.065-.224-.131-.458-.177-.691a.509.509,0,0,1,.411-.635.52.52,0,0,1,.6.439c.037.187.093.373.149.56a.523.523,0,0,1-.5.672A.482.482,0,0,1,4.1,17.957Z" transform="translate(-3194 8536.907)"/>
  </g>
</svg>
