<svg xmlns="http://www.w3.org/2000/svg" xmlns:xlink="http://www.w3.org/1999/xlink" viewBox="0 0 70 69">
  <defs>
    <style>
      .cls-1 {
        fill: none;
        stroke: #707070;
      }

      .cls-2 {
        clip-path: url(#clip-path);
      }

      .cls-3 {
        fill: #00b2aa;
      }
    </style>
    <clipPath id="clip-path">
      <rect id="Rectangle_613" data-name="Rectangle 613" class="cls-1" width="70" height="69" transform="translate(989 3815)"/>
    </clipPath>
  </defs>
  <g id="Mask_Group_90" data-name="Mask Group 90" class="cls-2" transform="translate(-989 -3815)">
    <path id="Union_14" data-name="Union 14" class="cls-3" d="M8.734,48.945a.722.722,0,0,1-.716-.717V41l-.1-.068A17.335,17.335,0,0,1,0,26.07a.743.743,0,0,1,.5-.689l.669-.23-.029-.067A11.483,11.483,0,0,1,4.4,11.533a.742.742,0,0,1,.593-.153l.258.048a8.726,8.726,0,0,1,7.89-7.163,10.476,10.476,0,0,1,10.663-1.9l.143.057a2.465,2.465,0,0,1,1.683,1.061,1.548,1.548,0,0,1,.125.211,2.462,2.462,0,0,1,.2,1.855,2.383,2.383,0,0,1-1.9,1.7l-.306.048a6.952,6.952,0,0,0-4.562,2.868l-1.712,4.094.2,5.461a2.632,2.632,0,0,1,1.989,1.358L23.05,27.37a2.626,2.626,0,0,1,.24.641h1.367V24.148a.717.717,0,1,1,1.435,0v3.863h2.487a1.731,1.731,0,0,1,1.731,1.731v3.7a.723.723,0,0,1-.717.717H27.918v1.186h2.524a.723.723,0,0,1,.717.717v1.52h24.4v-19.1h-3.52v2.057a3.3,3.3,0,0,1-6.6,0V18.486H42.665a3.134,3.134,0,0,1-5.834,0H26.1v2.888a.717.717,0,1,1-1.435,0V12.6a4.1,4.1,0,0,1,4.1-4.1h1.645V6.627H28.08a.722.722,0,0,1-.716-.717V1.731A1.73,1.73,0,0,1,29.094,0h3.213a.723.723,0,0,1,.717.717.723.723,0,0,1-.717.717H29.094a.3.3,0,0,0-.3.3V5.193H52.869V1.731a.3.3,0,0,0-.3-.3H35.081a.723.723,0,0,1-.717-.717A.723.723,0,0,1,35.081,0H52.563a1.73,1.73,0,0,1,1.731,1.731V5.91a.723.723,0,0,1-.717.717H51.243V8.5H52.9A4.107,4.107,0,0,1,57,12.6V42.385a4.1,4.1,0,0,1-4.1,4.1H48.02a.717.717,0,0,1,0-1.435h4.868a2.67,2.67,0,0,0,2.668-2.668V39.019H31.16v6.025H45.247a.717.717,0,1,1,0,1.435h-14.1v1.75a.723.723,0,0,1-.717.717Zm.737-1.415H29.725v-1.77h.01v-8.98H9.471Zm7.536-26.29L1.494,26.624A15.858,15.858,0,0,0,8.036,39.219V36.064a.71.71,0,0,1,.717-.717h2.524V34.16H9.6a.723.723,0,0,1-.717-.717v-3.7a1.731,1.731,0,0,1,1.731-1.731h11.1l-3.357-6.225a1.114,1.114,0,0,0-1.358-.545ZM12.712,35.346H26.483V34.16H12.712Zm-2.391-5.6v2.983H28.874V29.742a.3.3,0,0,0-.3-.3H10.618A.3.3,0,0,0,10.322,29.742Zm-7.813-5.25.077.182,13.608-4.734L16,14.747,5.081,12.9A10.01,10.01,0,0,0,2.508,24.492Zm44.374-8.961v5.012a1.865,1.865,0,0,0,3.729,0V9.937H38.045v7.411a1.7,1.7,0,0,0,3.4,0V15.531a2.716,2.716,0,1,1,5.432,0Zm5.164,1.52h3.52V12.6A2.669,2.669,0,0,0,52.9,9.937h-.851Zm-9.161-1.52v1.52h2.563v-1.52a1.281,1.281,0,0,0-2.563,0ZM26.091,12.6v4.447h10.52V9.937H28.759A2.669,2.669,0,0,0,26.091,12.6ZM6.716,11.687,16.27,13.3l1.387-3.327L13.181,5.738A7.27,7.27,0,0,0,6.716,11.687ZM14.558,5l3.883,3.682a8.416,8.416,0,0,1,5.049-2.86l.307-.048a.915.915,0,0,0,.736-.659c.01-.058.019-.105.029-.163a.985.985,0,0,0-.871-1.08.625.625,0,0,1-.191-.038l-.22-.086A9.022,9.022,0,0,0,14.558,5ZM31.849,8.5h17.96V6.627H31.849ZM12,44.776a.717.717,0,1,1,0-1.435H27.2a.717.717,0,1,1,0,1.435Zm4.658-2.821a.717.717,0,1,1,0-1.435h5.891a.717.717,0,0,1,0,1.435ZM33.5,34.821a.717.717,0,1,1,0-1.435H48.154a.717.717,0,1,1,0,1.435Zm.324-3.271a.722.722,0,0,1-.716-.717V26.988a.722.722,0,0,1,.716-.717h14a.723.723,0,0,1,.717.717v3.844a.723.723,0,0,1-.717.717Zm.717-1.425H47.111v-2.41H34.545Z" transform="translate(996 3825)"/>
  </g>
</svg>
