<svg xmlns="http://www.w3.org/2000/svg" xmlns:xlink="http://www.w3.org/1999/xlink" viewBox="0 0 100 100">
  <defs>
    <style>
      .cls-1 {
        fill: #fff;
      }

      .cls-2 {
        fill: none;
      }

      .cls-3 {
        fill: url(#linear-gradient);
      }
    </style>
    <linearGradient id="linear-gradient" x1="0.25" x2="0.867" y2="1" gradientUnits="objectBoundingBox">
      <stop offset="0" stop-color="#ff6969"/>
      <stop offset="1" stop-color="#ffc05a"/>
    </linearGradient>
  </defs>
  <g id="photoicon_whiteRound" transform="translate(-138 -425)">
    <rect id="Rectangle_573" data-name="Rectangle 573" class="cls-1" width="100" height="100" rx="50" transform="translate(138 425)"/>
    <g id="cameraIcon" transform="translate(-13 457)">
      <path id="Bounds" class="cls-2" d="M180,0h42.411V42.411H180Z"/>
      <path id="Icon" class="cls-3" d="M3.534,31.81A3.545,3.545,0,0,1,0,28.275V7.07A3.543,3.543,0,0,1,3.534,3.537H9.189L12.371,0h10.6l3.181,3.537h5.656A3.543,3.543,0,0,1,35.343,7.07V28.275a3.545,3.545,0,0,1-3.534,3.534Zm5.3-14.136A8.836,8.836,0,1,0,17.67,8.837,8.752,8.752,0,0,0,8.834,17.674Zm3.181,0a5.655,5.655,0,1,1,5.656,5.652A5.655,5.655,0,0,1,12.015,17.674Z" transform="translate(183.535 3.533)"/>
    </g>
  </g>
</svg>
