<svg xmlns="http://www.w3.org/2000/svg" viewBox="0 0 13.147 13.15">
  <defs>
    <style>
      .cls-1 {
        fill: #838383;
      }
    </style>
  </defs>
  <path id="comment" class="cls-1" d="M11.791,0H1.359A1.373,1.373,0,0,0,0,1.382V8.393A1.373,1.373,0,0,0,1.359,9.775H6.189L10.3,13.15V9.779h1.486A1.373,1.373,0,0,0,13.147,8.4V1.385A1.369,1.369,0,0,0,11.791,0ZM3.361,5.877a1.03,1.03,0,1,1,1.033-1.03,1.033,1.033,0,0,1-1.033,1.03Zm3.214,0a1.03,1.03,0,1,1,1.033-1.03,1.033,1.033,0,0,1-1.033,1.03Zm3.214,0a1.03,1.03,0,1,1,1.033-1.03,1.033,1.033,0,0,1-1.033,1.03Zm0,0"/>
</svg>
