<svg xmlns="http://www.w3.org/2000/svg" xmlns:xlink="http://www.w3.org/1999/xlink" viewBox="0 0 70 69">
  <defs>
    <style>
      .cls-1 {
        fill: none;
        stroke: #707070;
      }

      .cls-2 {
        clip-path: url(#clip-path);
      }

      .cls-3 {
        fill: #00b2aa;
      }
    </style>
    <clipPath id="clip-path">
      <rect id="Rectangle_612" data-name="Rectangle 612" class="cls-1" width="70" height="69" transform="translate(475 3628)"/>
    </clipPath>
  </defs>
  <g id="csa_green_icon" class="cls-2" transform="translate(-475 -3628)">
    <g id="Group_2229" data-name="Group 2229" transform="translate(485 3641)">
      <path id="Path_1460" data-name="Path 1460" class="cls-3" d="M6.316,21.474H7.785V18.879H24.313v2.595h1.469V18.879H42.311v2.595H43.78V18.879h6.326V17.41H43.77v-1.6a7.154,7.154,0,0,0,4.592-1.772,7.225,7.225,0,0,0,1.772-4.71l-.01-.715-.715-.01a7.211,7.211,0,0,0-4.71,1.772,5.148,5.148,0,0,0-.92,1.263V9.5A7.011,7.011,0,0,0,45.7,5.082,7.214,7.214,0,0,0,43.623.5L43.094,0l-.509.5A7.22,7.22,0,0,0,40.5,5.092a6.962,6.962,0,0,0,1.8,4.289v2.066a4.842,4.842,0,0,0-.813-1.058,7.225,7.225,0,0,0-4.71-1.772l-.715.01-.01.715a7.225,7.225,0,0,0,1.772,4.71A7.007,7.007,0,0,0,42.3,15.814v1.6H25.772v-1.6a7.154,7.154,0,0,0,4.592-1.772,7.225,7.225,0,0,0,1.772-4.71l-.01-.715-.715-.01a7.225,7.225,0,0,0-4.71,1.772,5.148,5.148,0,0,0-.92,1.263V9.5A7.011,7.011,0,0,0,27.7,5.082,7.214,7.214,0,0,0,25.625.5L25.1,0l-.509.5A7.22,7.22,0,0,0,22.5,5.092a6.962,6.962,0,0,0,1.8,4.289v2.066a4.842,4.842,0,0,0-.813-1.058,7.225,7.225,0,0,0-4.71-1.772l-.715.01-.01.715a7.225,7.225,0,0,0,1.772,4.71A7.007,7.007,0,0,0,24.3,15.814v1.6H7.775v-1.6a7.154,7.154,0,0,0,4.592-1.772,7.225,7.225,0,0,0,1.772-4.71l-.01-.715-.715-.01a7.225,7.225,0,0,0-4.71,1.772,5.148,5.148,0,0,0-.92,1.263V9.5A7.061,7.061,0,0,0,9.694,5.092,7.283,7.283,0,0,0,7.618.5L7.1,0,6.59.5A7.22,7.22,0,0,0,4.5,5.092a6.962,6.962,0,0,0,1.8,4.289v2.066a4.842,4.842,0,0,0-.813-1.058A7.171,7.171,0,0,0,.783,8.607l-.715.01-.01.715a7.225,7.225,0,0,0,1.772,4.71A7.007,7.007,0,0,0,6.306,15.8v1.6H0v1.469H6.316ZM45.728,11.417A5.2,5.2,0,0,1,48.6,10.144a5.159,5.159,0,0,1-1.273,2.869,5.171,5.171,0,0,1-2.869,1.273A5.229,5.229,0,0,1,45.728,11.417Zm-6.864,1.6a5.2,5.2,0,0,1-1.273-2.869,5.159,5.159,0,0,1,2.869,1.273,5.171,5.171,0,0,1,1.273,2.869A5.229,5.229,0,0,1,38.864,13.013Zm4.23-10.849A5.177,5.177,0,0,1,44.22,5.092,5.177,5.177,0,0,1,43.094,8.02a5.177,5.177,0,0,1-1.126-2.928A5.148,5.148,0,0,1,43.094,2.164ZM27.731,11.417A5.2,5.2,0,0,1,30.6,10.144a5.159,5.159,0,0,1-1.273,2.869,5.171,5.171,0,0,1-2.869,1.273A5.229,5.229,0,0,1,27.731,11.417Zm-6.864,1.6a5.2,5.2,0,0,1-1.273-2.869,5.159,5.159,0,0,1,2.869,1.273,5.171,5.171,0,0,1,1.273,2.869A5.229,5.229,0,0,1,20.867,13.013ZM25.1,2.164a5.177,5.177,0,0,1,1.126,2.928A5.177,5.177,0,0,1,25.1,8.02a5.177,5.177,0,0,1-1.126-2.928A5.148,5.148,0,0,1,25.1,2.164ZM9.733,11.417A5.2,5.2,0,0,1,12.6,10.144a5.159,5.159,0,0,1-1.273,2.869A5.171,5.171,0,0,1,8.46,14.286,5.229,5.229,0,0,1,9.733,11.417Zm-6.864,1.6A5.171,5.171,0,0,1,1.6,10.144a5.229,5.229,0,0,1,2.869,1.273,5.171,5.171,0,0,1,1.273,2.869A5.229,5.229,0,0,1,2.869,13.013ZM7.1,2.164A5.177,5.177,0,0,1,8.225,5.092,5.177,5.177,0,0,1,7.1,8.02,5.177,5.177,0,0,1,5.973,5.092,5.148,5.148,0,0,1,7.1,2.164Z"/>
      <path id="Path_1461" data-name="Path 1461" class="cls-3" d="M50.125,252.507l-.715-.01a7.211,7.211,0,0,0-4.71,1.772,5.147,5.147,0,0,0-.92,1.263V253.4a7.461,7.461,0,0,0,1.87-3.731h4.455V248.2H45.63a7.592,7.592,0,0,0-2.017-3.8l-.509-.5-.509.5a7.646,7.646,0,0,0-2.017,3.8H27.623a7.592,7.592,0,0,0-2.017-3.8l-.509-.5-.509.5a7.646,7.646,0,0,0-2.017,3.8H9.625a7.612,7.612,0,0,0-2.007-3.8l-.509-.5-.509.5a7.646,7.646,0,0,0-2.017,3.8H0v1.469H4.553a7.4,7.4,0,0,0,1.753,3.6v2.066a4.843,4.843,0,0,0-.813-1.058,7.137,7.137,0,0,0-4.71-1.772l-.715.01-.01.715a7.225,7.225,0,0,0,1.772,4.71A7.007,7.007,0,0,0,6.306,259.7v4.583H7.775V259.7a7.154,7.154,0,0,0,4.592-1.772,7.225,7.225,0,0,0,1.772-4.71l-.01-.715-.715-.01a7.225,7.225,0,0,0-4.71,1.772,5.147,5.147,0,0,0-.92,1.263V253.4a7.461,7.461,0,0,0,1.87-3.731H22.561a7.4,7.4,0,0,0,1.753,3.6v2.066a4.843,4.843,0,0,0-.813-1.058,7.225,7.225,0,0,0-4.71-1.772l-.715.01-.01.715a7.225,7.225,0,0,0,1.772,4.71,7.007,7.007,0,0,0,4.475,1.763v4.583h1.469V259.7a7.154,7.154,0,0,0,4.592-1.772,7.225,7.225,0,0,0,1.772-4.71l-.01-.715-.715-.01a7.225,7.225,0,0,0-4.71,1.772,5.147,5.147,0,0,0-.92,1.263V253.4a7.461,7.461,0,0,0,1.87-3.731H40.568a7.4,7.4,0,0,0,1.753,3.6v2.066a4.843,4.843,0,0,0-.813-1.058,7.225,7.225,0,0,0-4.71-1.772l-.715.01-.01.715a7.225,7.225,0,0,0,1.772,4.71,7.007,7.007,0,0,0,4.475,1.763v4.583h1.469V259.7a7.154,7.154,0,0,0,4.592-1.772,7.225,7.225,0,0,0,1.772-4.71ZM2.869,256.9A5.171,5.171,0,0,1,1.6,254.035a5.229,5.229,0,0,1,2.869,1.273,5.171,5.171,0,0,1,1.273,2.869A5.229,5.229,0,0,1,2.869,256.9Zm6.864-1.586a5.2,5.2,0,0,1,2.869-1.273,5.159,5.159,0,0,1-1.273,2.869,5.171,5.171,0,0,1-2.869,1.273A5.171,5.171,0,0,1,9.733,255.317ZM20.867,256.9a5.2,5.2,0,0,1-1.273-2.869,5.159,5.159,0,0,1,2.869,1.273,5.171,5.171,0,0,1,1.273,2.869A5.229,5.229,0,0,1,20.867,256.9Zm6.864-1.586a5.2,5.2,0,0,1,2.869-1.273,5.159,5.159,0,0,1-1.273,2.869,5.171,5.171,0,0,1-2.869,1.273A5.171,5.171,0,0,1,27.731,255.317ZM38.864,256.9a5.2,5.2,0,0,1-1.273-2.869,5.159,5.159,0,0,1,2.869,1.273,5.171,5.171,0,0,1,1.273,2.869A5.229,5.229,0,0,1,38.864,256.9ZM7.1,251.91a4.369,4.369,0,0,1,0-5.856,4.369,4.369,0,0,1,0,5.856Zm18,0a4.369,4.369,0,0,1,0-5.856,4.369,4.369,0,0,1,0,5.856Zm18-5.856a4.369,4.369,0,0,1,0,5.856,4.369,4.369,0,0,1,0-5.856Zm4.23,10.849a5.171,5.171,0,0,1-2.869,1.273,4.365,4.365,0,0,1,4.142-4.142A5.091,5.091,0,0,1,47.324,256.9Z" transform="translate(0 -220.017)"/>
      <rect id="Rectangle_583" data-name="Rectangle 583" class="cls-3" width="50.095" height="1.469" transform="translate(0 48.431)"/>
      <rect id="Rectangle_584" data-name="Rectangle 584" class="cls-3" width="1.469" height="1.469" transform="translate(1.958 22.208)"/>
      <rect id="Rectangle_585" data-name="Rectangle 585" class="cls-3" width="1.469" height="1.469" transform="translate(14.874 25.733)"/>
      <rect id="Rectangle_586" data-name="Rectangle 586" class="cls-3" width="1.469" height="1.469" transform="translate(11.055 23.677)"/>
      <rect id="Rectangle_587" data-name="Rectangle 587" class="cls-3" width="1.469" height="1.469" transform="translate(13.699 20.446)"/>
      <rect id="Rectangle_588" data-name="Rectangle 588" class="cls-3" width="1.469" height="1.469" transform="translate(18.791 23.873)"/>
      <rect id="Rectangle_589" data-name="Rectangle 589" class="cls-3" width="1.469" height="1.469" transform="translate(16.734 20.446)"/>
      <rect id="Rectangle_590" data-name="Rectangle 590" class="cls-3" width="1.469" height="1.469" transform="translate(11.643 44.524)"/>
      <rect id="Rectangle_591" data-name="Rectangle 591" class="cls-3" width="1.469" height="1.469" transform="translate(1.763 45.601)"/>
      <rect id="Rectangle_592" data-name="Rectangle 592" class="cls-3" width="1.469" height="1.469" transform="translate(13.993 41.39)"/>
      <rect id="Rectangle_593" data-name="Rectangle 593" class="cls-3" width="1.469" height="1.469" transform="translate(16.539 38.355)"/>
      <rect id="Rectangle_594" data-name="Rectangle 594" class="cls-3" width="1.469" height="1.469" transform="translate(15.461 34.438)"/>
      <rect id="Rectangle_595" data-name="Rectangle 595" class="cls-3" width="1.469" height="1.469" transform="translate(17.224 44.72)"/>
      <rect id="Rectangle_596" data-name="Rectangle 596" class="cls-3" width="1.469" height="1.469" transform="translate(18.693 40.901)"/>
      <rect id="Rectangle_597" data-name="Rectangle 597" class="cls-3" width="1.469" height="1.469" transform="translate(28.965 40.411)"/>
      <rect id="Rectangle_598" data-name="Rectangle 598" class="cls-3" width="1.469" height="1.469" transform="translate(30.531 45.797)"/>
      <rect id="Rectangle_599" data-name="Rectangle 599" class="cls-3" width="1.469" height="1.469" transform="translate(32.196 42.076)"/>
      <rect id="Rectangle_600" data-name="Rectangle 600" class="cls-3" width="1.469" height="1.469" transform="translate(34.35 38.355)"/>
      <rect id="Rectangle_601" data-name="Rectangle 601" class="cls-3" width="1.469" height="1.469" transform="translate(33.273 34.438)"/>
      <rect id="Rectangle_602" data-name="Rectangle 602" class="cls-3" width="1.469" height="1.469" transform="translate(35.026 44.72)"/>
      <rect id="Rectangle_603" data-name="Rectangle 603" class="cls-3" width="1.469" height="1.469" transform="translate(38.257 41.293)"/>
      <rect id="Rectangle_604" data-name="Rectangle 604" class="cls-3" width="1.469" height="1.469" transform="translate(45.797 44.72)"/>
      <rect id="Rectangle_605" data-name="Rectangle 605" class="cls-3" width="1.469" height="1.469" transform="translate(47.266 41.293)"/>
      <rect id="Rectangle_606" data-name="Rectangle 606" class="cls-3" width="1.469" height="1.469" transform="translate(29.944 23.677)"/>
      <rect id="Rectangle_607" data-name="Rectangle 607" class="cls-3" width="1.469" height="1.469" transform="translate(30.825 20.446)"/>
      <rect id="Rectangle_608" data-name="Rectangle 608" class="cls-3" width="1.469" height="1.469" transform="translate(34.056 24.95)"/>
      <rect id="Rectangle_609" data-name="Rectangle 609" class="cls-3" width="1.469" height="1.469" transform="translate(35.124 20.446)"/>
      <rect id="Rectangle_610" data-name="Rectangle 610" class="cls-3" width="1.469" height="1.469" transform="translate(47.168 20.446)"/>
      <rect id="Rectangle_611" data-name="Rectangle 611" class="cls-3" width="1.469" height="1.469" transform="translate(46.091 23.873)"/>
    </g>
  </g>
</svg>
