<svg id="disliked" xmlns="http://www.w3.org/2000/svg" viewBox="0 0 12.431 12">
  <defs>
    <style>
      .cls-1 {
        fill: #dd3b00;
      }
    </style>
  </defs>
  <path id="Path_2214" data-name="Path 2214" class="cls-1" d="M2.939,24.051H.863a1.02,1.02,0,0,1-.863-1V17.417A.959.959,0,0,1,.863,16.5H2.912a.832.832,0,0,1,.728.917V23.08c.027.485-.3.971-.7.971Zm0,0" transform="translate(0 -16.5)"/>
  <path id="Path_2215" data-name="Path 2215" class="cls-1" d="M22.5,5.474a1.221,1.221,0,0,1,.378.863,1.247,1.247,0,0,1-.351.863,1.209,1.209,0,0,1-.836.378h-2.7a4.209,4.209,0,0,1-.647,3.991h0A1.292,1.292,0,0,1,17.4,12a1.2,1.2,0,0,1-1.187-1.187v-.243a4.727,4.727,0,0,0-.539-2.8c-.027-.054-.054-.081-.081-.135a.245.245,0,0,0-.189-.081h-.081c-.027,0-.081-.027-.108-.027A.99.99,0,0,1,14.3,6.58V.944A1.029,1.029,0,0,1,15.325,0h6.364c.027,0,.054.027.081.027a1.176,1.176,0,0,1,1.052,1.187,1.183,1.183,0,0,1-.351.836,1.175,1.175,0,0,1,0,1.726,1.221,1.221,0,0,1,.378.863,1.044,1.044,0,0,1-.351.836Zm0,0" transform="translate(-10.444)"/>
</svg>
