<svg xmlns="http://www.w3.org/2000/svg" viewBox="0 0 139.393 112.969"><defs><style>.a{fill:#8649a5;}.b{fill:#c7002e;}.c{fill:#2a4066;}.d{fill:#ff7c36;}.e{fill:#ffa472;}.f{fill:#e05624;}.g{fill:#1a2b4a;}.h{fill:#7c72e8;}.i{fill:#9992e8;}.j{fill:#77ccfe;}.k{fill:#edcd00;}.l{fill:#3f7d5f;}.m{fill:#dda45e;}.n{fill:#664f7d;}.o{fill:#e8cc05;}.p{fill:#ab9136;}.q{fill:#c29053;}.r{fill:#2c6655;}.s{fill:#80993d;}</style></defs><g transform="translate(0 0.039)"><g transform="translate(43.206 -0.039)"><g transform="translate(41.474 0)"><path class="a" d="M396.605,1.2a9.329,9.329,0,0,1,3.542-1.211A4.5,4.5,0,0,1,403.1.724,5.836,5.836,0,0,0,405.38,1.8a4.7,4.7,0,0,0,2.308-.388,7.624,7.624,0,0,1,2.605-.868,3.74,3.74,0,0,1,2.148.777c.594.411.845,1.143,1.417,1.554a2.428,2.428,0,0,0,2.262.366,9.227,9.227,0,0,1,2.468-.571,3,3,0,0,1,1.874.777,6.184,6.184,0,0,1,.868,1.165c.251.457.32,1.005.548,1.485.183.388.617.48,1.005.571a3.583,3.583,0,0,1,1.668.526,2.422,2.422,0,0,1,.731,1.554,3.524,3.524,0,0,1-1.417,2.674,7.306,7.306,0,0,1-4.5,1.28,3.445,3.445,0,0,0-1.737.274c-.868.5-1.28,1.531-2.194,1.965-.914.548-2.011.434-2.993.731a2.138,2.138,0,0,0-1.234.777,19.059,19.059,0,0,1-2.171,3.062,2.065,2.065,0,0,1-.686.48.671.671,0,0,1-.228.069,1.819,1.819,0,0,1-.069-.343,7.935,7.935,0,0,0-4.89-1.965,11.856,11.856,0,0,0-5.324.96,17.473,17.473,0,0,0-2.148.845.245.245,0,0,0-.137-.046,2.875,2.875,0,0,0-.48-1.12.927.927,0,0,0-1.143-.069,2.066,2.066,0,0,0-.708,1.12c-.343.845-.5,1.76-.8,2.605a.68.68,0,0,1-.32.388c-.206-.526-.366-1.165-.914-1.417a5.072,5.072,0,0,0-1.44-.046c-1.165.114-2.217-.617-3.359-.48a6.866,6.866,0,0,0-1.531.891,8,8,0,0,1-3.953,1.12,5.049,5.049,0,0,1-3.268-1.485,7.239,7.239,0,0,1-1.737-2.331,11.252,11.252,0,0,0-.845,1.851,8,8,0,0,0-.571,2.4c-.206-.091-.434-.183-.64-.3a7.5,7.5,0,0,1-3.268-6.284,7.479,7.479,0,0,1,2.445-4.547c.3-.343.754-.594.8-1.074a11.673,11.673,0,0,1,.343-2.148,6.072,6.072,0,0,1,1.143-1.965,7.976,7.976,0,0,1,3.542-2.834,8.226,8.226,0,0,1,4.5-.617c1.394.114,2.742.526,4.136.663a9.36,9.36,0,0,1,1.6.046,7.086,7.086,0,0,0,4.639-.571C394.823,2.827,395.577,1.821,396.605,1.2Z" transform="translate(-370.571 0.039)"/><path class="b" d="M431.137,110.391a5.335,5.335,0,0,0,1.76-.891,2.756,2.756,0,0,1-1.622,1.234,3.543,3.543,0,0,1-1.691-.091,3.382,3.382,0,0,0-.183-.3A14.7,14.7,0,0,0,431.137,110.391Z" transform="translate(-415.957 -84.469)"/><path class="b" d="M400.828,114.443a9.37,9.37,0,0,0,1.554-1.143c-.457.777-1.074,1.668-2.057,1.714a1.681,1.681,0,0,1-1.325-.343A4.911,4.911,0,0,0,400.828,114.443Z" transform="translate(-392.504 -87.401)"/></g><path class="c" d="M385.989,78.627a11.553,11.553,0,0,1,5.324-.96,7.935,7.935,0,0,1,4.89,1.965,1.824,1.824,0,0,1,.069.343.67.67,0,0,1,.228-.069,17.107,17.107,0,0,1,2.376,2.605,11.518,11.518,0,0,1,1.348,1.965c.343.663.548,1.394.914,2.034.206,1.188.457,2.377.777,3.542a25.026,25.026,0,0,0,.846,3.108c.251.64.526,1.257.731,1.92.274.868.663,1.714.96,2.582a6.28,6.28,0,0,0,.525,1.28,5.248,5.248,0,0,0,1.28,1.074,17.525,17.525,0,0,1-1.737,2.879,11.862,11.862,0,0,1-1.554,1.462,11.35,11.35,0,0,1-3.085,1.828c-.663.3-1.28.64-1.942.937-.868.388-1.76.663-2.605,1.12-.64.343-1.3.594-1.92.96-.548.32-1.028.731-1.554,1.1-.251-1.051-.411-2.1-.754-3.131-.274-.823-.48-1.645-.708-2.468-.594-1.805-1.485-3.473-2.1-5.279a9.678,9.678,0,0,1-.64-2.514c-.046-.777.091-1.577,0-2.354a.762.762,0,0,0-.206-.48c-.114.983-.114,1.965-.206,2.948a8.81,8.81,0,0,1-2.148-1.645,1.77,1.77,0,0,0,.251.686,6.957,6.957,0,0,0,1.714,1.188.48.48,0,0,1,.229.411c.457,2.468,1.714,4.685,2.537,7.038.5,1.737.983,3.451,1.554,5.164a.963.963,0,0,0,.48.594c.274.983.457,1.988.663,2.971.137.823.366,1.645.5,2.468.183,1.143.206,2.285.32,3.428a9.166,9.166,0,0,1,.046,1.371,3.477,3.477,0,0,1-.548.868c-.548.708-1.051,1.462-1.531,2.217a33.394,33.394,0,0,0-2.4,3.976,19.45,19.45,0,0,1-5.987,1.874,13.345,13.345,0,0,1-3.93.114,18.831,18.831,0,0,0-.046-3.4,7.054,7.054,0,0,0-.686-2.308,10.009,10.009,0,0,0-1.737-2.422,16.327,16.327,0,0,0-4.387-3.176,13.57,13.57,0,0,0-2.651-1.12,5.053,5.053,0,0,0-.137-1.44,7.607,7.607,0,0,0-.617-1.394c-.274-.526-.457-1.1-.708-1.622a11.146,11.146,0,0,0-1.005-1.668c-.617-.891-1.44-1.622-2.125-2.468a3.65,3.65,0,0,1-.937-1.485,12.49,12.49,0,0,1-.16-2.765c.023-1.394.183-2.788.274-4.159a14.087,14.087,0,0,0-.274-3.085c-.114-.731-.16-1.462-.343-2.194a2.226,2.226,0,0,0-.16,1.44c.046.8.183,1.577.3,2.377a22.347,22.347,0,0,1-.114,3.908c-.069,1.211-.114,2.422-.069,3.633a3.456,3.456,0,0,0,.457,1.782,18.189,18.189,0,0,0,2.011,2.354,11.316,11.316,0,0,1,2.079,3.451c.251.708.708,1.325.937,2.034a9.946,9.946,0,0,1,.251,1.188,14.957,14.957,0,0,0-6.353-.548A9.2,9.2,0,0,0,358,118.8a3.988,3.988,0,0,0-1.12,2.422,8.042,8.042,0,0,1-.845-2.994c-.48-2.559-1.028-5.187-.594-7.792a12.181,12.181,0,0,0,.457-2.994.759.759,0,0,1-.137-.069l.137.046c-.023-.914,0-1.828-.091-2.742a14.83,14.83,0,0,1-.5-4.25,11.516,11.516,0,0,1,.48-2.308c.731-2.422.274-5,.754-7.472a13.047,13.047,0,0,1,1.234-3.542,16.523,16.523,0,0,1,4.228-4.5,5.474,5.474,0,0,0,.64.3c.32.64.64,1.3,1.005,1.92.708,1.165.96,2.559,1.737,3.7a21.1,21.1,0,0,0,2.605,3.108,7.376,7.376,0,0,0,.983,2.491,8.445,8.445,0,0,0,4.25,3.4,4.252,4.252,0,0,0,2.331.16,5.668,5.668,0,0,0,2.125-.914,7.147,7.147,0,0,0,2.651-3.519,10.414,10.414,0,0,0,.846-3.725c0-1.371.16-2.742.16-4.136.091-.731.16-1.485.32-2.217a4.86,4.86,0,0,0,2.057-3.748.245.245,0,0,0,.137.046A15.512,15.512,0,0,1,385.989,78.627Z" transform="translate(-317.292 -59.881)"/><g transform="translate(34.808 18.204)"><path class="d" d="M406.869,79.779a.958.958,0,0,1,1.143.069,2.573,2.573,0,0,1,.48,1.12,4.928,4.928,0,0,1-2.057,3.748c-.16.731-.228,1.485-.32,2.217-.389,1.005-.571,2.079-.96,3.085a16.847,16.847,0,0,1-2.719,4.844,4.789,4.789,0,0,1-3.5,1.6,5.754,5.754,0,0,1-3.268-.96,14.66,14.66,0,0,1-2.194-1.737c-.251-.206-.5-.411-.731-.617a21.1,21.1,0,0,1-2.605-3.108c-.754-1.143-1.028-2.536-1.737-3.7-.366-.617-.685-1.28-1.005-1.92a8,8,0,0,1,.571-2.4,10.445,10.445,0,0,1,.846-1.851,6.705,6.705,0,0,0,1.737,2.331,5.163,5.163,0,0,0,3.268,1.485,8.066,8.066,0,0,0,3.953-1.12,7.418,7.418,0,0,1,1.531-.891c1.165-.137,2.217.594,3.359.48a5.045,5.045,0,0,1,1.44.046c.571.251.731.891.914,1.417a.761.761,0,0,0,.32-.388c.3-.868.457-1.76.8-2.605A2.077,2.077,0,0,1,406.869,79.779Zm-8.135,7.564A14.824,14.824,0,0,1,397,87.3c.069.091.114.206.183.3a3.542,3.542,0,0,0,1.691.091,2.924,2.924,0,0,0,1.622-1.234A5.811,5.811,0,0,1,398.734,87.343Zm-4.433-.526c-.183.137-.183.388-.206.594,0,.571.069,1.143.091,1.714a8.7,8.7,0,0,0,.434,2.651.66.66,0,0,0,.914.411,4.347,4.347,0,0,0,1.12-1.12,1.258,1.258,0,0,0,.16-1.371,27.033,27.033,0,0,0-1.508-2.445C395.055,86.955,394.69,86.566,394.3,86.817Zm-2.422,1.645a4.912,4.912,0,0,1-1.828.229,1.728,1.728,0,0,0,1.325.343c.983-.046,1.6-.937,2.057-1.714A9.371,9.371,0,0,1,391.879,88.463Z" transform="translate(-376.888 -79.625)"/><path class="d" d="M442.468,189.462A11.684,11.684,0,0,0,444.022,188a51.457,51.457,0,0,1,.251,5.3c.046,2.217-.137,4.456-.251,6.673-.16,1.782-.388,3.565-.617,5.347a36.75,36.75,0,0,1-1.12,5.233c-.274.914-.389,1.874-.731,2.788a58.129,58.129,0,0,1-4.09,8.706c-.594,1.028-1.188,2.057-1.874,3.039a69.942,69.942,0,0,1-4.89,6.421c-1.051,1.257-2.171,2.445-3.268,3.656-.777.914-1.645,1.737-2.468,2.605a15.325,15.325,0,0,0-2.057,2.331,14.264,14.264,0,0,1-2.011,2.057,6.864,6.864,0,0,1-1.211.937,13.544,13.544,0,0,0-1.485.823,28.68,28.68,0,0,0-3.7,2.194,31.6,31.6,0,0,1-2.925,2.011c-.206.114-.5.206-.663-.023-.091-.251.091-.457.229-.663.571-.777,1.28-1.462,1.851-2.239-.48.411-.96.845-1.417,1.28s-.8.96-1.3,1.371c-.137.114-.411.183-.526,0a.851.851,0,0,1,.046-.708,12.57,12.57,0,0,1,1.074-2.148c.366-.548.731-1.074,1.12-1.6a5.87,5.87,0,0,0-2.354,1.645,12.263,12.263,0,0,1-1.394,1.668.413.413,0,0,1-.5.046c-.16-.137-.114-.366-.069-.548.114-.32.274-.64.411-.96a7.053,7.053,0,0,1,2.536-2.834,4.319,4.319,0,0,0-1.919,1.005c-.457.5-.823,1.12-1.325,1.6a1.142,1.142,0,0,1-.868-.046,5.766,5.766,0,0,1,1.462-2.491,8.249,8.249,0,0,1,1.942-1.622,28.966,28.966,0,0,1,3.382-1.051c.914-.251,1.851-.343,2.765-.663a2.3,2.3,0,0,0,1.051-.983,24.58,24.58,0,0,0,1.782-3.222c.823-1.805,1.394-3.725,2.1-5.576.5-1.417,1.051-2.788,1.577-4.2.731-1.92,1.554-3.816,2.4-5.69,1.074-2.262,2.308-4.456,3.5-6.673a33.384,33.384,0,0,1,2.4-3.976c.48-.754.983-1.508,1.531-2.217a3.109,3.109,0,0,0,.548-.868,9.174,9.174,0,0,0-.046-1.371c-.114-1.143-.137-2.285-.32-3.428-.114-.823-.343-1.645-.5-2.468-.206-1.005-.388-1.988-.663-2.971l-.046-.137c.526-.366,1.005-.777,1.554-1.1.617-.388,1.3-.617,1.92-.96.845-.434,1.737-.731,2.605-1.12.663-.274,1.3-.617,1.942-.937A9.715,9.715,0,0,0,442.468,189.462Z" transform="translate(-391.624 -163.235)"/><path class="d" d="M367.962,247.844a14.958,14.958,0,0,1,6.353.548c.114.046.251.069.366.114a13.567,13.567,0,0,1,2.651,1.12,15.85,15.85,0,0,1,4.388,3.176,10.012,10.012,0,0,1,1.737,2.422,6.744,6.744,0,0,1,.686,2.308,18.831,18.831,0,0,1,.046,3.4,11.984,11.984,0,0,1-1.622,1.211,10.85,10.85,0,0,0,1.257-2.9.891.891,0,0,0-1.005-.48c-.343.091-.457.48-.594.754A40.457,40.457,0,0,1,380,265.1a13.414,13.414,0,0,1-1.074,1.714,25.651,25.651,0,0,1-1.942,1.92,1.231,1.231,0,0,1-.64.114.521.521,0,0,1-.3-.571,3.312,3.312,0,0,1,.411-1.12,24.088,24.088,0,0,0,1.143-2.148,2.143,2.143,0,0,1-1.1-.686c-.137-.274.046-.548.114-.8-.32-.229-.754-.388-.983-.754a2.363,2.363,0,0,1,.3-1.554c-.411-.251-.868-.64-.8-1.165.091-1.44,1.1-2.605,1.462-3.976-1.668.5-3.359.914-5.073,1.257a16.88,16.88,0,0,1-3.862.5A5.284,5.284,0,0,1,362,252.346a3.988,3.988,0,0,1,1.12-2.422A9.8,9.8,0,0,1,367.962,247.844Z" transform="translate(-357.29 -209.299)"/><path class="d" d="M561.817,352.842c.731-.617,1.417-1.28,2.125-1.942a13.292,13.292,0,0,1,1.691,3.245,21.548,21.548,0,0,1,.32,2.719c.091,1.1.228,2.194.274,3.291a3.63,3.63,0,0,0-.663-.8,3.669,3.669,0,0,0-2.4-1.143,5.431,5.431,0,0,0-1.988.914c-.046-.023-.114-.091-.16-.114a20.786,20.786,0,0,0-.777-2.651,8.2,8.2,0,0,1-.64-1.714c.046-.023.114-.069.16-.091A18.17,18.17,0,0,0,561.817,352.842Z" transform="translate(-509.738 -288.91)"/><path class="d" d="M346.816,402.674c.8-.137,1.6-.114,2.4-.274a25.986,25.986,0,0,0,.046,3.268,7.972,7.972,0,0,1-2.651.571,24.291,24.291,0,0,1-3.4.183,3.751,3.751,0,0,1-1.805-.343c.548-.617,1.417-.96,1.782-1.737a2.651,2.651,0,0,0,.228-1.394A14.189,14.189,0,0,0,346.816,402.674Z" transform="translate(-341.4 -328.642)"/></g><path class="e" d="M416.828,110.827c.411-.251.754.137.983.434a27.047,27.047,0,0,1,1.508,2.445,1.216,1.216,0,0,1-.16,1.371,4.019,4.019,0,0,1-1.12,1.12.668.668,0,0,1-.914-.411,9.461,9.461,0,0,1-.434-2.651c-.023-.571-.091-1.143-.091-1.714C416.623,111.216,416.623,110.964,416.828,110.827Z" transform="translate(-364.607 -85.431)"/><path class="f" d="M423.285,114.685c.388-1.005.571-2.079.96-3.085,0,1.371-.16,2.742-.16,4.136a10.524,10.524,0,0,1-.846,3.725,7.148,7.148,0,0,1-2.651,3.519,5.022,5.022,0,0,1-2.125.914,4.478,4.478,0,0,1-2.331-.16,8.566,8.566,0,0,1-4.25-3.4,7.568,7.568,0,0,1-.983-2.491,9.473,9.473,0,0,0,.731.617,15.916,15.916,0,0,0,2.194,1.737,5.754,5.754,0,0,0,3.268.96,4.789,4.789,0,0,0,3.5-1.6A17.79,17.79,0,0,0,423.285,114.685Z" transform="translate(-360.21 -86.089)"/><g transform="translate(28.319 26.585)"><path class="g" d="M556,116.3c.3.548.548,1.12.868,1.645.343.594.777,1.143,1.12,1.737a20.4,20.4,0,0,0,1.3,2.536,14.415,14.415,0,0,1,2.6,3.908c.457,1.005.663,2.079,1.028,3.131.526,1.6,1.577,2.948,2.239,4.479a11.48,11.48,0,0,1,.708,3.519c.137,1.074.228,2.148.411,3.2.228,1.348.868,2.605,1.165,3.953.183.8.32,1.622.457,2.445.16,1.028-.046,2.079.183,3.108a13.535,13.535,0,0,1-.091,4.89,4.965,4.965,0,0,0-.069,2.171,2.739,2.739,0,0,1-.069,2.125c-.388.388-1.028.206-1.531.183-.388-.046-.777-.091-1.165-.114a25.542,25.542,0,0,1-4.388-.183,13.127,13.127,0,0,1-2.125-.206c-.64-.137-1.143-.594-1.782-.777.343-.891.457-1.851.731-2.788a38.145,38.145,0,0,0,1.12-5.233c.229-1.782.457-3.565.617-5.347.114-2.217.32-4.456.251-6.673a45.753,45.753,0,0,0-.251-5.3,17.53,17.53,0,0,0,1.737-2.879,5.246,5.246,0,0,1-1.28-1.074,6.284,6.284,0,0,1-.526-1.28c-.3-.868-.685-1.714-.96-2.582-.206-.663-.48-1.28-.731-1.92-.388-1.005-.548-2.079-.845-3.108C556.457,118.7,556.206,117.511,556,116.3Z" transform="translate(-500.471 -116.3)"/><path class="g" d="M488.208,149.4a.909.909,0,0,1,.206.48c.069.777-.046,1.577,0,2.354a10.692,10.692,0,0,0,.64,2.514c.594,1.805,1.485,3.473,2.1,5.279.228.823.457,1.645.708,2.468.32,1.028.5,2.079.754,3.131l.046.137a.894.894,0,0,1-.48-.594c-.548-1.714-1.051-3.451-1.554-5.164-.823-2.354-2.1-4.547-2.537-7.038a.51.51,0,0,0-.228-.411,6.391,6.391,0,0,1-1.714-1.188,1.2,1.2,0,0,1-.251-.686,9.415,9.415,0,0,0,2.148,1.645C488.094,151.365,488.094,150.383,488.208,149.4Z" transform="translate(-446.39 -141.836)"/><path class="g" d="M390.212,155.14a2.572,2.572,0,0,1,.16-1.44c.183.708.228,1.462.343,2.194a14.091,14.091,0,0,1,.274,3.085c-.091,1.394-.251,2.765-.274,4.159a12.49,12.49,0,0,0,.16,2.765,3.651,3.651,0,0,0,.937,1.485c.686.846,1.508,1.577,2.125,2.468a11.142,11.142,0,0,1,1.005,1.668c.251.526.434,1.1.708,1.622a6.321,6.321,0,0,1,.617,1.394,5.052,5.052,0,0,1,.137,1.44c-.114-.046-.251-.069-.366-.114a7.345,7.345,0,0,0-.251-1.188c-.229-.708-.686-1.325-.937-2.034a10.479,10.479,0,0,0-2.079-3.451,16.348,16.348,0,0,1-2.011-2.354,3.455,3.455,0,0,1-.457-1.782,27.557,27.557,0,0,1,.069-3.633,22.344,22.344,0,0,0,.114-3.908C390.4,156.716,390.258,155.917,390.212,155.14Z" transform="translate(-372.548 -145.154)"/><path class="g" d="M395.833,295.856a.891.891,0,0,1,1.005.48,10.544,10.544,0,0,1-1.257,2.9c-.388.777-.777,1.554-1.143,2.331-.548,1.143-1.211,2.239-1.691,3.4-1.257,2.925-2.445,5.873-3.7,8.8a.231.231,0,0,0,.137.343c.64.183,1.3.137,1.942.3a1.389,1.389,0,0,1,.594,1.508,17.108,17.108,0,0,1-1.051,3.5,35.88,35.88,0,0,1-2.079,4.57,7.814,7.814,0,0,0-1.942,1.622,6,6,0,0,0-1.462,2.491,1.142,1.142,0,0,0,.868.046c-.023.069-.091.183-.114.251a35,35,0,0,1-1.577,3.222c-.137.091-.251.16-.366.251a1.758,1.758,0,0,0-1.074-.823,3.581,3.581,0,0,0-2.559.754,2.7,2.7,0,0,0-1.462-1.1c.251-1.645.457-3.313.823-4.959.251-1.12.434-2.262.663-3.4a38.106,38.106,0,0,1,1.782-6.558,7.737,7.737,0,0,1,1.348-2.079,1.592,1.592,0,0,1,1.325-.731,14.433,14.433,0,0,1,1.919.617,1.4,1.4,0,0,0,.411-.48c1.1-2.377,1.782-4.959,2.879-7.335a25.663,25.663,0,0,0,1.942-1.92,13.425,13.425,0,0,0,1.074-1.714,44.939,44.939,0,0,0,2.217-5.576C395.376,296.336,395.49,295.971,395.833,295.856Z" transform="translate(-363.841 -254.793)"/><path class="g" d="M586.7,340.628c.046-.069.114-.16.16-.228a5.46,5.46,0,0,1,1.074,1.691,8.681,8.681,0,0,1,.64,2.628,11.748,11.748,0,0,0,.777,3.656c.526.914,1.074,1.828,1.622,2.742a6.6,6.6,0,0,1,.708,5.324,3.674,3.674,0,0,1-1.371,2.1.533.533,0,0,1-.731-.091,2.451,2.451,0,0,1,.617-.663,3.2,3.2,0,0,0,.731-1.3,5.011,5.011,0,0,0,.366-2.514,1.1,1.1,0,0,0-.183-.366,3.767,3.767,0,0,1-1.005.5c-.457.183-.914.388-1.371.594a2.137,2.137,0,0,0-.114-.229,13.776,13.776,0,0,1,2.262-.914.457.457,0,0,1,.343.046,6.665,6.665,0,0,0-1.234-2.788,10.684,10.684,0,0,1-1.759-3.93c-.16-1.143-.183-2.308-.366-3.451A7.646,7.646,0,0,0,586.7,340.628Z" transform="translate(-524.156 -289.19)"/><path class="g" d="M589.7,390.477a6.251,6.251,0,0,1,2.125-.777,1.835,1.835,0,0,1-.731.434c-.366.16-.731.343-1.1.48,0,.046-.023.16-.023.206C589.814,390.774,589.769,390.591,589.7,390.477Z" transform="translate(-526.47 -327.225)"/><path class="g" d="M592.8,394.643a4.793,4.793,0,0,1,2.194-.846c-.64.411-1.371.708-2.057,1.074C592.914,394.826,592.846,394.712,592.8,394.643Z" transform="translate(-528.862 -330.385)"/><path class="g" d="M337.7,419.714a2.12,2.12,0,0,0,.229-.114,8.826,8.826,0,0,1,.823,1.6A5.3,5.3,0,0,1,337.7,419.714Z" transform="translate(-332.056 -350.292)"/><path class="g" d="M332.3,423.183a1.906,1.906,0,0,1,.274-.183,8.723,8.723,0,0,1,.548,1.257A3.142,3.142,0,0,1,332.3,423.183Z" transform="translate(-327.89 -352.915)"/><path class="g" d="M323.74,425.137a17.355,17.355,0,0,0,4.045-.937c-.023.069-.046.206-.069.3a1.71,1.71,0,0,1-.777.411,43.865,43.865,0,0,1-5.439,1.028,58.156,58.156,0,0,0-6.284,1.417c-.64.091-1.417.3-1.965-.16a.812.812,0,0,1-.251-.708,1.873,1.873,0,0,0,.754.411,6.73,6.73,0,0,0,2.217-.366c1.257-.32,2.537-.663,3.816-.868C321.089,425.457,322.415,425.32,323.74,425.137Z" transform="translate(-313 -353.841)"/></g><g transform="translate(27.676 47.141)"><path class="h" d="M314.6,207.8a8.727,8.727,0,0,1,4.319-1.531,5.291,5.291,0,0,1,2.057.3.757.757,0,0,1,.137.069,12.012,12.012,0,0,1-.457,2.994c-.434,2.605.114,5.233.594,7.792a8.042,8.042,0,0,0,.845,2.993,5.606,5.606,0,0,0,1.371,3.77,6.323,6.323,0,0,0,2.445,1.371,5.763,5.763,0,0,0,1.851.343,17.046,17.046,0,0,0,3.862-.5c1.691-.366,3.4-.754,5.073-1.257-.366,1.371-1.371,2.536-1.462,3.976a1.324,1.324,0,0,0,.8,1.165,2.312,2.312,0,0,0-.3,1.554c.206.366.64.5.983.754-.069.251-.251.548-.114.8a2.37,2.37,0,0,0,1.1.686c-.343.731-.754,1.44-1.143,2.148-1.051.823-1.942,1.828-2.971,2.674a15.591,15.591,0,0,1-2.194-2.057,15.926,15.926,0,0,1-1.554-1.737c-.571-.777-1.028-1.668-1.668-2.4a13.012,13.012,0,0,0-2.811-2.422,9.531,9.531,0,0,1-1.645-1.371,21.807,21.807,0,0,1,1.12,3.176c.274,1.165.5,2.331.754,3.5a26.1,26.1,0,0,1,.251,4.433c-.023.708.114,1.417.114,2.125.069,1.6-.023,3.2-.091,4.822-.069,1.714-.228,3.428-.411,5.142-.069.023-.183.023-.251.046-.777.16-1.6.137-2.4.274a15.473,15.473,0,0,1-3.4.3h-.206a2.574,2.574,0,0,1-.731.046,24.606,24.606,0,0,1-.571-3.862,17.57,17.57,0,0,0-.708-3.428,34.893,34.893,0,0,1-1.12-3.4c-.5-2.217-.5-4.547-1.417-6.65a24.381,24.381,0,0,1-1.622-6.97,12.7,12.7,0,0,0-.594-2.765c-.366-1.143-1.051-2.171-1.44-3.313a9.419,9.419,0,0,1-.8-3.542,4.536,4.536,0,0,1,.228-1.371c.343-1.44.731-2.856,1.143-4.3A6.988,6.988,0,0,1,314.6,207.8Z" transform="translate(-310.189 -206.257)"/><path class="h" d="M478.957,368.08c.663-.434,1.325-.891,2.011-1.28-.046.023-.114.069-.16.091a6.758,6.758,0,0,0,.64,1.714,20.788,20.788,0,0,1,.777,2.651c.046.023.114.091.16.114-.754.411-1.554.708-2.331,1.051-2.079.96-4.045,2.125-6.056,3.245-1.28.731-2.651,1.28-3.953,1.942a81.12,81.12,0,0,1-7.655,2.9c-1.6.548-3.245.96-4.89,1.371a15.482,15.482,0,0,1,1.485-.823,4.784,4.784,0,0,0,1.211-.937,17.1,17.1,0,0,0,2.011-2.057,16.688,16.688,0,0,1,2.057-2.331c2.468-1.188,4.822-2.582,7.29-3.748A58.61,58.61,0,0,0,478.957,368.08Z" transform="translate(-423.838 -330.114)"/></g><g transform="translate(43.122 67.831)"><path class="i" d="M433.768,298.674a19.646,19.646,0,0,0,5.987-1.874c-1.188,2.217-2.422,4.387-3.5,6.673-.845,1.874-1.668,3.77-2.4,5.69-.526,1.394-1.074,2.788-1.577,4.2-.686,1.851-1.257,3.77-2.1,5.576a24.569,24.569,0,0,1-1.782,3.222,2.3,2.3,0,0,1-1.051.983c-.891.32-1.851.388-2.765.663a21.49,21.49,0,0,0-3.382,1.051,34.22,34.22,0,0,0,2.079-4.57,19.193,19.193,0,0,0,1.051-3.5,1.356,1.356,0,0,0-.594-1.508c-.64-.16-1.3-.114-1.942-.3a.231.231,0,0,1-.137-.343c1.257-2.925,2.445-5.873,3.7-8.8.48-1.165,1.165-2.262,1.691-3.4.388-.777.754-1.577,1.143-2.331a11.979,11.979,0,0,0,1.622-1.211A18.872,18.872,0,0,0,433.768,298.674Z" transform="translate(-411.279 -296.8)"/><path class="i" d="M503.944,299c.617.183,1.143.617,1.782.777a13.129,13.129,0,0,0,2.125.206,25.637,25.637,0,0,0,4.388.183,10.068,10.068,0,0,1,1.165.114,19.641,19.641,0,0,1-.571,2.354,20.255,20.255,0,0,1-2.559,5.85c-.046.069-.114.16-.16.229a18.814,18.814,0,0,1-1.851,2.194c-.708.64-1.394,1.325-2.125,1.942a17.961,17.961,0,0,1-2.057,1.691c-.708.388-1.348.845-2.011,1.28a67.028,67.028,0,0,1-7.381,3.93c-2.468,1.165-4.844,2.559-7.29,3.748.823-.868,1.691-1.714,2.468-2.605,1.1-1.211,2.217-2.4,3.268-3.656a66.962,66.962,0,0,0,4.89-6.421c.686-.983,1.28-2.011,1.874-3.039A66.184,66.184,0,0,0,503.944,299Z" transform="translate(-462.351 -298.497)"/><path class="i" d="M385.694,335.574c1.028-.845,1.92-1.851,2.971-2.674a3.5,3.5,0,0,0-.411,1.12.536.536,0,0,0,.3.571,1.231,1.231,0,0,0,.64-.114c-1.1,2.4-1.76,4.959-2.879,7.335a2,2,0,0,1-.411.48,18.764,18.764,0,0,0-1.919-.617,1.512,1.512,0,0,0-1.325.731,7.736,7.736,0,0,0-1.348,2.079,40.289,40.289,0,0,0-1.782,6.558c-.229,1.143-.411,2.262-.663,3.4a10.522,10.522,0,0,1-.708-1.44,7.989,7.989,0,0,1-.32-3.519,14.417,14.417,0,0,1,1.874-5.873c.846-1.394,1.851-2.674,2.788-4.022.731-1.074,1.531-2.079,2.354-3.062A3.812,3.812,0,0,1,385.694,335.574Z" transform="translate(-377.783 -324.651)"/><path class="j" d="M411.14,427.205a4.319,4.319,0,0,1,1.92-1.005,7.052,7.052,0,0,0-2.536,2.834c-.274,0-.548.023-.823.023.023-.069.091-.183.114-.251C410.317,428.325,410.66,427.708,411.14,427.205Z" transform="translate(-402.407 -396.63)"/><path class="j" d="M420,432.145a5.87,5.87,0,0,1,2.354-1.645c-.388.526-.777,1.051-1.12,1.6C420.823,432.122,420.411,432.145,420,432.145Z" transform="translate(-410.353 -399.948)"/></g><g transform="translate(28.319 78.023)"><path class="k" d="M578.6,343.594a18.8,18.8,0,0,0,1.851-2.194,8.916,8.916,0,0,1,1.211,2.788c.183,1.143.206,2.308.366,3.451a10.894,10.894,0,0,0,1.76,3.93,6.667,6.667,0,0,1,1.234,2.788c-.114-.023-.229-.091-.343-.046a13.016,13.016,0,0,0-2.262.914l-.411-.754c.686-.366,1.394-.663,2.057-1.074a4.994,4.994,0,0,0-2.194.846,4.326,4.326,0,0,1-.434-.686c0-.046.023-.16.023-.206.366-.16.731-.343,1.1-.48a1.834,1.834,0,0,0,.731-.434,6.621,6.621,0,0,0-2.125.777c-.091-.137-.183-.251-.274-.388-.046-1.1-.183-2.194-.274-3.291a21.55,21.55,0,0,0-.32-2.719A13.566,13.566,0,0,0,578.6,343.594Z" transform="translate(-517.907 -341.4)"/><path class="k" d="M598.231,398.2a1.1,1.1,0,0,1,.183.366,5.279,5.279,0,0,1-.366,2.514,3.5,3.5,0,0,1-.731,1.3,2.425,2.425,0,0,0-.617.663,1.029,1.029,0,0,1-.388-1.165,4.634,4.634,0,0,0-.411-2.605c.457-.183.914-.388,1.371-.594A3.77,3.77,0,0,0,598.231,398.2Z" transform="translate(-531.254 -385.22)"/><path class="k" d="M324.7,417.271a7.078,7.078,0,0,0,2.651-.571,2.145,2.145,0,0,1,.366,2.011c.023-.069.046-.206.069-.3a17.353,17.353,0,0,1-4.045.937c-1.325.183-2.651.32-3.953.5-1.3.206-2.559.548-3.816.868a6.184,6.184,0,0,1-2.217.366,1.451,1.451,0,0,1-.754-.411.844.844,0,0,1,.548-.686c.708-.343,1.508-.5,2.217-.845.571-.274,1.12-.571,1.645-.868v.023a3.454,3.454,0,0,0,.823,1.074,6.761,6.761,0,0,0-.548-1.257,4.834,4.834,0,0,1,.48-.251c-.023.069-.046.206-.069.251l.16-.046-.069.183.206-.069c-.023.069-.069.183-.091.251l.183-.023c-.023.069-.046.183-.069.228h.183c-.023.046-.046.16-.069.229l.114-.023c.023.16.069.3.091.457a4.224,4.224,0,0,0,.023-.526l-.16.023a2.38,2.38,0,0,0,.091-.229h-.183c.023-.069.046-.183.069-.229l-.137.023c-.046-.137-.091-.251-.137-.388l-.137.069c-.023-.3.251-.434.457-.571a5.3,5.3,0,0,0,1.051,1.485,8.137,8.137,0,0,0-.823-1.6c.16-.091.32-.206.48-.3.023.023.091.046.114.069a3.75,3.75,0,0,0,1.805.343A28.55,28.55,0,0,0,324.7,417.271Z" transform="translate(-313 -399.493)"/></g><g transform="translate(0 101.231)"><path class="l" d="M196.918,443.473c.434-.343,1.051-.708,1.6-.388a1.279,1.279,0,0,1,.526,1.211,9.5,9.5,0,0,1-.937,3.61c-.388.937-.846,1.874-1.257,2.811a14.382,14.382,0,0,1,3.131-3.61,3.977,3.977,0,0,1,2.194-.96,1.039,1.039,0,0,1,1.074.731,1.977,1.977,0,0,1-.434,1.485,13.647,13.647,0,0,1-2.468,2.536,45.7,45.7,0,0,1-5.37,3.7.581.581,0,0,1-.388.091,2.526,2.526,0,0,0-.5-1.165,17.181,17.181,0,0,0-1.394-2.217,17.883,17.883,0,0,0-2.194-2.171,4.349,4.349,0,0,1-1.3-1.645,1.407,1.407,0,0,1,.183-1.462,1.512,1.512,0,0,1,1.805-.137,5.12,5.12,0,0,1,1.714,2.217,32.894,32.894,0,0,1,1.714,4.616,28.576,28.576,0,0,1,.526-5.758A6.429,6.429,0,0,1,196.918,443.473Z" transform="translate(-189.074 -442.961)"/><path class="l" d="M291.782,446.479a.651.651,0,0,1,.868.183,3.1,3.1,0,0,1,.411,1.554,15.929,15.929,0,0,1-.983,4.936,15.065,15.065,0,0,1,3.313-3.793,2.743,2.743,0,0,1,1.234-.548c.366-.023.571.388.548.708a2.8,2.8,0,0,1-.571,1.371,24.318,24.318,0,0,1-4.776,4.913c-.366.3-.708.663-1.074.937a1,1,0,0,1-.686-.343,25.184,25.184,0,0,1-3.77-4.753,4.722,4.722,0,0,1-.8-2.856c.023-.32.32-.663.663-.548a2.588,2.588,0,0,1,1.325.937,18.345,18.345,0,0,1,2.605,4.547,14.211,14.211,0,0,1,.48-5.461A3.106,3.106,0,0,1,291.782,446.479Z" transform="translate(-263.44 -445.602)"/><path class="l" d="M555.452,447.149a1.649,1.649,0,0,1,.845-.777c.343-.069.548.3.617.571a4.439,4.439,0,0,1-.16,1.9c-.411,1.668-.937,3.313-1.44,4.959a20.625,20.625,0,0,1,1.257-1.874,10.429,10.429,0,0,1,2.217-2.377,4.238,4.238,0,0,1,1.851-.96.641.641,0,0,1,.777.5,2.264,2.264,0,0,1-.5,1.234,14.307,14.307,0,0,1-3.016,2.856c-.708.526-1.417,1.051-2.171,1.554a6.994,6.994,0,0,1-1.234.777c-.3-.3-.686-.48-.983-.777a10.9,10.9,0,0,1-2.194-2.605,4.572,4.572,0,0,1-.457-2.194.756.756,0,0,1,.617-.708,1.159,1.159,0,0,1,.868.686,25.425,25.425,0,0,1,2.148,4.5,26.372,26.372,0,0,1-.069-3.291A8.175,8.175,0,0,1,555.452,447.149Z" transform="translate(-468.177 -445.586)"/><path class="l" d="M454.368,447.217c.251-.229.64-.48.983-.274.343.229.343.731.3,1.1A21.608,21.608,0,0,1,454,452.427a25.429,25.429,0,0,1,2.217-2.468,10.446,10.446,0,0,1,1.577-1.28,1.656,1.656,0,0,1,1.211-.274c.251.091.274.388.251.617a2.98,2.98,0,0,1-.891,1.714,30.272,30.272,0,0,1-5.736,4.479,9.6,9.6,0,0,1-1.965-2.811,5.528,5.528,0,0,1-.571-2.4c0-.3.183-.663.526-.663.457.023.663.526.846.868a25.951,25.951,0,0,1,1.074,3.176,16.778,16.778,0,0,1,.845-4.365A6.03,6.03,0,0,1,454.368,447.217Z" transform="translate(-390.447 -445.974)"/></g><path class="m" d="M349.462,448.825a2.908,2.908,0,0,1,1.76-.206,2.7,2.7,0,0,1,1.462,1.1,3.581,3.581,0,0,1,2.559-.754,1.844,1.844,0,0,1,1.074.823c.114-.091.251-.16.366-.251a3.433,3.433,0,0,1,2.148-.526,2.46,2.46,0,0,1,1.6.96c.868-.046,1.714-.206,2.582-.229a.578.578,0,0,1,.663.5c-.023.343-.366.571-.663.708a22.509,22.509,0,0,1-4.479.366c-4.136-.091-8.249.32-12.385.571A20.749,20.749,0,0,1,343.5,452a.657.657,0,0,1-.16-1.165,3.8,3.8,0,0,1,1.508-.411,1.842,1.842,0,0,1,1.234-1.348,1.7,1.7,0,0,1,1.257.046,2.956,2.956,0,0,1,1.005.983A2.388,2.388,0,0,1,349.462,448.825Z" transform="translate(-307.867 -346.054)"/></g><g transform="translate(0 5.459)"><path class="n" d="M134.213,24.86a3.54,3.54,0,0,1,1.92-.823,4.093,4.093,0,0,1,1.394.16,9.272,9.272,0,0,1,3.7,2.4,18.27,18.27,0,0,1,1.348,1.851,6.489,6.489,0,0,1,.663,1.394,6.105,6.105,0,0,1,.594-.206c-.251.137-.526.229-.777.343A24.9,24.9,0,0,0,140.5,31.35a17.7,17.7,0,0,0-1.668,1.257,11.181,11.181,0,0,0-1.074,1.005,8.329,8.329,0,0,0-1.394,1.714c-.229.434-.48.868-.686,1.325a8.709,8.709,0,0,0-.526,1.143c-.251.823-.5,1.645-.823,2.445a10.566,10.566,0,0,1-2.057,2.925,3,3,0,0,1-1.554.686,1.65,1.65,0,0,1-1.3-.3,1.242,1.242,0,0,0-.983-.206,17.567,17.567,0,0,1-1.805.48,3.168,3.168,0,0,1-1.782-.206,1.656,1.656,0,0,1-.868-1.462,11.925,11.925,0,0,1,.069-1.805c.023-.388-.3-.64-.526-.891a3.92,3.92,0,0,0-.845-.64,8.884,8.884,0,0,1-1.851-1.6,3.352,3.352,0,0,1-.708-2.491,3.524,3.524,0,0,1,.96-1.668,6.163,6.163,0,0,1,2.011-1.188,1.775,1.775,0,0,0,.754-.48,8.117,8.117,0,0,0,1.1-2.445,4.607,4.607,0,0,1,2.079-2.514,3.17,3.17,0,0,1,1.28-.366,4.894,4.894,0,0,1,3.2.663,2.392,2.392,0,0,0,1.188.274.866.866,0,0,0,.686-.5A5.632,5.632,0,0,1,134.213,24.86Z" transform="translate(-92.646 -24.019)"/><path class="n" d="M191.223,41.366c11.54-1.531,13.414,8.546,13.277,9.186-1.12-.5-1.28-1.074-4.662-.731-5.9.594-6.741,6.147-8.546,6.558-.229.069-1.805,0-1.874-.3-.114-1.028.251-2.239-.388-2.994-.663-.617-1.828-.023-2.354.548-1.76,2.148.548,2.811-6.376,4.41C180.734,50.347,183.636,42.372,191.223,41.366Z" transform="translate(-139.099 -37.28)"/><g transform="translate(24.245 12.315)"><path class="d" d="M178.613,78a8.093,8.093,0,0,1,3.473.206,11.707,11.707,0,0,1,1.211.571c.046.274.069.548.114.823a4.1,4.1,0,0,1-.137,1.9,18.851,18.851,0,0,1-1.348,3.222,13.006,13.006,0,0,1-1.554,2.536,1.453,1.453,0,0,0-.32.5c-.023.731.046,1.44.069,2.171a4.962,4.962,0,0,0,.3,1.28.645.645,0,0,1-.457.868,3.577,3.577,0,0,1-1.211-.091,1.83,1.83,0,0,0-.48-.343,2.46,2.46,0,0,0-.823-.388c.046.32.388.434.64.548-.663,1.005-1.28,2.011-1.92,3.039a9.54,9.54,0,0,1-1.737,1.851c-.251.206-.526.388-.8.594h-.069a6.74,6.74,0,0,1-1.508.137,10.8,10.8,0,0,1-1.919-.274.914.914,0,0,0-.5-.32,10.134,10.134,0,0,1-3.473-2.217h-.206a1.447,1.447,0,0,0,.366.594c.046.069.137.183.046.251-.434.434-.868.845-1.3,1.3a2.2,2.2,0,0,0-.457,1.3c0,.526-.046,1.051-.091,1.577a9.341,9.341,0,0,1-1.3,3.542,5.994,5.994,0,0,1-1.531,1.6,4.393,4.393,0,0,1-.96.366,3.606,3.606,0,0,1-1.92-.5,6.12,6.12,0,0,1-1.3-.731A13.312,13.312,0,0,1,156.47,103a8.6,8.6,0,0,1-1.622-2.125c-.48-.891-.777-1.851-1.188-2.765a18.452,18.452,0,0,1-.594-2.125,2.311,2.311,0,0,1-.091-.663,9.217,9.217,0,0,1,.046-2.1,12.567,12.567,0,0,1,.411-2.011,6.3,6.3,0,0,1,.686-1.9c.343-.114.686-.229,1.028-.32a4.626,4.626,0,0,0,.754-.206,11.429,11.429,0,0,0,1.257-.754,18.192,18.192,0,0,0,1.988-1.508c0-.046.023-.114.023-.137a7.531,7.531,0,0,0,1.188-.3c.64-.251,1.3-.457,1.942-.708a7.781,7.781,0,0,0,1.577-.777,2.6,2.6,0,0,0,.617-.708,3.418,3.418,0,0,0,.229,2.285c.229.343.5.8.983.708-.046-.229-.274-.3-.411-.434a2.58,2.58,0,0,1-.663-2.194c.023-.274.137-.548,0-.823a3.414,3.414,0,0,1,.891-1.485,2.8,2.8,0,0,1,1.668-.845.88.88,0,0,1,.686.274,1.763,1.763,0,0,1,.388,1.257c.023.526-.023,1.051.023,1.577.046.229.3.206.48.229a3.883,3.883,0,0,0,1.257.069,1.93,1.93,0,0,0,1.211-1.028c.663-.891,1.257-1.828,1.919-2.742a6.577,6.577,0,0,1,1.965-1.577A11.465,11.465,0,0,1,178.613,78ZM166.3,82.591a1.057,1.057,0,0,0-.3.731c.046,0,.114-.023.16-.023a1.253,1.253,0,0,1,.411-.5.486.486,0,0,1,.16.343,3.671,3.671,0,0,1-.114,1.005,3.617,3.617,0,0,0-.206.708c.274-.069.32-.411.434-.64a1.992,1.992,0,0,0,.114-1.531A.452.452,0,0,0,166.3,82.591Zm8.615,3.588c.114.32.411.48.663.686a1.513,1.513,0,0,0,1.44.343,1.471,1.471,0,0,0,.731-.48,6.659,6.659,0,0,1-.914.114,3.156,3.156,0,0,1-1.28-.434C175.322,86.316,175.139,86.156,174.911,86.179Z" transform="translate(-142.233 -77.909)"/><path class="d" d="M199.436,189.139a6.206,6.206,0,0,1,2.674-.206,8.233,8.233,0,0,1,1.462.274,7.778,7.778,0,0,1,1.874.868,32.069,32.069,0,0,1-.571,3.611,12,12,0,0,1-.388,1.188c-.457,1.257-.823,2.536-1.188,3.816-.206.731-.457,1.462-.64,2.194-.274,1.074-.5,2.148-.731,3.222a7.539,7.539,0,0,0-.137,2.582,5.748,5.748,0,0,0,.571,1.737,27.783,27.783,0,0,0,1.508,3.108,2.1,2.1,0,0,0,.5.5,22.814,22.814,0,0,1,2.468,2.674c.617.754,1.211,1.531,1.805,2.331a6.516,6.516,0,0,0,.914,1.371c.434.708.823,1.417,1.28,2.125.708.983,1.3,2.034,1.942,3.062a2.173,2.173,0,0,0,.343.457c.64,1.028,1.257,2.079,1.988,3.039.274.32.48.708.754,1.028-.069.48,0,.983-.023,1.462a14.514,14.514,0,0,0,.206,2.445c.069.457.206.914.274,1.371a2.7,2.7,0,0,0-.48.914c-.663-.983-1.371-1.9-2.079-2.834a25.444,25.444,0,0,0-1.714-2.1,1.976,1.976,0,0,0-.914-.617.594.594,0,0,0-.571.183,1.763,1.763,0,0,0-.388,1.257,4.252,4.252,0,0,0,.457,2.125c-.343-.183-.686-.411-1.051-.571-.594-.251-1.051-.777-1.645-1.051a3.662,3.662,0,0,0-.571-.617c-.731-.8-1.508-1.531-2.262-2.331-1.44-1.462-2.925-2.856-4.319-4.342a2.421,2.421,0,0,0-.274-.229,7.2,7.2,0,0,1-1.348-1.531c-.731-.96-1.44-1.965-2.1-2.971a25.406,25.406,0,0,1-2.925-6.353c-.069-.183-.091-.388-.251-.5a5.521,5.521,0,0,1-.137-1.234c-.023-.686-.046-1.394-.046-2.079s.069-1.394.069-2.079c0-.663.069-1.348.069-2.011.046-.663,0-1.325.091-1.988H193.7a14.641,14.641,0,0,0,.731-1.737c.411-1.12.8-2.217,1.257-3.313.229-.526.48-1.028.708-1.531.571-1.325,1.371-2.536,1.828-3.908a23.259,23.259,0,0,0,1.028-2.742,6.588,6.588,0,0,0-.091.663A2.02,2.02,0,0,0,199.436,189.139Z" transform="translate(-173.682 -163.524)"/><path class="d" d="M117.617,248.131c.731-.206,1.417-.5,2.125-.731a1.352,1.352,0,0,0,.114.434c.183,1.348.343,2.7.617,4.022.183.686.3,1.394.457,2.079a8.527,8.527,0,0,0,.137,1.874c.069.708.229,1.417.343,2.148a.23.23,0,0,1,.069.023,25.073,25.073,0,0,0,.388,4.89,14.9,14.9,0,0,0,.708,2.811,24.225,24.225,0,0,0,1.417,2.765,21.4,21.4,0,0,0,1.485,1.988c.411.526.96.914,1.394,1.44a1.576,1.576,0,0,0,.411.366c.343.206.594.526.914.754.48.366.891.777,1.348,1.165.388.32.708.686,1.1,1.005.48.411.891.914,1.394,1.325.64.548,1.28,1.12,1.874,1.737a7.106,7.106,0,0,0,1.485,1.257c.457.48.846,1.028,1.3,1.508.32.388.686.731.96,1.12a13.019,13.019,0,0,0,1.348,1.622,16.867,16.867,0,0,0,1.577,1.554,4.015,4.015,0,0,0,2.719,1.005,15.434,15.434,0,0,0,1.577-.663c.868-.389,1.782-.686,2.7-1.005.548-.183,1.1-.366,1.645-.526a.943.943,0,0,1-.114.846,3.318,3.318,0,0,1-.983,1.051,5.256,5.256,0,0,0-1.417,1.234.822.822,0,0,0-.3.526c.229.091.457.183.686.251a9.707,9.707,0,0,0,1.371.274c.526.069,1.074.046,1.6.069a2.638,2.638,0,0,0,.914-.274,5.905,5.905,0,0,0,.846-.434c.251-.16.526-.3.777-.457a10.37,10.37,0,0,0,1.143-.823c.411-.251.8-.5,1.234-.731a.437.437,0,0,1,.617.229c-.366.48-.64,1.005-1.028,1.44a10.161,10.161,0,0,1-1.508,1.462,4.441,4.441,0,0,0,1.417-.754,13.8,13.8,0,0,1,1.6-1.257.445.445,0,0,1,.3-.023c.069.046.114.069.183.114a4.175,4.175,0,0,1-.663,1.211,9.03,9.03,0,0,1-2.742,2.262,5.84,5.84,0,0,0,1.554-.891,5.674,5.674,0,0,0,1.531-1.6,2.646,2.646,0,0,1,.548-.32.229.229,0,0,1,.251.251,4.8,4.8,0,0,1-.64,1.76,8.569,8.569,0,0,1-1.165,1.394,8.069,8.069,0,0,1-1.508,1.12,4.984,4.984,0,0,1-1.782.686,12.114,12.114,0,0,1-2.719.32c-.708-.046-1.44-.023-2.148-.114-1.645-.137-3.291-.343-4.913-.64a16.045,16.045,0,0,1-4.456-1.394c-.708-.343-1.394-.754-2.079-1.12-.526-.251-1.051-.5-1.577-.777-1.257-.708-2.491-1.417-3.7-2.194a30.675,30.675,0,0,1-3.656-2.308c.046,0,.16-.023.229-.023a8.4,8.4,0,0,0-1.028-.983c-.5-.457-1.005-.891-1.463-1.394-.526-.548-1.12-1.005-1.622-1.554-.411-.411-.8-.823-1.211-1.234-.457-.48-.868-.983-1.325-1.44-.434-.457-.823-.96-1.28-1.371-.8-1.1-1.508-2.262-2.239-3.428-.571-.914-1.028-1.874-1.6-2.788-.5-.891-1.005-1.782-1.485-2.7-.434-.845-.845-1.714-1.234-2.582-.457-.937-.868-1.92-1.28-2.879-.206-.48-.388-.96-.571-1.44a1.135,1.135,0,0,0-.3-.434c-.388-.823-.708-1.668-1.074-2.514-.251-.731-.64-1.417-.914-2.148-.251-.594-.5-1.165-.731-1.76-.114-.32-.206-.663-.343-.983-.32-.686-.5-1.44-.754-2.148-.137-.32-.251-.663-.366-1.005.708-.091,1.417.114,2.148.091a16.349,16.349,0,0,0,2.994-.206c.594-.091,1.188-.206,1.805-.3.891-.137,1.737-.366,2.605-.571C116.269,248.52,116.932,248.314,117.617,248.131Z" transform="translate(-106.1 -208.669)"/><path class="d" d="M261.017,293.6c.571.16,1.12.411,1.691.548a3.459,3.459,0,0,1,.96.617,6.038,6.038,0,0,1,.983,1.165,6.832,6.832,0,0,1,1.028,3.633,9.224,9.224,0,0,1-.343,2.491c-.183.777-.48,1.531-.731,2.285a12.53,12.53,0,0,1-.868-1.371c-.343-.526-.663-1.074-1.051-1.577a23.625,23.625,0,0,1-1.3-2.034c-.3-.526-.663-1.005-.983-1.508.206-.754.388-1.531.526-2.308A3.745,3.745,0,0,0,261.017,293.6Z" transform="translate(-225.14 -244.312)"/><path class="d" d="M202.819,340.494c.434-.206.868-.366,1.28-.594.48.594,1.028,1.143,1.554,1.691.686.777,1.44,1.485,2.125,2.239.983.983,1.92,1.965,2.925,2.925-.388.343-.777.686-1.143,1.051-.5.48-1.028.914-1.577,1.348a10.554,10.554,0,0,1-1.462,1.211c-.48-.526-1.005-1.005-1.508-1.531-.708-.731-1.531-1.325-2.239-2.079q-1.405-1.3-2.879-2.468c-.48-.32-.891-.708-1.394-1.028.388-.32.823-.617,1.234-.891A25.246,25.246,0,0,1,202.819,340.494Z" transform="translate(-177.385 -280.032)"/><path class="d" d="M128.333,378.428c.388-.32.754-.686,1.12-1.028.229.251.434.526.663.777.686.754,1.325,1.554,2.034,2.262.457.457.891.96,1.371,1.394.571.5,1.1,1.1,1.668,1.6a11.115,11.115,0,0,0,1.143.914c-.389.251-.845.388-1.257.617-.8.366-1.531.823-2.308,1.234-.891.48-1.737,1.028-2.582,1.577-.983.617-2.034,1.143-2.971,1.828a19.8,19.8,0,0,1,4.593,1.1c1.12.457,2.354.411,3.473.8.16.091.114.3.091.434a1.351,1.351,0,0,1-.594.96,5.751,5.751,0,0,1-2.422.274c-.731.046-1.485-.023-2.217,0-.937-.023-1.9-.023-2.834-.023a24.6,24.6,0,0,1-2.9.046c-.526-.069-1.074.046-1.6.023a10.791,10.791,0,0,1-1.92-.069,6.379,6.379,0,0,1-.845-.32,2.038,2.038,0,0,1-.663-1.92,8.424,8.424,0,0,1,.411-1.485c.274-.594.617-1.188.937-1.76a26.5,26.5,0,0,1,2.057-3.222c.708-.914,1.371-1.851,2.125-2.719.411-.457.823-.891,1.234-1.348a.944.944,0,0,0,.16-.251,2.077,2.077,0,0,1,.48-.411A16.489,16.489,0,0,0,128.333,378.428Z" transform="translate(-116.314 -308.962)"/></g><g transform="translate(37.052 16.886)"><path class="f" d="M210.4,98.025a.425.425,0,0,1,.663.114,2.223,2.223,0,0,1-.114,1.531c-.114.229-.16.548-.434.64a3.618,3.618,0,0,1,.206-.708,2.485,2.485,0,0,0,.114-1.005.6.6,0,0,0-.16-.343,1.8,1.8,0,0,0-.411.5c-.046,0-.114.023-.16.023A1.052,1.052,0,0,1,210.4,98.025Z" transform="translate(-199.142 -97.913)"/><path class="f" d="M203.531,102c.114.251,0,.548,0,.823a2.58,2.58,0,0,0,.663,2.194c.137.137.366.229.411.434-.48.091-.754-.366-.983-.708a3.418,3.418,0,0,1-.229-2.285C203.44,102.3,203.485,102.16,203.531,102Z" transform="translate(-193.898 -101.066)"/><path class="f" d="M249.1,114.093c.229-.023.411.137.617.251a3.276,3.276,0,0,0,1.28.434c.32.023.617-.114.914-.114a1.471,1.471,0,0,1-.731.48,1.54,1.54,0,0,1-1.44-.343C249.534,114.572,249.214,114.39,249.1,114.093Z" transform="translate(-229.23 -110.394)"/><path class="f" d="M260.4,136.2a2.106,2.106,0,0,1,.823.388,1.83,1.83,0,0,1,.48.343c-.228-.046-.434-.114-.663-.183C260.788,136.634,260.423,136.543,260.4,136.2Z" transform="translate(-237.948 -127.451)"/><path class="f" d="M210,150.9h.206a10.134,10.134,0,0,0,3.473,2.217.914.914,0,0,1,.5.32,10.688,10.688,0,0,1-1.211-.388,4.186,4.186,0,0,1-1.1-.571c-.526-.274-.983-.663-1.508-.983A1.312,1.312,0,0,1,210,150.9Z" transform="translate(-199.065 -138.792)"/><path class="f" d="M259,311.984a.391.391,0,0,1,.32,0c.32.5.686.983.983,1.508a23.615,23.615,0,0,0,1.3,2.034c.366.5.708,1.051,1.051,1.577.3.457.548.96.868,1.371-.046.16-.183.343-.091.526a3.406,3.406,0,0,1-.343-.457c-.617-1.028-1.234-2.079-1.942-3.062-.434-.686-.845-1.417-1.28-2.125C259.617,312.875,259.16,312.533,259,311.984Z" transform="translate(-236.867 -263.04)"/><path class="f" d="M223.091,339a2.422,2.422,0,0,1,.274.229c1.394,1.485,2.9,2.9,4.319,4.342.754.777,1.531,1.531,2.262,2.331a3.66,3.66,0,0,1,.571.617c-.274-.183-.571-.366-.823-.571l-.091.091c-1.005-.937-1.942-1.942-2.925-2.925-.686-.754-1.44-1.462-2.125-2.239-.526-.548-1.074-1.1-1.554-1.691A.459.459,0,0,0,223.091,339Z" transform="translate(-209.094 -283.909)"/><path class="f" d="M197,354.449a.666.666,0,0,1,.366.023c.48.3.914.708,1.394,1.028q1.474,1.165,2.879,2.468c.708.731,1.531,1.325,2.239,2.079.48.526,1.028,1.005,1.508,1.531l-.206.137a4.375,4.375,0,0,1,.32.343,7.1,7.1,0,0,1-1.485-1.257,22.472,22.472,0,0,0-1.874-1.737c-.48-.411-.914-.891-1.394-1.325-.366-.32-.708-.686-1.1-1.005-.457-.366-.868-.8-1.348-1.165-.32-.229-.571-.548-.914-.754A1.456,1.456,0,0,1,197,354.449Z" transform="translate(-189.035 -295.816)"/><path class="f" d="M162.478,375.24c-.137-.206-.434-.366-.3-.64.457.411.845.914,1.28,1.371.457.457.891.96,1.325,1.44.388.411.8.823,1.211,1.234.526.548,1.12,1.005,1.622,1.554.457.48.96.937,1.462,1.394a6.978,6.978,0,0,1,1.028.983c-.046,0-.16.023-.229.023-.183-.137-.366-.274-.548-.388a11.12,11.12,0,0,1-1.143-.914c-.571-.526-1.074-1.1-1.668-1.6-.5-.434-.914-.937-1.371-1.394-.731-.708-1.348-1.531-2.034-2.262C162.912,375.765,162.706,375.514,162.478,375.24Z" transform="translate(-162.146 -311.374)"/></g><path class="o" d="M32.175,129.094c1.3-.571,2.674-.914,4-1.394a6.3,6.3,0,0,0-.686,1.9,19.589,19.589,0,0,0-.411,2.011,9.274,9.274,0,0,0-.046,2.1,3.091,3.091,0,0,0,.091.663,16.2,16.2,0,0,0,.594,2.125c.411.914.708,1.874,1.188,2.765a10.562,10.562,0,0,0,2.651,3.039,9.067,9.067,0,0,0,1.3.731,3.553,3.553,0,0,0,1.92.5,4.882,4.882,0,0,0,.96-.366,6.371,6.371,0,0,0,1.531-1.6,9.342,9.342,0,0,0,1.3-3.542c.046-.526.091-1.051.091-1.577a2.2,2.2,0,0,1,.457-1.3c.411-.434.868-.868,1.3-1.3.114-.069,0-.183-.046-.251.5.3.96.708,1.508.983a5.009,5.009,0,0,0,1.1.571,12.4,12.4,0,0,0,1.211.388,11.1,11.1,0,0,0,1.92.274,8.415,8.415,0,0,0,1.508-.137,18.933,18.933,0,0,1,.32,2.788,31.52,31.52,0,0,1,.069,4.41A7,7,0,0,0,54.135,142a7.527,7.527,0,0,0-1.462-.274,6.233,6.233,0,0,0-2.674.206c.183-.64.251-1.3.388-1.965a9.578,9.578,0,0,0,.091-2.285c-.183.069-.16.274-.183.434a18.906,18.906,0,0,1-.274,2.285c-.091.526-.091,1.051-.229,1.577a17.272,17.272,0,0,1-1.028,2.742c-.457,1.371-1.257,2.582-1.828,3.908-.229.526-.48,1.028-.708,1.531-.457,1.1-.845,2.217-1.257,3.313a14.642,14.642,0,0,1-.731,1.737,16.439,16.439,0,0,1-2.125,2.879,9.13,9.13,0,0,1-1.028,1.257c-.366.411-.731.845-1.1,1.257a5.847,5.847,0,0,1-.891.96c-.16-.686-.274-1.394-.457-2.079-.251-1.325-.434-2.674-.617-4.022a9.714,9.714,0,0,0,.16-1.828c.091-.914.206-1.828.206-2.742a24.113,24.113,0,0,0-.114-3.4,11.974,11.974,0,0,0-.366-2.011,14.519,14.519,0,0,0-.526-1.6,22.123,22.123,0,0,0-1.165-2.719,11.741,11.741,0,0,0-2.308-2.879c-.206-.16-.434-.388-.731-.32a9.022,9.022,0,0,1,1.92,2.034,15.072,15.072,0,0,1,1.005,1.645,31.569,31.569,0,0,1,1.325,3.451,17.379,17.379,0,0,1,.594,4.844,29.791,29.791,0,0,1-.114,3.5,12.817,12.817,0,0,0-.023,1.622c-.708.251-1.417.548-2.125.731-.663.183-1.325.388-1.988.571-.868.206-1.737.434-2.605.571-.594.091-1.188.183-1.805.3a16.349,16.349,0,0,1-2.994.206,16.712,16.712,0,0,0-2.148-.091c.114.343.229.663.366,1.005.274.708.457,1.462.754,2.148a8.372,8.372,0,0,1,.343.983c.229.594.48,1.188.731,1.76.274.731.64,1.417.914,2.148.366.823.686,1.691,1.074,2.514a5.054,5.054,0,0,1-.868.983,23.756,23.756,0,0,1-2.125,1.622c-.8.617-1.645,1.188-2.445,1.782-.594.434-1.165.914-1.737,1.394a9.643,9.643,0,0,0-1.6,2.1c-.274.5-.686.891-.937,1.394-.114.251-.366.388-.548.571-.663.64-1.394,1.257-2.079,1.874-.526.48-1.074.983-1.622,1.417a13.218,13.218,0,0,0-1.485,1.028c-.48.32-.96.663-1.44.983-.366.229-.754.388-1.143.594a9.371,9.371,0,0,1-2.491.686,11.893,11.893,0,0,1-1.554.137,5.844,5.844,0,0,0-1.668.069,3.4,3.4,0,0,1-.96.069c-.708-.046-1.417.091-2.125-.023-.206-.846-.548-1.668-.8-2.514A24.188,24.188,0,0,1,0,176.213c0-1.531,0-3.062.091-4.57a32.721,32.721,0,0,1,.731-4.685,36.993,36.993,0,0,1,.983-3.793c.526-1.714,1.234-3.336,1.874-5,.388-.983.777-1.942,1.211-2.9a45.172,45.172,0,0,1,2.148-4.5c.411-.663.731-1.394,1.165-2.057.754-1.143,1.6-2.262,2.354-3.4.686-.937,1.394-1.874,2.125-2.788a36.017,36.017,0,0,1,3.153-3.313c.5-.457.96-.937,1.485-1.371.914-.777,1.828-1.577,2.811-2.262a58.152,58.152,0,0,1,4.982-3.062,38.43,38.43,0,0,1,3.473-1.805C29.775,130.168,30.941,129.551,32.175,129.094ZM22.166,147.329a20.553,20.553,0,0,0,.274,3.93c.183.983.366,1.965.571,2.948a28.585,28.585,0,0,0,1.143,3.039.777.777,0,0,1,.229.023,34.253,34.253,0,0,1-1.234-3.542c-.16-.777-.32-1.577-.48-2.354-.137-.823-.206-1.645-.274-2.468a11.505,11.505,0,0,0-.114-1.531A.386.386,0,0,1,22.166,147.329Z" transform="translate(0 -104.008)"/><g transform="translate(22.156 33.679)"><path class="p" d="M218.171,171.834c.023-.16,0-.366.183-.434a9.578,9.578,0,0,1-.091,2.285c-.137.663-.206,1.325-.388,1.965a1.676,1.676,0,0,1-.274.731,6.6,6.6,0,0,1,.091-.663c.114-.526.137-1.051.229-1.577C218.034,173.365,218.1,172.611,218.171,171.834Z" transform="translate(-190.031 -171.4)"/><path class="p" d="M145.2,172.558c.3-.069.5.16.731.32a11.741,11.741,0,0,1,2.308,2.879,22.125,22.125,0,0,1,1.165,2.719c.183.526.388,1.051.526,1.6a11.976,11.976,0,0,1,.366,2.011,28.106,28.106,0,0,1,.114,3.4,22.144,22.144,0,0,1-.206,2.742,9.714,9.714,0,0,1-.16,1.828.945.945,0,0,1-.114-.434,12.815,12.815,0,0,1,.023-1.622,29.79,29.79,0,0,0,.114-3.5,15.833,15.833,0,0,0-.594-4.844c-.411-1.165-.8-2.331-1.325-3.451a9.328,9.328,0,0,0-1.005-1.645A10.129,10.129,0,0,0,145.2,172.558Z" transform="translate(-134.176 -172.284)"/><path class="p" d="M96.966,213.6a.241.241,0,0,0,.114.046,11.5,11.5,0,0,1,.114,1.531c.069.823.137,1.645.274,2.468.137.777.3,1.577.48,2.354a32.474,32.474,0,0,0,1.234,3.542.7.7,0,0,1-.229-.023,28.581,28.581,0,0,1-1.143-3.039c-.206-.983-.388-1.965-.571-2.948A20.425,20.425,0,0,1,96.966,213.6Z" transform="translate(-96.956 -203.957)"/></g><g transform="translate(3.062 37.553)"><path class="q" d="M240.571,188.595a9.127,9.127,0,0,1,2.948-.183,4.931,4.931,0,0,1,3.085,1.531,7.272,7.272,0,0,1,1.051,1.44,7.069,7.069,0,0,1,.891,2.719,9.854,9.854,0,0,1,0,2.011,12.664,12.664,0,0,1-1.1,3.862,30.767,30.767,0,0,1-4.045,6.833c-.777,1.051-1.6,2.057-2.422,3.062-.663.8-1.371,1.577-2.1,2.331a7.017,7.017,0,0,1-.594.571,2.717,2.717,0,0,1,.343.206c-.571-.16-1.12-.388-1.691-.548-.571-.183-1.143-.366-1.737-.526-.914-.229-1.851-.389-2.765-.548-.411-.023-.8-.16-1.211-.183a32.423,32.423,0,0,1-1.508-3.108,5.181,5.181,0,0,1-.571-1.737,8.155,8.155,0,0,1,.137-2.582c.229-1.074.457-2.148.731-3.222.183-.731.434-1.462.64-2.194.366-1.28.731-2.582,1.188-3.816.137-.388.251-.777.389-1.188a1.762,1.762,0,0,0-.046.343A21.136,21.136,0,0,1,235,191.337a17.959,17.959,0,0,1,2.7-1.622A9.944,9.944,0,0,1,240.571,188.595Z" transform="translate(-179.81 -188.356)"/><path class="q" d="M173.953,251.079a16.437,16.437,0,0,0,2.125-2.879h.229c-.091.663-.046,1.325-.091,1.988,0,.663-.091,1.348-.069,2.011,0,.686-.069,1.394-.069,2.079s.023,1.394.046,2.079a5.673,5.673,0,0,0,.137,1.234,1.822,1.822,0,0,1-.846.183c-1.143.137-2.239.48-3.359.64a2.384,2.384,0,0,0-.571.183.23.23,0,0,1-.069-.023c-.114-.708-.251-1.417-.343-2.148a8.63,8.63,0,0,1-.137-1.874,4.451,4.451,0,0,0,.891-.96c.366-.434.731-.846,1.1-1.257A6.69,6.69,0,0,0,173.953,251.079Z" transform="translate(-134.923 -234.525)"/><path class="q" d="M91.589,303.6a1.464,1.464,0,0,1,.3.434c.16.48.366.96.571,1.44-.069.091-.137.206-.251.229a18.31,18.31,0,0,0-3.93,2.171c-.274.183-.5.411-.777.617-.823.571-1.622,1.188-2.422,1.805a15.273,15.273,0,0,0-1.577,1.394c-.32.343-.686.617-1.028.937a1.579,1.579,0,0,1-.5.366c-.023-.023-.046-.091-.069-.114.251-.5.663-.914.937-1.394a9.645,9.645,0,0,1,1.6-2.1c.571-.48,1.143-.937,1.737-1.394.823-.594,1.645-1.165,2.445-1.782a20.874,20.874,0,0,0,2.125-1.622A5.812,5.812,0,0,0,91.589,303.6Z" transform="translate(-66.247 -277.265)"/><path class="p" d="M21.809,366.383c.48-.32.96-.64,1.44-.983,0,.091.046.206-.046.3a28.064,28.064,0,0,1-3.359,2.765,15.451,15.451,0,0,0-2.674,2.651c-.137.16-.206.388-.411.457-.114-.137.023-.32.091-.434a15.3,15.3,0,0,1,2.217-2.491c.48-.457,1.028-.823,1.508-1.257a6.5,6.5,0,0,1-1.28.434,13.348,13.348,0,0,1-3.565.411A9.92,9.92,0,0,1,13.4,368.1a1.165,1.165,0,0,1,.617-.137,3.4,3.4,0,0,0,.96-.069,5.811,5.811,0,0,1,1.668-.069,11.9,11.9,0,0,0,1.554-.137A10.317,10.317,0,0,0,20.69,367,10.689,10.689,0,0,0,21.809,366.383Z" transform="translate(-13.4 -324.943)"/></g><g transform="translate(1.554 60.346)"><path class="m" d="M238.1,288.1c.411.023.8.16,1.211.183.914.183,1.851.32,2.765.548.571.16,1.143.343,1.737.526a4.3,4.3,0,0,1-.091,1.942c-.137.777-.32,1.554-.526,2.308a.39.39,0,0,0-.32,0c-.594-.777-1.188-1.554-1.805-2.331A22.815,22.815,0,0,0,238.6,288.6,3.483,3.483,0,0,1,238.1,288.1Z" transform="translate(-185.245 -288.1)"/><path class="m" d="M177.208,289.483a2.078,2.078,0,0,0,.845-.183.817.817,0,0,1,.251.5,26.717,26.717,0,0,0,2.925,6.353c.663,1.005,1.371,1.988,2.1,2.971a7.206,7.206,0,0,0,1.348,1.531c-.023.069-.069.137-.091.206-.411.228-.868.388-1.28.594a23.361,23.361,0,0,0-3.062,1.874,12.115,12.115,0,0,0-1.234.891.653.653,0,0,0-.366-.023c-.411-.526-.96-.914-1.394-1.44a21.412,21.412,0,0,1-1.485-1.988,24.222,24.222,0,0,1-1.417-2.765,14.9,14.9,0,0,1-.708-2.811,25.211,25.211,0,0,1-.388-4.89,2.382,2.382,0,0,1,.571-.183C174.969,289.94,176.066,289.62,177.208,289.483Z" transform="translate(-135.208 -289.026)"/><path class="m" d="M34.5,311.8c.434.96.823,1.942,1.28,2.879.411.868.8,1.737,1.234,2.582.48.914.983,1.805,1.485,2.7.548.914,1.005,1.874,1.6,2.788.708,1.165,1.44,2.331,2.239,3.428-.137.274.183.434.3.64-.366.343-.731.708-1.12,1.028-.5.434-1.005.914-1.554,1.3a2.079,2.079,0,0,0-.48.411c-.571.571-1.234,1.051-1.828,1.577-.937.8-1.92,1.508-2.9,2.239a32.937,32.937,0,0,1-3.291,2.331,26.8,26.8,0,0,1-3.176,1.76,13.334,13.334,0,0,1-4.822.96c-.708-.023-1.44.023-2.148.046a10.339,10.339,0,0,1-2.354-.389,19.015,19.015,0,0,1-2.285-.731c-.594-.3-1.257-.457-1.828-.8-.388-.251-.777-.48-1.143-.731a14.517,14.517,0,0,1-1.691-1.234,19.715,19.715,0,0,1-2.468-2.514,12.459,12.459,0,0,1-1.508-2.4A21.989,21.989,0,0,1,6.8,326.608c.708.091,1.417-.023,2.125.023a1.165,1.165,0,0,0-.617.137,8.831,8.831,0,0,0,2.331.137,13.346,13.346,0,0,0,3.565-.411,12.031,12.031,0,0,0,1.28-.434c-.48.434-1.028.8-1.508,1.257a15.3,15.3,0,0,0-2.217,2.491c-.069.137-.206.3-.091.434.206-.069.3-.3.411-.457a15.451,15.451,0,0,1,2.674-2.651,29.993,29.993,0,0,0,3.359-2.765c.091-.069.046-.183.046-.3a13.223,13.223,0,0,1,1.485-1.028c.571-.457,1.1-.937,1.622-1.417.708-.617,1.417-1.211,2.079-1.874.183-.183.434-.32.548-.571.023.023.046.091.069.114a1.58,1.58,0,0,0,.5-.366c.343-.32.708-.594,1.028-.937a18.1,18.1,0,0,1,1.577-1.394c.8-.617,1.6-1.234,2.422-1.805.274-.183.5-.434.777-.617a19.983,19.983,0,0,1,3.93-2.171A.42.42,0,0,0,34.5,311.8Z" transform="translate(-6.8 -306.384)"/></g><path class="r" d="M268.07,332.349a.378.378,0,0,1,.48.023,1.577,1.577,0,0,1,.251.914,90.392,90.392,0,0,1-.388,10.26,1.242,1.242,0,0,0,0,.411,1.642,1.642,0,0,0-1.508-.731,2.1,2.1,0,0,0-1.28.823c-.046-.457-.183-.914-.274-1.371a14.511,14.511,0,0,1-.206-2.445,10.419,10.419,0,0,1,.023-1.462,12.572,12.572,0,0,1,1.691-5.1A3.568,3.568,0,0,1,268.07,332.349Zm-.366,2.034a15.316,15.316,0,0,0-.686,3.382,25.094,25.094,0,0,0-.046,5.073c.046,0,.114.023.16.023-.046-.548-.091-1.1-.114-1.668a27.3,27.3,0,0,1,.343-4.73c.114-.754.251-1.485.434-2.217C267.773,334.292,267.727,334.337,267.7,334.383Zm5.85-.114a.837.837,0,0,1,.686-.183c.206.069.274.32.274.526a8.593,8.593,0,0,1-.3,2.285c-.48,2.171-1.12,4.3-1.737,6.421a7.629,7.629,0,0,0-1.577,2.856,50.2,50.2,0,0,0-.96,5.233,4.24,4.24,0,0,1-.434,1.28c-.251.16-.526.3-.777.457a11.279,11.279,0,0,0,.8-5.69,6.085,6.085,0,0,0-.16-.891,6.356,6.356,0,0,0-.663-2.148l-.023-.069c.434-1.485,1.028-2.925,1.554-4.387a21.083,21.083,0,0,1,2.148-4.456A5.452,5.452,0,0,1,273.554,334.269Zm-.137,1.485a17.447,17.447,0,0,0-1.1,2.034,53.222,53.222,0,0,0-1.737,5.3c-.274.868-.48,1.737-.754,2.628-.069.274-.229.548-.114.823.206-.526.343-1.1.5-1.645.366-1.348.8-2.651,1.188-4a25.61,25.61,0,0,1,1.462-3.885c.229-.457.5-.891.708-1.371A.41.41,0,0,0,273.417,335.754Zm5.644-.274a3.562,3.562,0,0,1,1.074-.5.334.334,0,0,1,.388.366,3.408,3.408,0,0,1-.3,1.074,36.706,36.706,0,0,1-1.691,3.428c-.937,1.691-1.9,3.382-2.834,5.073-.183.343-.411.686-.571,1.051.754-.914,1.485-1.851,2.331-2.7a4.021,4.021,0,0,1,1.485-.983.491.491,0,0,1,.526.046.747.747,0,0,1,.137.754,7.127,7.127,0,0,1-.663,1.622,27.546,27.546,0,0,1-2.057,3.222,49.092,49.092,0,0,1-3.428,4.136.712.712,0,0,1-.137.091.632.632,0,0,0-.3.023,16.791,16.791,0,0,0-1.6,1.257,4.471,4.471,0,0,1-1.417.754,10.126,10.126,0,0,0,1.508-1.462c.388-.434.663-.983,1.028-1.44a.437.437,0,0,0-.617-.228,13.454,13.454,0,0,0-1.234.731,5.7,5.7,0,0,0,.8-1.577,27.31,27.31,0,0,1,2.239-3.4c.594-.868,1.211-1.714,1.737-2.628a4.565,4.565,0,0,0,.617-1.6.753.753,0,0,0-.594-.868,3.008,3.008,0,0,0-1.988.64,12.664,12.664,0,0,1,.686-1.211,32.5,32.5,0,0,1,2.536-3.565A12.926,12.926,0,0,1,279.061,335.48Zm-.64,1.942a20.784,20.784,0,0,0-2.7,4.045.765.765,0,0,1,.137.069c.388-.686.754-1.394,1.188-2.057a23.506,23.506,0,0,1,1.805-2.4,4.185,4.185,0,0,0,.548-.708A8.737,8.737,0,0,0,278.421,337.422Zm-.777,6.65a19.68,19.68,0,0,1-3.4,4.8,13.511,13.511,0,0,0-1.1,1.188,1.7,1.7,0,0,0-.32.5,3.255,3.255,0,0,0,.708-.663c.5-.571,1.1-1.074,1.6-1.668a16.269,16.269,0,0,0,1.9-2.742,7.557,7.557,0,0,0,.708-1.508C277.713,343.981,277.667,344.049,277.644,344.072Zm-17.733-4.479a.594.594,0,0,1,.571-.183,1.87,1.87,0,0,1,.914.617c.617.663,1.165,1.394,1.714,2.1.686.937,1.417,1.874,2.079,2.834a2.571,2.571,0,0,0,0,1.44,11.227,11.227,0,0,0,.914,2.171c.274.617.571,1.211.8,1.828a4.16,4.16,0,0,1,.32,1.9,6.864,6.864,0,0,1-.206,1.531,12.5,12.5,0,0,1-1.6-.069,14.886,14.886,0,0,0-.343-2.285,3.318,3.318,0,0,0,.983-1.051,1,1,0,0,0,.114-.846c-.548.16-1.1.366-1.645.526a6.4,6.4,0,0,0-.64-1.394,6.055,6.055,0,0,0-1.188-1.44,1.639,1.639,0,0,0-1.417-.251,11.082,11.082,0,0,0-1.714-1.554,2.12,2.12,0,0,0-.8-.366,7.717,7.717,0,0,0,.823.617,14.08,14.08,0,0,1,1.485,1.371,1.217,1.217,0,0,0-.8,1.005c-.526-.526-1.028-1.074-1.531-1.622a5.483,5.483,0,0,1-.937-1.348.893.893,0,0,1-.091-.594.706.706,0,0,1,.754-.434,3.243,3.243,0,0,1,1.417.594c.5.3.891.731,1.348,1.051.663.5,1.28,1.051,1.9,1.6-.731-.891-1.44-1.782-2.125-2.7a16.19,16.19,0,0,1-1.028-1.714,3.776,3.776,0,0,1-.457-2.125A1.717,1.717,0,0,1,259.912,339.593Zm.868,1.051a3.88,3.88,0,0,0,.868,2.285c.708,1.165,1.6,2.194,2.4,3.291.343.434.64.891,1.005,1.3-.983-1.394-1.988-2.742-2.948-4.136a8.1,8.1,0,0,1-1.188-2.239A1.171,1.171,0,0,0,260.78,340.644Zm12.18,4.547a12.236,12.236,0,0,0-1.851,3.7c-.183.594-.3,1.234-.526,1.805a3.929,3.929,0,0,0,.366-.983,20.424,20.424,0,0,1,.845-2.239,13.2,13.2,0,0,1,1.76-2.674,11.5,11.5,0,0,0,.891-1.188,1.711,1.711,0,0,0,.3-.617,6.229,6.229,0,0,0-.617.708C273.737,344.209,273.3,344.666,272.96,345.192Zm-5.827.868a9.175,9.175,0,0,0,.411,1.942,14.8,14.8,0,0,1,.731,4.456,1.09,1.09,0,0,0,.16-.708,13.356,13.356,0,0,0-.091-1.668,19.715,19.715,0,0,0-.457-2.011,19.811,19.811,0,0,1-.64-2.354,3.888,3.888,0,0,0-.206-.891A4.5,4.5,0,0,0,267.133,346.06Zm-5.667,2.4a8.2,8.2,0,0,1,1.234,1.417c.114.16.137.366.32.457a2.962,2.962,0,0,0-.731-1.3,4.137,4.137,0,0,0-.937-.845A.378.378,0,0,0,261.466,348.459Zm11.38,5.027a9.03,9.03,0,0,1-2.742,2.262,5.839,5.839,0,0,0,1.554-.891,5.675,5.675,0,0,0,1.531-1.6,2.6,2.6,0,0,0,.32-1.005A4.88,4.88,0,0,1,272.846,353.487Zm-8.821,0a4.929,4.929,0,0,0-.388-.777.822.822,0,0,0-.3.526A4.776,4.776,0,0,0,264.025,353.487Z" transform="translate(-198.807 -261.835)"/><g transform="translate(59.916 72.411)"><path class="s" d="M298.707,341.037a.222.222,0,0,1,.114-.137,18.08,18.08,0,0,0-.434,2.217,27.3,27.3,0,0,0-.343,4.73c0,.548.069,1.12.114,1.668-.046,0-.114-.023-.16-.023a23.531,23.531,0,0,1,.046-5.073A14.079,14.079,0,0,1,298.707,341.037Z" transform="translate(-289.726 -340.9)"/><path class="s" d="M313.908,347.114c.023-.069.091-.091.16-.114a11.136,11.136,0,0,1-.708,1.371,25.607,25.607,0,0,0-1.462,3.885c-.388,1.325-.845,2.651-1.188,4-.16.548-.3,1.1-.5,1.645-.091-.274.069-.548.114-.823.251-.868.457-1.76.754-2.628a53.209,53.209,0,0,1,1.737-5.3A21.7,21.7,0,0,1,313.908,347.114Z" transform="translate(-299.215 -345.606)"/><path class="s" d="M339.374,351.174a7.462,7.462,0,0,1,1.005-1.074,4.186,4.186,0,0,1-.548.708,22.218,22.218,0,0,0-2.993,4.456.76.76,0,0,1-.137-.069A21.216,21.216,0,0,1,339.374,351.174Z" transform="translate(-319.676 -347.998)"/><path class="s" d="M271.179,368.9a1.624,1.624,0,0,1,.16.5,8.8,8.8,0,0,0,1.188,2.239c.937,1.417,1.965,2.765,2.948,4.136-.366-.411-.663-.868-1.005-1.3-.8-1.1-1.691-2.148-2.4-3.291A3.763,3.763,0,0,1,271.179,368.9Z" transform="translate(-269.122 -362.502)"/><path class="s" d="M313.453,374.471a3.008,3.008,0,0,1,1.988-.64.753.753,0,0,1,.594.868,4.564,4.564,0,0,1-.617,1.6c-.526.914-1.143,1.76-1.737,2.628a28.218,28.218,0,0,0-2.239,3.4,7.863,7.863,0,0,1-.8,1.577,10.37,10.37,0,0,1-1.143.823,4.036,4.036,0,0,0,.434-1.28,44.853,44.853,0,0,1,.96-5.233,7.63,7.63,0,0,1,1.577-2.856A5.251,5.251,0,0,1,313.453,374.471Zm.617,1.28c-.366.5-.8.983-1.143,1.508a12.236,12.236,0,0,0-1.851,3.7c-.183.594-.3,1.234-.526,1.805a3.93,3.93,0,0,0,.366-.983,20.436,20.436,0,0,1,.846-2.239,13.2,13.2,0,0,1,1.76-2.674,11.514,11.514,0,0,0,.891-1.188,1.712,1.712,0,0,0,.3-.617A2.6,2.6,0,0,0,314.07,375.751Z" transform="translate(-298.691 -366.29)"/><path class="s" d="M290.456,380.973a2.1,2.1,0,0,1,1.28-.823,1.6,1.6,0,0,1,1.508.731,2.793,2.793,0,0,1,.274.434,6.516,6.516,0,0,1,.663,2.148,5.578,5.578,0,0,1,.16.891,11.279,11.279,0,0,1-.8,5.69,5.9,5.9,0,0,1-.846.434,2.639,2.639,0,0,1-.914.274,11.221,11.221,0,0,0,.206-1.531,4.212,4.212,0,0,0-.32-1.9c-.229-.617-.526-1.211-.8-1.828a12.866,12.866,0,0,1-.914-2.171,2.572,2.572,0,0,1,0-1.44A3.228,3.228,0,0,1,290.456,380.973Zm1.371.777a5.62,5.62,0,0,0,.091,1.234,9.176,9.176,0,0,0,.411,1.942,14.8,14.8,0,0,1,.731,4.456,1.089,1.089,0,0,0,.16-.708,13.357,13.357,0,0,0-.091-1.668,19.721,19.721,0,0,0-.457-2.011,19.809,19.809,0,0,1-.64-2.354A2.977,2.977,0,0,0,291.827,381.75Z" transform="translate(-283.532 -371.169)"/><path class="s" d="M328.722,383.591l.091-.091a7.558,7.558,0,0,1-.708,1.508,16.271,16.271,0,0,1-1.9,2.742c-.48.594-1.074,1.1-1.6,1.668a3.876,3.876,0,0,1-.708.663,1.453,1.453,0,0,1,.32-.5,13.511,13.511,0,0,1,1.1-1.188A19.5,19.5,0,0,0,328.722,383.591Z" transform="translate(-309.801 -373.765)"/><path class="s" d="M262.2,388.5a2.119,2.119,0,0,1,.8.366,12.241,12.241,0,0,1,1.714,1.554,1.639,1.639,0,0,1,1.417.251,5.131,5.131,0,0,1,1.188,1.44,4.8,4.8,0,0,1,.64,1.394c-.914.32-1.828.617-2.7,1.005A5.111,5.111,0,0,1,264.074,393a3.151,3.151,0,0,1-.32-1.508,1.217,1.217,0,0,1,.8-1.005,16.753,16.753,0,0,0-1.485-1.371A6.485,6.485,0,0,1,262.2,388.5Zm2.628,3.062a.422.422,0,0,0,.114.274,8.2,8.2,0,0,1,1.234,1.417c.114.16.137.366.32.457a2.962,2.962,0,0,0-.731-1.3A5.5,5.5,0,0,0,264.828,391.562Z" transform="translate(-262.2 -377.623)"/><path class="s" d="M283.6,417.534a5.206,5.206,0,0,1,1.417-1.234,13.15,13.15,0,0,1,.343,2.285q-.686-.1-1.371-.274A3.532,3.532,0,0,0,283.6,417.534Z" transform="translate(-278.71 -399.07)"/></g></g></g></svg>