<svg xmlns="http://www.w3.org/2000/svg" xmlns:xlink="http://www.w3.org/1999/xlink" viewBox="0 0 70 69">
  <defs>
    <style>
      .cls-1 {
        fill: none;
        stroke: #707070;
      }

      .cls-2 {
        clip-path: url(#clip-path);
      }

      .cls-3 {
        fill: #00b2aa;
      }
    </style>
    <clipPath id="clip-path">
      <rect id="Rectangle_514" data-name="Rectangle 514" class="cls-1" width="70" height="69" transform="translate(639 3628)"/>
    </clipPath>
  </defs>
  <g id="farmer_green_icon" class="cls-2" transform="translate(-639 -3628)">
    <g id="Group_1877" data-name="Group 1877" transform="translate(652 3638)">
      <path id="Path_823" data-name="Path 823" class="cls-3" d="M43.643,48.361H38.455V46.8c0-3.586-.954-6.346-2.836-8.215q-.229-.229-.458-.42a3.186,3.186,0,0,0,.445-.687,2.947,2.947,0,0,0,.318.28,3.961,3.961,0,0,0,2.149.585,1.828,1.828,0,0,0,1.59-.623,2.154,2.154,0,0,0,.025-2.06,3.868,3.868,0,0,0-1.03-1.539,2.889,2.889,0,0,0-.356-.229,2.007,2.007,0,0,0,.788-1.666c-.153-1.068-1.7-1.7-2.683-1.831a1.094,1.094,0,0,0-.013-.2c-.165-1.2-2.073-1.844-2.988-1.844a1.621,1.621,0,0,0-.254.013,3.761,3.761,0,0,0-1.615.674A12.385,12.385,0,0,0,33.025,25c0-.038.013-.076.013-.114v-.165a2.675,2.675,0,0,0,1.373-.814,5.213,5.213,0,0,0,.941-3.84,2.02,2.02,0,0,0-.75-1.4,2.892,2.892,0,0,0-1.564-.534v-.788a10.069,10.069,0,0,0,6.892-3.281,11.193,11.193,0,0,0,2.136-3.306v-.013c0-.013.013-.025.013-.038s0-.013.013-.025a.047.047,0,0,1,.013-.038v-.292a.047.047,0,0,0-.013-.038c0-.013,0-.025-.013-.025s-.013-.025-.013-.038-.013-.013-.013-.025-.013-.025-.013-.038-.013-.013-.013-.025-.013-.025-.013-.038a270.812,270.812,0,0,0-.025-.051c-.013-.013-.013-.025-.025-.038a.012.012,0,0,0-.013-.013c-.013-.013-.013-.025-.025-.038h0C41.609,9.6,40.261,8.546,35.3,8.546c-1.106,0-3.039-.216-3.573-1.653C29.973,2.327,28.218,0,26.5,0a11.7,11.7,0,0,0-4.3,1.094A11.562,11.562,0,0,0,17.9,0c-1.729,0-3.472,2.327-5.2,6.931C12.17,8.367,10.237,8.584,9.13,8.584c-2.264,0-6.091.216-6.727,1.59-.013.025-.025.064-.038.089h0c-.013.025-.013.064-.025.089v.025c0,.025-.013.051-.013.089v.114c0,.025.013.051.013.076v.025a.181.181,0,0,0,.025.076v.013h0A11.023,11.023,0,0,0,4.5,14.077a10.028,10.028,0,0,0,6.892,3.306v.788a2.967,2.967,0,0,0-1.577.534,1.973,1.973,0,0,0-.75,1.4,5.224,5.224,0,0,0,.941,3.84,2.733,2.733,0,0,0,1.386.827v.165a.352.352,0,0,0,.013.114,12.536,12.536,0,0,0,1.818,4.565,10.686,10.686,0,0,0,4.934,4.158c0,.038-.013.076-.013.114V36.2H14.332a8.375,8.375,0,0,0-5.544,2.391c-1.882,1.869-2.836,4.629-2.836,8.215v1.564H.763a.763.763,0,0,0,0,1.526h42.88a.769.769,0,0,0,0-1.539ZM36.929,46.8v1.564H33.1V38.582a6.808,6.808,0,0,1,1.45,1.081c1.577,1.577,2.378,3.968,2.378,7.134ZM22.2,42.219a5.09,5.09,0,0,0,5.048-4.489h1.577v6.358H15.6V37.73h1.539A5.112,5.112,0,0,0,22.2,42.219Zm8.291-9.372c.076-.216.2-.471.407-.509h.051c.369,0,.814.827.89,1.323a2.8,2.8,0,0,1-.534,1.5,2.794,2.794,0,0,1-.928-1.284,2.288,2.288,0,0,1,.114-1.03Zm2.7,2.022c.076-.216.2-.471.407-.509h.051c.369,0,.827.827.89,1.323a2.8,2.8,0,0,1-.534,1.5,2.794,2.794,0,0,1-.928-1.284,2.288,2.288,0,0,1,.114-1.03Zm-4.336-.788a4.044,4.044,0,0,0,1.3,2.111h-3.9V33.877a.352.352,0,0,0-.013-.114,10.525,10.525,0,0,0,3-1.882,2.28,2.28,0,0,0-.2.471,4.207,4.207,0,0,0-.178,1.729ZM14.84,45.614H29.591a.765.765,0,0,0,.763-.763V37.743a6.329,6.329,0,0,1,1.208.229v10.4H12.869V37.959a7.436,7.436,0,0,1,1.208-.216v7.121a.763.763,0,0,0,.763.75Zm23.233-8.8a2.8,2.8,0,0,1-1.234-.28,2.425,2.425,0,0,1-.636-.814c-.1-.2-.191-.483-.064-.649h0c.025-.038.1-.14.394-.14a2.47,2.47,0,0,1,1.208.407,2.85,2.85,0,0,1,.674,1.437,1.157,1.157,0,0,1-.343.038Zm-1.818-3.421c-.025,0-.1.013-.2.013-.521,0-1.272-.191-1.323-.547-.025-.2.178-.407.369-.534a2.77,2.77,0,0,1,.954-.407H36.1a2.955,2.955,0,0,1,1.45.534,2.767,2.767,0,0,1-1.3.941Zm-2.9-3.5h.051a2.955,2.955,0,0,1,1.45.534,2.794,2.794,0,0,1-1.284.928c-.038,0-.1.013-.2.013-.521,0-1.272-.191-1.323-.547-.076-.394.827-.852,1.31-.928Zm.28-9.982a.435.435,0,0,1,.178.343,3.725,3.725,0,0,1-.56,2.658,1.208,1.208,0,0,1-.242.2V19.711a1.339,1.339,0,0,1,.623.2Zm-.623-4.069V14.777a26.794,26.794,0,0,0,5.875-1.857,8.476,8.476,0,0,1-5.875,2.925ZM9.13,10.11c2.594,0,4.362-.941,5.01-2.645,1.526-4.082,3.027-5.939,3.764-5.939A10.963,10.963,0,0,1,21.86,2.62c.013,0,.013,0,.025.013s.013.013.025.013.025.013.051.013.013,0,.025.013.038.013.051.013h.013c.013,0,.038.013.051.013h.242a2681.075,2681.075,0,0,1,.076-.025c.013,0,.025-.013.038-.013a.044.044,0,0,0,.025-.013c.013,0,.025-.013.038-.013h.013a10.963,10.963,0,0,1,3.955-1.094c.738,0,2.238,1.857,3.777,5.939.636,1.7,2.416,2.645,5.01,2.645a15.922,15.922,0,0,1,4.642.521A15.706,15.706,0,0,1,36.9,12.119c-4.705,1.768-10.593,2.136-14.7,2.136s-9.982-.369-14.7-2.136a16.105,16.105,0,0,1-3.09-1.513,15.8,15.8,0,0,1,4.718-.5ZM5.659,13.1a2.111,2.111,0,0,0-.165-.178,26.942,26.942,0,0,0,5.888,1.857v1.055A8.325,8.325,0,0,1,5.659,13.1Zm5.481,9.817a3.739,3.739,0,0,1-.56-2.658.475.475,0,0,1,.165-.343,1.225,1.225,0,0,1,.649-.2v3.433a1.428,1.428,0,0,1-.254-.229Zm3.4,5.913a11.249,11.249,0,0,1-1.6-3.955V15.082a56.554,56.554,0,0,0,9.283.7,56.554,56.554,0,0,0,9.283-.7v9.792a11.434,11.434,0,0,1-1.6,3.955c-.089.14-.178.267-.267.394l-2.442-1.831a.844.844,0,0,0-.242-.114l-.038-.038a.776.776,0,0,0-1.081-.051,4.553,4.553,0,0,1-1.386.725.762.762,0,0,0-.471.966.776.776,0,0,0,.725.521.8.8,0,0,0,.242-.038,6.311,6.311,0,0,0,1.4-.661l2.276,1.691a9.44,9.44,0,0,1-6.346,2.721h-.14a9.327,9.327,0,0,1-7.592-4.285Zm7.528,5.811h.292a13.458,13.458,0,0,0,2.391-.369v2.7a.765.765,0,0,0,.763.763h.216a3.56,3.56,0,0,1-7.02,0h.216a.765.765,0,0,0,.763-.763v-2.7a14.145,14.145,0,0,0,2.378.369ZM7.477,46.8c0-4.972,2.022-7.223,3.866-8.24v9.8H7.477Zm0,0"/>
      <path id="Path_824" data-name="Path 824" class="cls-3" d="M126.631,139.816a.916.916,0,1,1-.916-.916.928.928,0,0,1,.916.916Zm0,0" transform="translate(-108.93 -121.237)"/>
      <path id="Path_825" data-name="Path 825" class="cls-3" d="M211.731,139.816a.916.916,0,1,1-.916-.916.928.928,0,0,1,.916.916Zm0,0" transform="translate(-183.208 -121.237)"/>
      <path id="Path_826" data-name="Path 826" class="cls-3" d="M162.657,168.663a.763.763,0,1,0-1.526,0,.309.309,0,0,1-.305.305h-.394a.309.309,0,0,1-.305-.305.763.763,0,1,0-1.526,0,1.84,1.84,0,0,0,1.831,1.831h.394a1.824,1.824,0,0,0,1.831-1.831Zm0,0" transform="translate(-138.432 -146.549)"/>
    </g>
  </g>
</svg>
