<svg xmlns="http://www.w3.org/2000/svg" xmlns:xlink="http://www.w3.org/1999/xlink" viewBox="0 0 70 69">
  <defs>
    <style>
      .cls-1 {
        fill: none;
        stroke: #707070;
      }

      .cls-2 {
        clip-path: url(#clip-path);
      }

      .cls-3 {
        fill: #00b2aa;
      }
    </style>
    <clipPath id="clip-path">
      <rect id="Rectangle_614" data-name="Rectangle 614" class="cls-1" width="70" height="69" transform="translate(1153 3815)"/>
    </clipPath>
  </defs>
  <g id="Mask_Group_89" data-name="Mask Group 89" class="cls-2" transform="translate(-1153 -3815)">
    <g id="Group_2230" data-name="Group 2230" transform="translate(1161.135 3823)">
      <path id="Union_13" data-name="Union 13" class="cls-3" d="M-743.5-3906.064a5.193,5.193,0,0,1-4.591-2.676,5.14,5.14,0,0,1-.42-4.033,5.2,5.2,0,0,1,2.633-3.086l9.183-4.57v-8.783c-.274.306-.453.495-.99,1.085a17.268,17.268,0,0,1-4.35,3.433c-2.148,1.19-5.623,3.4-5.8,3.507a4.208,4.208,0,0,1-5.107-.653,4.209,4.209,0,0,1,.41-6.319,1.826,1.826,0,0,1,.19-.116c.631-.305,6.212-3.38,8.171-4.381,1.232-2.042,5.107-8.446,5.107-8.446a4.237,4.237,0,0,1,3.317-2.032h.053a.2.2,0,0,0,.074-.011c4.023,0,13.332.011,16.766.011a.792.792,0,0,1,.273.011,4.243,4.243,0,0,1,3.244,2.021s3.875,6.413,5.107,8.446c1.4.717,8.33,4.476,8.351,4.5a4.216,4.216,0,0,1,.41,6.319,4.21,4.21,0,0,1-5.107.653c-.179-.105-3.654-2.318-5.8-3.507a16.849,16.849,0,0,1-4.317-3.391c-.327-.358-.674-.726-1.032-1.116v8.793l9.2,4.549a5.137,5.137,0,0,1,2.643,3.128,5.132,5.132,0,0,1-.473,4.066,5.177,5.177,0,0,1-4.539,2.6Zm15.238-2.106h17.344a3.063,3.063,0,0,0,2.728-1.548,3.043,3.043,0,0,0,.284-2.4,3.038,3.038,0,0,0-1.558-1.854l-9.563-4.729h-16.354l-9.562,4.729a3.038,3.038,0,0,0-1.559,1.822,3.035,3.035,0,0,0,.242,2.38,3.057,3.057,0,0,0,2.749,1.6h5.286a4.2,4.2,0,0,1-.568-2.107,4.211,4.211,0,0,1,4.212-4.212H-723a1.056,1.056,0,0,1,1.053,1.052,1.056,1.056,0,0,1-1.053,1.053h-5.265Zm-8.425-2.107a2.113,2.113,0,0,0,2.106,2.107h4.213v-4.213h-4.213A2.113,2.113,0,0,0-736.688-3910.277Zm2.106-10.531h14.743v-20.219h-2.106v3.159a5.267,5.267,0,0,1-5.265,5.265,5.267,5.267,0,0,1-5.265-5.265v-3.169h-2.107Zm-2.685-19.187s-4.244,7.023-5.254,8.7a1.049,1.049,0,0,1-.432.4c-1.632.821-7.277,3.928-8.35,4.475a2.111,2.111,0,0,0-.137,3.107,2.1,2.1,0,0,0,2.548.327c.211-.137,3.686-2.348,5.845-3.539a15.045,15.045,0,0,0,3.791-2.99c.01,0,.01-.011.01-.011s2.527-2.748,2.549-2.769v-8.32A2.03,2.03,0,0,0-737.268-3939.994Zm19.536,7.687c.789.853,1.779,1.927,2.58,2.8a15.211,15.211,0,0,0,3.781,2.98c2.179,1.211,5.623,3.4,5.855,3.539a2.109,2.109,0,0,0,2.538-.337,2.1,2.1,0,0,0-.137-3.107c-1.052-.538-6.718-3.665-8.351-4.476a1.127,1.127,0,0,1-.431-.4c-1.022-1.675-5.265-8.7-5.265-8.7a1.99,1.99,0,0,0-.568-.611Zm-12.638-5.572a3.155,3.155,0,0,0,3.159,3.159,3.169,3.169,0,0,0,3.159-3.159v-3.158h-6.319Zm-4.212-14.732a7.379,7.379,0,0,1,7.371-7.371,7.379,7.379,0,0,1,7.371,7.371,7.379,7.379,0,0,1-7.371,7.372A7.379,7.379,0,0,1-734.581-3952.611Zm2.106,0a5.267,5.267,0,0,0,5.265,5.266,5.268,5.268,0,0,0,5.265-5.266,5.268,5.268,0,0,0-5.265-5.265A5.267,5.267,0,0,0-732.475-3952.611Z" transform="translate(754.048 3959.982)"/>
    </g>
  </g>
</svg>
