<svg xmlns="http://www.w3.org/2000/svg" xmlns:xlink="http://www.w3.org/1999/xlink" viewBox="0 0 100 100">
  <defs>
    <style>
      .cls-1 {
        fill: #fff;
      }

      .cls-2 {
        fill: none;
      }

      .cls-3 {
        fill: url(#linear-gradient);
      }
    </style>
    <linearGradient id="linear-gradient" x1="0.253" x2="0.876" y2="1" gradientUnits="objectBoundingBox">
      <stop offset="0" stop-color="#ff6969"/>
      <stop offset="1" stop-color="#ffc05a"/>
    </linearGradient>
  </defs>
  <g id="imageIcon_whiteRound" transform="translate(-138 -220)">
    <path id="Path_1415" data-name="Path 1415" class="cls-1" d="M50,0A50,50,0,1,1,0,50,50,50,0,0,1,50,0Z" transform="translate(138 220)"/>
    <g id="imageIcon" transform="translate(-16 250)">
      <path id="Bounds" class="cls-2" d="M180,0h47.2V47.2H180Z"/>
      <path id="Icon" class="cls-3" d="M218.4,34.464V6.933A3.944,3.944,0,0,0,214.464,3H186.933A3.945,3.945,0,0,0,183,6.933V34.464a3.945,3.945,0,0,0,3.933,3.933h27.531A3.944,3.944,0,0,0,218.4,34.464ZM193.816,23.648l4.916,5.9,6.883-8.849,8.849,11.8H186.933Z" transform="translate(2.899 2.899)"/>
    </g>
  </g>
</svg>
