<svg xmlns="http://www.w3.org/2000/svg" xmlns:xlink="http://www.w3.org/1999/xlink" viewBox="0 0 70 69">
  <defs>
    <style>
      .cls-1 {
        fill: none;
        stroke: #707070;
      }

      .cls-2 {
        clip-path: url(#clip-path);
      }

      .cls-3 {
        fill: #00b2aa;
      }
    </style>
    <clipPath id="clip-path">
      <rect id="Rectangle_579" data-name="Rectangle 579" class="cls-1" width="70" height="69" transform="translate(639 3453)"/>
    </clipPath>
  </defs>
  <g id="craft_green_icon" class="cls-2" transform="translate(-639 -3453)">
    <g id="Group_2216" data-name="Group 2216" transform="translate(646 3465.007)">
      <g id="Group_2214" data-name="Group 2214" transform="translate(0 -0.006)">
        <path id="Path_1437" data-name="Path 1437" class="cls-3" d="M71.526,291.851a3.326,3.326,0,1,0-3.326-3.326A3.342,3.342,0,0,0,71.526,291.851Zm0-4.988a1.663,1.663,0,1,1-1.663,1.663A1.671,1.671,0,0,1,71.526,286.863Z" transform="translate(-59.055 -246.956)"/>
        <path id="Path_1438" data-name="Path 1438" class="cls-3" d="M24.111,10.808V2.494A2.456,2.456,0,0,0,21.616,0H3.326A2.456,2.456,0,0,0,.831,2.494v8.314A.788.788,0,0,0,0,11.64v7.483a.788.788,0,0,0,.831.831v5.82c0,2.159.912,2.749,2.575,3.822l.255.161c1.408.992,1.663,1.918,1.328,4.157l-.831,5.578a9.4,9.4,0,0,0,3.822,8.984,7.8,7.8,0,0,0,4.492,1.408,6.869,6.869,0,0,0,4.412-1.5A9.209,9.209,0,0,0,20.7,39.4l-.831-5.565c-.335-2.414-.335-2.91,1.328-4.077l.335-.161c1.663-1.086,2.575-1.663,2.575-3.822v-5.82a.788.788,0,0,0,.831-.831V11.64A.788.788,0,0,0,24.111,10.808ZM1.663,18.291v-5.82H9.145V13.3a3.326,3.326,0,1,0,6.651,0v-.831h7.483v5.82Zm20.785-15.8v8.314H15.8V1.663h5.82A.788.788,0,0,1,22.448,2.494ZM14.134,11.64V13.3a1.663,1.663,0,0,1-3.326,0V4.157a.831.831,0,1,0-1.663,0V6.651a1.663,1.663,0,0,1-3.326,0V1.663h8.314ZM2.494,2.494a.894.894,0,0,1,.831-.831h.831V6.651A3.342,3.342,0,0,0,7.483,9.977a3.722,3.722,0,0,0,1.663-.416v1.247H2.494Zm20.034,23.2c0,1.247-.255,1.408-1.824,2.414l-.335.255c-2.494,1.743-2.414,2.99-2,5.739l.831,5.565a7.794,7.794,0,0,1-3.165,7.4,6.44,6.44,0,0,1-7.067,0,7.633,7.633,0,0,1-3.165-7.4L6.638,34.1c.416-2.414.255-4.157-2-5.739L4.3,28.2c-1.14-.724-1.582-1.006-1.743-1.582H4.975a.831.831,0,0,0,0-1.663H2.494V23.293H6.651a.831.831,0,1,0,0-1.663H2.494V19.967H22.528Z" transform="translate(0 0)"/>
      </g>
      <g id="Group_2215" data-name="Group 2215" transform="translate(26.027 -0.007)">
        <path id="Path_1439" data-name="Path 1439" class="cls-3" d="M205.731.933A7.957,7.957,0,0,0,202.07.141a8.128,8.128,0,0,0-3.916,15.166l.375,19.967a8.129,8.129,0,0,0,5.042,14.617,8.02,8.02,0,0,0,3.621-.939,8.048,8.048,0,0,0,3.661.791,8.128,8.128,0,0,0,3.916-15.166l-.215-11.666a.838.838,0,0,0-1.676.04l.215,11.318-12.9.241-.349-18.894,12.739-.241a.708.708,0,0,0,.161.04l.027,1.328a.838.838,0,0,0,1.676-.04l-.04-2.065V14.6a8.125,8.125,0,0,0,1.22-11.841,5.723,5.723,0,0,1,3.929.617,7.51,7.51,0,0,1,3.393,6.866,6.529,6.529,0,0,1-.778,2.789,9.368,9.368,0,0,0-1.006,3.393,12.261,12.261,0,0,0,1.636,7.053.84.84,0,0,0,1.475-.8,10.525,10.525,0,0,1-1.435-6.088,7.908,7.908,0,0,1,.858-2.856,7.954,7.954,0,0,0,.925-3.433,3.947,3.947,0,0,0,0-.563c-.054-2.87-1.354-6.262-4.278-7.845a7.113,7.113,0,0,0-6.142-.416,8.239,8.239,0,0,0-4.841-1.475A8.129,8.129,0,0,0,205.731.933Zm-9.963,7.442A6.449,6.449,0,0,1,208.52,6.9a8.091,8.091,0,0,0-2.065-.308,4.557,4.557,0,1,0-7.576,4.774,8.432,8.432,0,0,0-.617,2A6.489,6.489,0,0,1,195.768,8.375Zm7.711,5.5a2.928,2.928,0,0,1,5.578-.107Zm9.172-.174-1.864.04a4.607,4.607,0,0,0-9.038.161l-1.864.04A6.446,6.446,0,0,1,212.65,13.7Zm-7.979-6.946A8.085,8.085,0,0,0,199.8,9.823a2.823,2.823,0,0,1-.456-1.5,2.876,2.876,0,0,1,5.324-1.569Zm5.659.912a8.447,8.447,0,0,0-.55-2.414A2.875,2.875,0,0,1,212.4,8.067a2.73,2.73,0,0,1-.188,1.086A8.426,8.426,0,0,0,210.331,7.664Zm1.234,33.98a8.419,8.419,0,0,0,1.582-1.582,2.823,2.823,0,0,1,.456,1.5,2.891,2.891,0,0,1-2.508,2.91A8.245,8.245,0,0,0,211.564,41.644Zm-8.073,2.99a2.888,2.888,0,0,1-2.937-2.829,2.73,2.73,0,0,1,.188-1.086,8.074,8.074,0,0,0,5.149,2.521A2.847,2.847,0,0,1,203.492,44.635Zm6.772-4.13c-.013.013-.027.013-.04.027a6.348,6.348,0,0,1-3.446,1.073,6.448,6.448,0,0,1-6.49-5.431L209.472,36a2.9,2.9,0,0,1-.992,1.462,2.979,2.979,0,0,1-2.159.617.837.837,0,0,0-.188,1.663,4.558,4.558,0,0,0,3.393-.965,4.507,4.507,0,0,0,1.676-2.8l1.864-.04A6.438,6.438,0,0,1,210.263,40.5Zm-13.276,1.368a6.508,6.508,0,0,1,1.824-4.613,8.593,8.593,0,0,0,.818,1.985,4.441,4.441,0,0,0-.751,2.6,4.559,4.559,0,0,0,8.877,1.368,8.355,8.355,0,0,0,2.079-.563,6.454,6.454,0,0,1-12.846-.778Zm20.182-.375a6.462,6.462,0,0,1-6.329,6.571,6.626,6.626,0,0,1-1.985-.268,8.327,8.327,0,0,0,1.408-1.649c.174.013.362.027.536.027a4.554,4.554,0,0,0,3.245-7.657,8.431,8.431,0,0,0,.617-2A6.393,6.393,0,0,1,217.169,41.5ZM215.963,8a6.472,6.472,0,0,1-1.824,4.626,7.868,7.868,0,0,0-.831-1.985,4.441,4.441,0,0,0,.751-2.6,4.553,4.553,0,0,0-4.64-4.465,3.611,3.611,0,0,0-.536.04,8.687,8.687,0,0,0-1.462-1.6,6.552,6.552,0,0,1,1.971-.349A6.462,6.462,0,0,1,215.963,8Z" transform="translate(-194.09 0.007)"/>
        <circle id="Ellipse_386" data-name="Ellipse 386" class="cls-3" cx="0.845" cy="0.845" r="0.845" transform="matrix(1, -0.019, 0.019, 1, 8.822, 37.053)"/>
        <circle id="Ellipse_387" data-name="Ellipse 387" class="cls-3" cx="0.845" cy="0.845" r="0.845" transform="matrix(1, -0.019, 0.019, 1, 18.731, 18.964)"/>
      </g>
    </g>
  </g>
</svg>
