<svg id="liked" xmlns="http://www.w3.org/2000/svg" viewBox="0 0 12.431 12">
  <defs>
    <style>
      .cls-1 {
        fill: #a1b502;
      }
    </style>
  </defs>
  <path id="Path_2214" data-name="Path 2214" class="cls-1" d="M2.939,16.5H.863A1.02,1.02,0,0,0,0,17.5v5.636a.959.959,0,0,0,.863.917H2.912a.832.832,0,0,0,.728-.917V17.471c.027-.485-.3-.971-.7-.971Zm0,0" transform="translate(0 -12.051)"/>
  <path id="Path_2215" data-name="Path 2215" class="cls-1" d="M22.5,6.526a1.221,1.221,0,0,0,.378-.863,1.247,1.247,0,0,0-.351-.863,1.209,1.209,0,0,0-.836-.378h-2.7A4.209,4.209,0,0,0,18.345.431h0A1.292,1.292,0,0,0,17.4,0a1.2,1.2,0,0,0-1.187,1.187v.243a4.727,4.727,0,0,1-.539,2.8c-.027.054-.054.081-.081.135a.245.245,0,0,1-.189.081h-.081c-.027,0-.081.027-.108.027a.99.99,0,0,0-.917.944v5.636A1.029,1.029,0,0,0,15.325,12h6.364c.027,0,.054-.027.081-.027a1.188,1.188,0,0,0,.7-2.022,1.175,1.175,0,0,0,0-1.726,1.221,1.221,0,0,0,.378-.863,1.044,1.044,0,0,0-.351-.836Zm0,0" transform="translate(-10.444)"/>
</svg>
