<svg xmlns="http://www.w3.org/2000/svg" xmlns:xlink="http://www.w3.org/1999/xlink" viewBox="0 0 19.642 27.146">
  <defs>
    <style>
      .cls-1 {
        fill: url(#linear-gradient);
      }

      .cls-2 {
        opacity: 0.1;
      }
    </style>
    <linearGradient id="linear-gradient" x1="0.5" x2="0.5" y2="1" gradientUnits="objectBoundingBox">
      <stop offset="0" stop-color="#ff6969"/>
      <stop offset="1" stop-color="#ffc05a"/>
    </linearGradient>
  </defs>
  <g id="locationIcon" transform="translate(0 0)">
    <path id="Path_491" data-name="Path 491" class="cls-1" d="M859.521,187.2a9.843,9.843,0,0,0-9.821,9.821c0,6.731,8.718,16.553,9.159,16.994a.828.828,0,0,0,1.324,0c.331-.441,9.159-10.263,9.159-16.994A9.843,9.843,0,0,0,859.521,187.2Zm1.1,14.677a5,5,0,0,1-5.959-5.959,4.9,4.9,0,0,1,3.642-3.642,5,5,0,0,1,5.959,5.959A4.736,4.736,0,0,1,860.625,201.877Z" transform="translate(-849.7 -187.2)"/>
    <g id="Group_738" data-name="Group 738" class="cls-2">
      <path id="Path_492" data-name="Path 492" class="cls-1" d="M859.521,188.3a8.736,8.736,0,0,1,8.718,8.718c0,4.966-5.628,12.47-8.718,16-3.09-3.531-8.718-11.035-8.718-16a8.808,8.808,0,0,1,8.718-8.718m0,14.787a5.373,5.373,0,0,0,1.324-.11,6.269,6.269,0,0,0,4.524-4.524,5.922,5.922,0,0,0-1.214-5.186,6.014,6.014,0,0,0-4.745-2.317,5.373,5.373,0,0,0-1.324.11,6.269,6.269,0,0,0-4.524,4.524,5.922,5.922,0,0,0,1.214,5.186,6.181,6.181,0,0,0,4.745,2.317m0-15.891a9.843,9.843,0,0,0-9.821,9.821c0,6.731,8.718,16.553,9.159,16.994a.827.827,0,0,0,1.324,0c.331-.441,9.159-10.263,9.159-16.994a9.843,9.843,0,0,0-9.821-9.821Zm0,14.787a4.923,4.923,0,0,1-1.1-9.711,3.754,3.754,0,0,1,1.1-.11,4.923,4.923,0,0,1,1.1,9.711c-.331,0-.772.11-1.1.11Z" transform="translate(-849.7 -187.2)"/>
    </g>
  </g>
</svg>
