<svg xmlns="http://www.w3.org/2000/svg" xmlns:xlink="http://www.w3.org/1999/xlink" viewBox="0 0 338.661 347.847"><defs><style>.a{fill:#faf8dc;}.b{fill:#37bc9b;}.c{fill:#e87950;}.d,.e,.f,.k{opacity:0.72;}.d{fill:url(#a);}.e{fill:url(#b);}.g{fill:#de4e31;}.h{fill:#1b4e61;}.i{fill:#fff;}.j{fill:#46acc3;}.k{fill:url(#c);}.l{fill:#e85f5b;}.m{fill:none;stroke:#fcc14a;stroke-miterlimit:10;stroke-width:5.018px;}</style><linearGradient id="a" x1="0.5" x2="0.5" y2="1" gradientUnits="objectBoundingBox"><stop offset="0" stop-color="#ff926a"/><stop offset="1" stop-color="#d95b2b"/></linearGradient><linearGradient id="b" x1="0.63" y1="0.5" x2="0.5" y2="1" gradientUnits="objectBoundingBox"><stop offset="0" stop-color="#e56435"/><stop offset="1" stop-color="#ffa07c"/></linearGradient><linearGradient id="c" x1="0.5" y1="0" xlink:href="#b"/></defs><g transform="translate(-4723.894 -11882.747)"><path class="a" d="M15.726,707.4s75.255,38.932,146.2,30.8c40.85-4.68,72.2-34.518,161.476-27.183,38.423,3.153,30.261,14.736,30.261,14.736V841.037H15.726Z" transform="translate(4708.168 11389.557)"/><g transform="translate(4752.889 11882.756)"><g transform="translate(0.005 126.857)"><path class="b" d="M15.7,547.912c4.184-14.371,6.84-18.082,12.588-22.084S50.7,514.84,55.5,512.257c4.839-2.583,16.118-3.384,26.05,1.783s24.086,8.659,27.542,13.389,7.022,13.462,7.277,20.556-9.787,35.764-11.279,47.771-.109,38.384-.109,38.384-12.661,8.3-36.565,8.914a136.18,136.18,0,0,1-41.367-5.385s2.474-29.434,1.31-43.951C27.161,579.165,15.7,547.912,15.7,547.912Z" transform="translate(-9.99 -449.86)"/><path class="c" d="M5.715,613.8a38.615,38.615,0,0,1,8.368,1.783c4.039,1.419,8.332,5.276,8.332,5.276a143.774,143.774,0,0,0-3.566,17.464,109.738,109.738,0,0,0-.728,14.917s42.422-.91,52.428,2.583.255,7.786-7.6,10.478c-7.9,2.692-42.131,9.9-52.937,2.983S-.142,649.928.112,642.761C.476,632.683,5.715,613.8,5.715,613.8Z" transform="translate(-0.005 -515.748)"/><path class="c" d="M120.128,617.846a40.858,40.858,0,0,1,9.605-3.093,31,31,0,0,1,7.931-.8s3.274,25.723-2.11,40.276c-5.421,14.553-15.39,16.482-23.54,16.045s-18.119-3.2-33.8-9.787a93.046,93.046,0,0,0-28.852-7.167,39.9,39.9,0,0,1-.073-7.64s21.975-1.091,37.147,1.71,29.179,7.349,30.2,6.44S120.31,639.166,120.128,617.846Z" transform="translate(-31.247 -515.828)"/><path class="d" d="M120.128,617.846a40.858,40.858,0,0,1,9.605-3.093,31,31,0,0,1,7.931-.8s3.274,25.723-2.11,40.276c-5.421,14.553-15.39,16.482-23.54,16.045s-18.119-3.2-33.8-9.787a93.046,93.046,0,0,0-28.852-7.167,39.9,39.9,0,0,1-.073-7.64s21.975-1.091,37.147,1.71,29.179,7.349,30.2,6.44S120.31,639.166,120.128,617.846Z" transform="translate(-31.247 -515.828)"/><g transform="translate(37.949)"><path class="c" d="M109,420.182s-.364-24.813-1.419-39.439c-1.055-14.917,10.187-21.575,21.066-20.92s15.317,10.26,16.263,25.65c1.237,19.792-6.986,22.375-6.986,22.375l1.674,11.643s-3.311,5.749-15.717,6.149C111.436,426,109,420.182,109,420.182Z" transform="translate(-106.346 -354.148)"/><path class="e" d="M121.573,455.44c-3.2-2.292-6.076-10.406-6.513-14.007-.691-5.785-5.93-5.567-5.676-.109.327,10.406.764,28.088.764,28.088s2.474,5.821,14.881,5.457c12.443-.4,15.717-6.149,15.717-6.149l-1.783-11.57a16.779,16.779,0,0,1-7.277,1.6A15.793,15.793,0,0,1,121.573,455.44Z" transform="translate(-107.532 -403.377)"/><path class="f" d="M163.534,423.632a1.021,1.021,0,1,1-2.037.146,1.044,1.044,0,0,1,.946-1.091A.994.994,0,0,1,163.534,423.632Z" transform="translate(-140.689 -394.162)"/><path class="f" d="M203.534,423.642a1.021,1.021,0,1,1-1.091-.946A1.021,1.021,0,0,1,203.534,423.642Z" transform="translate(-166.135 -394.172)"/><path class="g" d="M190.855,419.6l5.858,8.877a1.7,1.7,0,0,1-1.2,2.62l-5.712.728Z" transform="translate(-158.696 -392.204)"/><path class="h" d="M116.676,377.446s-.146-6.731.036-8.8c1.2-1.019,5.894-2.474,6.622-9.2,0,0,15.39,3.711,22.448-2.329,7.095-6-2.838-10.3-6.986-6.549,0,0,1.6-4.839-2.219-6.076s-6.767,4.257-6.767,4.257a16.743,16.743,0,0,0-9.605-.146,22.853,22.853,0,0,0-13.9,11.024c-2.911,5.567-1.783,12.625-1.783,12.625l1.164,8.586,3.238-1.892Z" transform="translate(-104.309 -344.301)"/><path class="g" d="M121.2,424.072s-4.257-1.31-4.766,4.366c-.546,5.676,4.73,5.2,4.73,5.2Z" transform="translate(-111.995 -394.966)"/><path class="i" d="M191.813,459.51c0,1.273-1.528,2.292-3.456,2.292-1.892,0-3.456-1.019-3.456-2.292s1.419,0,3.347,0S191.813,458.237,191.813,459.51Z" transform="translate(-155.579 -417.234)"/><path class="g" d="M159.848,437.974a3.337,3.337,0,1,1-3.566-3.093A3.315,3.315,0,0,1,159.848,437.974Z" transform="translate(-135.401 -401.919)"/></g></g><g transform="translate(124.04 126.878)"><path class="j" d="M421.37,549.825c-9.241-3.929-16.154-12.225-16.154-12.225l-27.942.91c-.91,4.621-15.463,10.151-25.868,17.318C341,562.959,341,577.767,341,577.767l15.208,6.8L343.4,652.133s23.249,7.167,42.6,8.332c23.576,1.383,49.19-5.894,49.19-5.894l-16.045-49.335h.327c.218-8.55.982-18.774.982-18.774l18.191-9.423C439.852,562.522,430.611,553.718,421.37,549.825Z" transform="translate(-340.971 -467.293)"/><path class="c" d="M473.521,480.4a104.963,104.963,0,0,0,1.164,20.775s-3.238,2.547-11.788,2.292a102.71,102.71,0,0,1-12.7-.91s1.6-15.717,1.383-21.466Z" transform="translate(-410.441 -430.904)"/><path class="k" d="M473.521,480.4a104.963,104.963,0,0,0,1.164,20.775s-3.238,2.547-11.788,2.292a102.71,102.71,0,0,1-12.7-.91s1.6-15.717,1.383-21.466Z" transform="translate(-410.441 -430.904)"/><path class="c" d="M508.89,648.328c4.039,2.183-33.29,81.134-29.47,84.227,6.4,4.693,14.844-.255,14.844-.255,10.7-16.736,27.869-66.617,32.272-86.3,0,0-2.765,2.292-8.659,3.02C512.018,649.711,508.89,648.328,508.89,648.328Z" transform="translate(-428.854 -536.254)"/><path class="c" d="M340.949,648a26.171,26.171,0,0,0,9.35,2.474,27.675,27.675,0,0,0,7.459-.182s.255,25.468.873,40.713c2,50.827-4.584,37.656-9.46,38.2-4.839.509-7.349-47.552-7.859-56.721C340.767,663.281,340.949,648,340.949,648Z" transform="translate(-340.92 -537.526)"/><path class="c" d="M428.171,396.442c-1.383,12.7-.728,22.958,10.151,24.013,8.55.837,20.265-6.076,23.285-16.736,3.311-11.788-4.511-25.65-15.9-27.105C432.828,375.012,429.372,385.381,428.171,396.442Z" transform="translate(-396.089 -364.773)"/><path class="f" d="M454.012,427.526a1.047,1.047,0,1,0,1.31-.691A1.082,1.082,0,0,0,454.012,427.526Z" transform="translate(-412.833 -396.804)"/><path class="g" d="M426.3,425.8l-4.766,5.858a1.2,1.2,0,0,0,.655,1.928l3.966.91Z" transform="translate(-392.034 -396.169)"/><path class="i" d="M432.976,457.855c.182-1.273-1.419-.182-3.311-.437a7.33,7.33,0,0,1-1.965-.619c0,.837.073,1.674.146,2.474a4.563,4.563,0,0,0,1.419.4C431.12,459.965,432.794,459.129,432.976,457.855Z" transform="translate(-396.127 -415.89)"/><circle class="g" cx="3.347" cy="3.347" r="3.347" transform="translate(40.147 36.322) rotate(-30.227)"/><path class="h" d="M554.564,386.359c-.837-12.261-17.5-4.984-20.52-6.076s-1.091-10.587-8.732-12.261c-7.64-1.71-7.822,3.893-13.28,3.02-5.457-.837-.473-11.9-6.185-14.953-2.983-1.564-6.076-.109-8.514.982-4,1.783-6-3.638-6.076-3.638-2.692-2.147-5.239-.618-7.64.619-2.438,1.2-5.457.764-5.967-1.346s-.109-5.094-3.42-6.331c-3.274-1.2-5.785,1.746-8.768,3.238-3.02,1.455-4.257.8-8-2.911-5.13-5.057-8.768-.691-10.114,1.564s-3.238-1.019-6.367-1.637c-3.165-.619-4.948,2.947-4.22,6.221-1.492.837-4.366-.728-5.094,2.292-1.564,6.513,6.694,5.712,13.061,5.494,5.094-.182,5.312,9.678,5.385,12.3.109,4.984,5.494,5.421,5.494,5.421s1.455,2.438.255,8.15a8.082,8.082,0,0,0,3.638,8.514s6.913.473,8.623,2.547-4.875,12.407,1.346,16.518c6.185,4.148,8.987-4.257,14.59-1.455s4,10.078,15.681,8.259,6.694-12.625,12.77-14.444,11.17,6.549,17.391,2.438c6.185-4.148,2.438-9.1,6.913-12.516C541.211,392.908,555.437,398.62,554.564,386.359Z" transform="translate(-398.524 -344.358)"/><path class="g" d="M490.782,436.1l-.982,7.64s4.621-.728,4.984-4C495.185,436.464,490.782,436.1,490.782,436.1Z" transform="translate(-435.633 -402.722)"/></g><path class="l" d="M271.123,248.5H243.181A15.729,15.729,0,0,0,227.5,264.181v7.568a15.73,15.73,0,0,0,15.681,15.681l-2.219,11.388,11.57-11.388h18.592A15.729,15.729,0,0,0,286.8,271.749v-7.568A15.683,15.683,0,0,0,271.123,248.5Z" transform="translate(-144.726 -156.498)"/><path class="m" d="M336.344,2.5h-53.3A30.015,30.015,0,0,0,253.1,32.443V46.887A30.015,30.015,0,0,0,283.043,76.83h35.51l22.084,21.721L336.381,76.83a30.015,30.015,0,0,0,29.943-29.943V32.443A30.069,30.069,0,0,0,336.344,2.5Z" transform="translate(-161.012)"/></g></g></svg>