<svg xmlns="http://www.w3.org/2000/svg" xmlns:xlink="http://www.w3.org/1999/xlink" viewBox="0 0 423.455 519.365">
  <defs>
    <style>
      .cls-1 {
        fill: #fff;
      }

      .cls-2 {
        clip-path: url(#clip-path);
      }

      .cls-3 {
        fill: #edab35;
      }

      .cls-4 {
        fill: #dda956;
      }

      .cls-5 {
        fill: #542a1e;
      }

      .cls-6 {
        fill: #231009;
      }

      .cls-7 {
        fill: #bc7726;
      }

      .cls-8 {
        fill: #784d2a;
      }

      .cls-9 {
        fill: #8e8239;
      }

      .cls-10 {
        fill: #706935;
      }

      .cls-11 {
        fill: #d19034;
      }

      .cls-12 {
        fill: #998868;
      }

      .cls-13 {
        fill: #b7a484;
      }

      .cls-14 {
        clip-path: url(#clip-path-2);
      }

      .cls-15 {
        fill: #cebc99;
      }

      .cls-16 {
        fill: #a35e19;
      }

      .cls-17 {
        clip-path: url(#clip-path-3);
      }
    </style>
    <clipPath id="clip-path">
      <rect id="Rectangle_844" data-name="Rectangle 844" width="423.455" height="519.365"/>
    </clipPath>
    <clipPath id="clip-path-2">
      <path id="Path_2320" data-name="Path 2320" d="M238.86,253.439c-.519,2.251-1.385,4.674-3.289,6.059-1.9,1.558-4.5,1.731-6.752,2.077a249.342,249.342,0,0,1-95.909-9c-6.405-1.9-13.157-4.328-17.312-9.522a9.819,9.819,0,0,1-2.251-4.674,10.823,10.823,0,0,1,.692-5.194,59.908,59.908,0,0,1,4.847-10.734c2.6-4.674,5.367-9.695,10.214-11.945,2.77-1.385,49.167-77.9,52.11-77.9,6.752.173,20.6,2.77,27.353,3.462,7.1.519,15.408,19.563,17.658,25.622,7.79,21.467-5.886,62.324-.866,65.094C234.359,231.8,241.457,242.186,238.86,253.439Z" transform="translate(-113.235 -132.6)"/>
    </clipPath>
    <clipPath id="clip-path-3">
      <path id="Path_2349" data-name="Path 2349" d="M166.424,248.656v-.346c0-3.289-.692-6.232-1.039-9.522-.173-1.9,0-3.982,0-5.886a26.641,26.641,0,0,0-1.212-7.271,1.561,1.561,0,0,1-.173-.866c1.039-.866,2.424-.866,3.809-.866h14.542a1.3,1.3,0,0,1,.866.173c.346.173.346.519.519.866a24.25,24.25,0,0,1,.173,7.1c-.173,4.155,1.385,19.563-3.636,20.428-2.6.519-7.1-.519-9.695-.866C168.155,251.946,166.424,251.773,166.424,248.656Z" transform="translate(-164 -223.9)"/>
    </clipPath>
  </defs>
  <g id="Group_3004" data-name="Group 3004" transform="translate(-51.2)">
    <g id="Group_2870" data-name="Group 2870" transform="translate(51.2)">
      <rect id="Rectangle_843" data-name="Rectangle 843" class="cls-1" width="423.455" height="519.365"/>
    </g>
    <g id="Group_2872" data-name="Group 2872" transform="translate(51.2)">
      <g id="Group_2871" data-name="Group 2871" class="cls-2">
        <path id="Path_2306" data-name="Path 2306" class="cls-3" d="M310.783,192.916c10.907,10.041,9,29.6,20.775,38.606,12.465,9.522,32.547,1.212,45.012,10.734,7.617,5.886,9.522,16.1,13.85,24.583,6.059,11.945,17.139,20.428,25.276,30.989,9.175,11.772,16.966,36.875,18.524,51.763,6.925,64.921,109.759,159.964,144.73,155.982,51.936-5.713,10.387-139.536-.692-172.948-2.6-8.137-7.79-15.581-7.964-24.064-.346-13.85,11.772-24.064,21.121-34.451,9.349-10.214,1.385-26.661,11.253-36.529,17.312-17.312,44.319-4.155,56.957-22.852,3.809-5.713,5.021-12.984,9.522-18.178,12.118-13.85,37.394-2.424,52.11-13.33,10.041-7.444,11.253-21.813,16.447-33.066,13.85-29.6,53.148-34.451,85.868-35.317,124.647-2.943,674.828-6.059,799.475-9,16.62-.346,35.144-.173,47.262,11.253,11.6,10.907,13.33,28.219,14.369,44.146q7.79,126.206,3.982,252.584c-.519,19.043-1.9,39.3-13.33,54.36-10.214,13.33-26.834,20.255-42.934,25.276-90.542,28.392-613.369,19.217-707.894,11.08-99.2-8.483-198.743-15.408-298.115-9.349-192.338,11.945-543.6,21.986-564.2,3.809C49.024,487.223,40.368,471.3,33.1,455.2c-46.57-104.738-43.973-230.6,7.271-333.432,144.21-1.212,13.33,4.674,157.541,3.462,16.1-.173,35.144,1.212,43.973,14.715,7.444,11.426,4.847,28.046,14.542,37.74C270.273,191.185,296.587,180.105,310.783,192.916Z" transform="translate(-88.668 77.326)"/>
      </g>
    </g>
    <g id="Group_3003" data-name="Group 3003" transform="translate(132.521 213.754)">
      <g id="Group_2874" data-name="Group 2874" transform="translate(113.96 173.865)">
        <g id="Group_2873" data-name="Group 2873">
          <path id="Path_2307" data-name="Path 2307" class="cls-4" d="M166.424,248.656v-.346c0-3.289-.692-6.232-1.039-9.522-.173-1.9,0-3.982,0-5.886a26.641,26.641,0,0,0-1.212-7.271,1.561,1.561,0,0,1-.173-.866c1.039-.866,2.424-.866,3.809-.866h14.542a1.3,1.3,0,0,1,.866.173c.346.173.346.519.519.866a24.25,24.25,0,0,1,.173,7.1c-.173,4.155,1.385,19.563-3.636,20.428-2.6.519-7.1-.519-9.695-.866C168.155,251.946,166.424,251.773,166.424,248.656Z" transform="translate(-164 -223.9)"/>
        </g>
      </g>
      <g id="Group_2876" data-name="Group 2876" transform="translate(177.235 14.435)">
        <g id="Group_2875" data-name="Group 2875">
          <path id="Path_2308" data-name="Path 2308" class="cls-5" d="M219.334,158.454c.346,3.289-1.558,11.945-7.1,9.175-2.424-1.212-2.943-4.674-3.809-6.925-1.212-2.77-2.251-5.54-3.636-8.31-2.6-5.54-6.059-12.118-3.116-18.351,1.9-3.982,7.444-1.9,10.041.519a19.346,19.346,0,0,1,4.674,7.617C218.3,147.028,218.642,153.261,219.334,158.454Z" transform="translate(-200.549 -131.809)"/>
        </g>
      </g>
      <g id="Group_2878" data-name="Group 2878" transform="translate(205.059 29.752)">
        <g id="Group_2877" data-name="Group 2877">
          <path id="Path_2309" data-name="Path 2309" class="cls-6" d="M222.3,164.277c-2.943-6.232-10.56-18.351-1.039-22.852a8.318,8.318,0,0,1,8.483.866c1.731,1.385,2.6,3.289,3.462,5.367,3.636,9.349,2.424,19.909,1.039,29.777a20.014,20.014,0,0,1-1.385,5.54c-1.9,3.462-5.886,4.155-7.271,0-.866-2.6.346-5.713.346-8.31A37.079,37.079,0,0,0,222.3,164.277Z" transform="translate(-216.621 -140.656)"/>
        </g>
      </g>
      <g id="Group_2880" data-name="Group 2880" transform="translate(0 87.425)">
        <g id="Group_2879" data-name="Group 2879">
          <path id="Path_2310" data-name="Path 2310" class="cls-7" d="M258.011,238.769a11.317,11.317,0,0,0,.692-3.636c.866-15.062-2.77-32.547-14.2-43.28a26.367,26.367,0,0,0-5.886-3.809c-21.986-11.6-47.435-13.85-72.365-14.023-10.734-.173-21.121,0-31.854,1.9-3.809.692-7.79,1.558-11.08,3.636a31.486,31.486,0,0,0-7.271,7.1,92.642,92.642,0,0,0-11.426,16.793c-4.328,8.31-10.387,17.312-2.943,25.8,7.1,7.964,19.39,8.31,29.431,9.868,14.2,2.077,28.738,2.77,43.107,3.809,15.062,1.039,30.123,2.077,45.358,3.116C229.619,246.733,253.51,251.234,258.011,238.769Z" transform="translate(-98.173 -173.97)"/>
        </g>
      </g>
      <g id="Group_2882" data-name="Group 2882" transform="translate(26.076 92.675)">
        <g id="Group_2881" data-name="Group 2881">
          <path id="Path_2311" data-name="Path 2311" class="cls-8" d="M238.86,220.971c-.519,2.251-1.385,4.674-3.289,6.059-1.9,1.558-4.5,1.731-6.752,2.077a249.342,249.342,0,0,1-95.909-9c-6.405-1.9-13.157-4.328-17.312-9.522a9.819,9.819,0,0,1-2.251-4.674,10.823,10.823,0,0,1,.692-5.194,59.908,59.908,0,0,1,4.847-10.734c2.6-4.674,5.367-9.695,10.214-11.945,2.77-1.385,5.021-1.039,7.964-.866,6.752.173,13.5-.346,20.255.173,7.1.519,14.542.866,21.64,1.731,6.232.692,13.33,3.289,19.39,5.194,3.809,1.212,7.444,2.424,11.253,3.636,5.367,1.731,10.734,3.462,15.581,6.232C234.359,199.331,241.457,209.718,238.86,220.971Z" transform="translate(-113.235 -177.002)"/>
        </g>
      </g>
      <g id="Group_2884" data-name="Group 2884" transform="translate(143.976 13.989)">
        <g id="Group_2883" data-name="Group 2883">
          <path id="Path_2312" data-name="Path 2312" class="cls-9" d="M181.446,175.608c-.692-5.713,2.077-12.292,4.5-17.485,4.674-9.695,12.811-15.754,20.775-22.506,2.251-1.9,7.964-5.886,11.08-3.116a3.843,3.843,0,0,1,.866,1.9c.866,4.328,1.9,8.829.692,13.157-.866,3.116-2.943,5.713-4.847,8.137-6.232,8.137-12.118,16.793-15.408,26.488a22.548,22.548,0,0,1-2.6,5.886,5.97,5.97,0,0,1-5.54,2.6c-2.251-.519-3.636-2.6-4.847-4.5C184.042,182.88,181.965,179.417,181.446,175.608Z" transform="translate(-181.338 -131.551)"/>
        </g>
      </g>
      <g id="Group_2886" data-name="Group 2886" transform="translate(93.532)">
        <g id="Group_2885" data-name="Group 2885">
          <path id="Path_2313" data-name="Path 2313" class="cls-10" d="M274.6,165.763a17.671,17.671,0,0,0-3.809-8.137c-2.077-2.251-5.021-3.636-7.964-2.943-3.982.866-6.232,5.021-8.483,8.31-4.328,6.232-9.349,11.945-13.157,18.7-3.809,6.579-6.406,13.85-9,20.775-.866,2.077-8.483,19.216-11.08,14.715-1.9-3.462.692-10.56,1.039-14.2.346-5.021.866-10.214,1.385-15.235a97.723,97.723,0,0,0-.692-30.123,32.221,32.221,0,0,0-2.77-9.868c-2.251-4.674-7.444-9.695-12.811-9.868-1.9,0-3.809.519-5.713.173-2.77-.519-2.943-2.77-3.636-5.021a15.427,15.427,0,0,0-3.462-6.925c-3.982-4.155-12.638-2.6-17.485-.866-10.56,3.982-20.082,8.829-24.756,19.736,1.731,2.77,5.54,4.674,8.31,6.579,7.444,5.54,13.157,12.984,17.658,20.948A41.15,41.15,0,0,1,181.977,181a51.171,51.171,0,0,1,1.039,8.829c.519,9.868-2.6,18.524-2.077,28.392.519,7.79,3.636,16.1,5.367,23.718a39.1,39.1,0,0,0,5.194,11.253,13.726,13.726,0,0,0,9.175,6.232c4.155.519,9.695-1.558,13.157-3.982,2.943-2.077,6.059-4.328,9-6.579a86.992,86.992,0,0,0,16.1-16.793c7.964-10.907,15.927-21.64,23.371-33.066,2.251-3.462,4.328-6.925,6.405-10.56,1.731-3.116,4.5-5.367,5.886-8.656C276.847,175.631,275.636,169.918,274.6,165.763Z" transform="translate(-152.2 -123.471)"/>
        </g>
      </g>
      <g id="Group_2888" data-name="Group 2888" transform="translate(108.892 171.017)">
        <g id="Group_2887" data-name="Group 2887">
          <path id="Path_2314" data-name="Path 2314" class="cls-11" d="M162.505,224.41c-2.424,1.731-1.039,7.964-1.039,10.56a94.5,94.5,0,0,0,.692,9.868c.173,1.9-.173,7.271,1.039,8.829l.519.519c7.1,4.674,7.617-4.5,7.79-9.522.173-4.5-.173-9,0-13.5.173-2.424,1.039-7.444-1.9-8.656C167.526,221.64,164.063,223.2,162.505,224.41Z" transform="translate(-161.072 -222.255)"/>
        </g>
      </g>
      <g id="Group_2890" data-name="Group 2890" transform="translate(63.211 181.972)">
        <g id="Group_2889" data-name="Group 2889">
          <path id="Path_2315" data-name="Path 2315" class="cls-7" d="M165.872,239.173c-2.6,0-5.194.173-7.79.346-4.328.346-8.483,0-12.811.346-3.636.346-8.483,1.212-10.214-2.943-1.039-2.77.173-6.405,2.77-7.617,3.982-1.9,10.907.519,15.062.866a162.571,162.571,0,0,0,18.351.692c3.116,0,13.677-.346,12.118,6.059-.692,3.116-6.579,2.6-9.349,2.424C170.893,239.173,169.335,239.173,165.872,239.173Z" transform="translate(-134.686 -228.583)"/>
        </g>
      </g>
      <g id="Group_2892" data-name="Group 2892" transform="translate(158.164 135.8)">
        <g id="Group_2891" data-name="Group 2891">
          <path id="Path_2316" data-name="Path 2316" class="cls-12" d="M208.865,229.417c2.424-.346,4.847-.519,7.271-.692,3.116-.346,9.175-.692,10.387-4.155,1.212-3.636,0-7.617-.692-11.253-.519-3.289-.519-7.1-3.289-9.349-6.059-5.021-14.023.519-20.255,2.251-2.077.519-4.328.866-6.405,1.558a8.606,8.606,0,0,0-5.021,3.809,12.047,12.047,0,0,0-.866,5.54c0,1.9-1.039,5.54,0,7.271,1.212,1.9,5.713,4.328,7.79,5.194C200.9,230.629,205.749,229.936,208.865,229.417Z" transform="translate(-189.533 -201.913)"/>
        </g>
      </g>
      <g id="Group_2894" data-name="Group 2894" transform="translate(167.931 152.898)">
        <g id="Group_2893" data-name="Group 2893">
          <path id="Path_2317" data-name="Path 2317" class="cls-12" d="M209.241,251.8c.346,3.982.692,8.483-3.116,10.214a14.188,14.188,0,0,1-5.367.519c-5.367-.519-5.021-4.155-4.5-8.483.519-6.579-.866-13.85-.866-20.428,0-6.059-.866-12.811.866-18.524a4.285,4.285,0,0,1,2.6-2.6,9.041,9.041,0,0,1,3.636-.692c6.752-.519,6.925,9.695,6.579,14.369-.346,7.271,0,14.542-.173,21.813C208.895,248.683,209.068,250.241,209.241,251.8Z" transform="translate(-195.175 -211.789)"/>
        </g>
      </g>
      <g id="Group_2896" data-name="Group 2896" transform="translate(155.225 135.738)">
        <g id="Group_2895" data-name="Group 2895">
          <path id="Path_2318" data-name="Path 2318" class="cls-13" d="M195.218,227.02a133.958,133.958,0,0,0,18.7-1.558,22.673,22.673,0,0,0,4.674-1.039c1.385-.519,4.328-2.424,4.155-4.328a57.27,57.27,0,0,0-2.077-12.118c-.346-1.385-.519-4.5-1.731-5.367-1.731-1.558-6.579-.173-8.656,0-3.116.173-6.406.519-9.522.692-3.809.346-11.6,0-12.638,4.5-1.039,4.328,1.039,11.426,1.9,15.754.173.692.346,1.212.519,1.731C191.236,226.673,193.141,227.02,195.218,227.02Z" transform="translate(-187.836 -201.877)"/>
        </g>
      </g>
      <g id="Group_2899" data-name="Group 2899" transform="translate(26.076 15.805)">
        <g id="Group_2898" data-name="Group 2898" class="cls-14">
          <g id="Group_2897" data-name="Group 2897" transform="translate(19.36 2.065)">
            <path id="Path_2319" data-name="Path 2319" class="cls-15" d="M206.62,267.109a540.437,540.437,0,0,0-58-3.636c-4.5,0-9,0-13.33-1.212-7.79-2.077-12.984-7.444-10.041-15.408,3.809-10.387,5.367-17.658,6.925-21.986,2.6-7.1,5.367-16.1,7.444-23.2,3.462-12.465,8.829-24.237,14.023-36.009a74.4,74.4,0,0,1,4.155-8.31c3.289-5.194,5.54-11.253,9.349-16.1,2.424-3.116,6.579-6.925,10.387-7.271a23.256,23.256,0,0,1,13.677,2.251c8.31,4.328,10.214,9.868,11.772,12.465a83.235,83.235,0,0,1,11.253,26.488,31.28,31.28,0,0,1,1.039,9c-.346,5.886-3.116,11.253-5.367,16.62a98.634,98.634,0,0,0-5.54,25.276c-.692,6.925-1.9,14.369.173,21.121.866,3.289,2.6,5.713,2.943,9.175a47.436,47.436,0,0,1,0,11.08Z" transform="translate(-124.418 -133.793)"/>
          </g>
        </g>
      </g>
      <g id="Group_2902" data-name="Group 2902" transform="translate(14.242 130.931)">
        <g id="Group_2901" data-name="Group 2901">
          <g id="Group_2900" data-name="Group 2900">
            <path id="Path_2321" data-name="Path 2321" class="cls-16" d="M111.94,210.18a5.54,5.54,0,1,0-5.54-5.54,5.7,5.7,0,0,0,5.54,5.54Z" transform="translate(-106.4 -199.1)"/>
          </g>
        </g>
      </g>
      <g id="Group_2905" data-name="Group 2905" transform="translate(27.01 131.1)">
        <g id="Group_2904" data-name="Group 2904">
          <g id="Group_2903" data-name="Group 2903">
            <path id="Path_2322" data-name="Path 2322" class="cls-16" d="M116.242,204.222c3.289,0,3.289-5.021,0-5.021-3.289-.173-3.289,5.021,0,5.021Z" transform="translate(-113.775 -199.198)"/>
          </g>
        </g>
      </g>
      <g id="Group_2908" data-name="Group 2908" transform="translate(25.082 138.202)">
        <g id="Group_2907" data-name="Group 2907">
          <g id="Group_2906" data-name="Group 2906">
            <path id="Path_2323" data-name="Path 2323" class="cls-16" d="M120.692,210.052h0a3.808,3.808,0,0,0,.692-2.251,4.792,4.792,0,0,0-.519-2.251,4.348,4.348,0,0,0-7.617,0,4.627,4.627,0,0,0,0,4.5h0a4.153,4.153,0,0,0,3.809,2.077,4.792,4.792,0,0,0,2.251-.519,4.087,4.087,0,0,0,1.385-1.558Z" transform="translate(-112.661 -203.3)"/>
          </g>
        </g>
      </g>
      <g id="Group_2911" data-name="Group 2911" transform="translate(49.891 142.357)">
        <g id="Group_2910" data-name="Group 2910">
          <g id="Group_2909" data-name="Group 2909">
            <path id="Path_2324" data-name="Path 2324" class="cls-16" d="M129.776,211.24a2.77,2.77,0,1,0-2.77-2.77,2.634,2.634,0,0,0,2.77,2.77Z" transform="translate(-126.992 -205.7)"/>
          </g>
        </g>
      </g>
      <g id="Group_2914" data-name="Group 2914" transform="translate(118.939 148.762)">
        <g id="Group_2913" data-name="Group 2913">
          <g id="Group_2912" data-name="Group 2912">
            <path id="Path_2325" data-name="Path 2325" class="cls-16" d="M167.437,212.516h0a1.883,1.883,0,0,0,2.6,0h0a2.093,2.093,0,0,0,.519-1.731,1.8,1.8,0,0,0-3.289-.519,1.6,1.6,0,0,0,.173,2.251Z" transform="translate(-166.876 -209.4)"/>
          </g>
        </g>
      </g>
      <g id="Group_2917" data-name="Group 2917" transform="translate(128.503 152.324)">
        <g id="Group_2916" data-name="Group 2916">
          <g id="Group_2915" data-name="Group 2915">
            <path id="Path_2326" data-name="Path 2326" class="cls-16" d="M173.958,217.417h0a3.307,3.307,0,0,0,5.021-2.77,3.266,3.266,0,0,0-4.847-2.77h-.173a3.241,3.241,0,0,0,0,5.54Z" transform="translate(-172.4 -211.457)"/>
          </g>
        </g>
      </g>
      <g id="Group_2920" data-name="Group 2920" transform="translate(136.769 149.281)">
        <g id="Group_2919" data-name="Group 2919">
          <g id="Group_2918" data-name="Group 2918">
            <path id="Path_2327" data-name="Path 2327" class="cls-16" d="M179.642,214.894c3.289,0,3.289-5.194,0-5.194s-3.289,5.194,0,5.194Z" transform="translate(-177.175 -209.7)"/>
          </g>
        </g>
      </g>
      <g id="Group_2923" data-name="Group 2923" transform="translate(173.86 148.632)">
        <g id="Group_2922" data-name="Group 2922">
          <g id="Group_2921" data-name="Group 2921">
            <path id="Path_2328" data-name="Path 2328" class="cls-16" d="M201.716,217.592a4.3,4.3,0,0,0,1.385.173,5.331,5.331,0,0,0,2.251-.519,4.2,4.2,0,0,0,.866-6.579,7.149,7.149,0,0,0-1.9-1.212,6.557,6.557,0,0,0-2.6,0,4.127,4.127,0,0,0-1.9,1.039,4.055,4.055,0,0,0-1.212,2.943,4.112,4.112,0,0,0,.519,2.077,4.285,4.285,0,0,0,2.6,2.077Z" transform="translate(-198.6 -209.325)"/>
          </g>
        </g>
      </g>
      <g id="Group_2926" data-name="Group 2926" transform="translate(167.801 151.878)">
        <g id="Group_2925" data-name="Group 2925">
          <g id="Group_2924" data-name="Group 2924">
            <path id="Path_2329" data-name="Path 2329" class="cls-16" d="M197.7,216.567c3.462,0,3.462-5.367,0-5.367s-3.462,5.367,0,5.367Z" transform="translate(-195.1 -211.2)"/>
          </g>
        </g>
      </g>
      <g id="Group_2929" data-name="Group 2929" transform="translate(171.956 143.395)">
        <g id="Group_2928" data-name="Group 2928">
          <g id="Group_2927" data-name="Group 2927">
            <path id="Path_2330" data-name="Path 2330" class="cls-16" d="M197.5,208.724h0a2.182,2.182,0,0,0,2.251,2.251A2.292,2.292,0,0,0,202,208.724v-.173a2.292,2.292,0,0,0-2.251-2.251,2.438,2.438,0,0,0-2.251,2.424Z" transform="translate(-197.5 -206.3)"/>
          </g>
        </g>
      </g>
      <g id="Group_2932" data-name="Group 2932" transform="translate(24.457 96.826)">
        <g id="Group_2931" data-name="Group 2931">
          <g id="Group_2930" data-name="Group 2930">
            <path id="Path_2331" data-name="Path 2331" class="cls-16" d="M115.416,185.632a3.116,3.116,0,1,0-3.116-3.116,3.1,3.1,0,0,0,3.116,3.116Z" transform="translate(-112.3 -179.4)"/>
          </g>
        </g>
      </g>
      <g id="Group_2935" data-name="Group 2935" transform="translate(17.878 100.807)">
        <g id="Group_2934" data-name="Group 2934">
          <g id="Group_2933" data-name="Group 2933">
            <path id="Path_2332" data-name="Path 2332" class="cls-16" d="M111.1,186.547h0a2.367,2.367,0,0,0,2.424-2.424A2.476,2.476,0,0,0,111.1,181.7h-.173a2.476,2.476,0,0,0-2.424,2.424,2.915,2.915,0,0,0,2.6,2.424Z" transform="translate(-108.5 -181.7)"/>
          </g>
        </g>
      </g>
      <g id="Group_2938" data-name="Group 2938" transform="translate(24.673 106.174)">
        <g id="Group_2937" data-name="Group 2937">
          <g id="Group_2936" data-name="Group 2936">
            <path id="Path_2333" data-name="Path 2333" class="cls-16" d="M114.113,188.262a1.732,1.732,0,0,0,0-3.462,1.732,1.732,0,0,0,0,3.462Z" transform="translate(-112.425 -184.8)"/>
          </g>
        </g>
      </g>
      <g id="Group_2941" data-name="Group 2941" transform="translate(18.571 107.386)">
        <g id="Group_2940" data-name="Group 2940">
          <g id="Group_2939" data-name="Group 2939">
            <path id="Path_2334" data-name="Path 2334" class="cls-16" d="M110.112,187.924a1.212,1.212,0,1,0-1.212-1.212,1.183,1.183,0,0,0,1.212,1.212Z" transform="translate(-108.9 -185.5)"/>
          </g>
        </g>
      </g>
      <g id="Group_2944" data-name="Group 2944" transform="translate(11.905 110.152)">
        <g id="Group_2943" data-name="Group 2943">
          <g id="Group_2942" data-name="Group 2942">
            <path id="Path_2335" data-name="Path 2335" class="cls-16" d="M107.387,191.949c3.116,0,3.116-4.847,0-4.847-3.116-.173-3.116,4.847,0,4.847Z" transform="translate(-105.05 -187.097)"/>
          </g>
        </g>
      </g>
      <g id="Group_2947" data-name="Group 2947" transform="translate(18.051 116.659)">
        <g id="Group_2946" data-name="Group 2946">
          <g id="Group_2945" data-name="Group 2945">
            <path id="Path_2336" data-name="Path 2336" class="cls-16" d="M110.851,191.105h0a1.452,1.452,0,1,0,0,2.424h.173a1.55,1.55,0,0,0-.173-2.424Z" transform="translate(-108.6 -190.856)"/>
          </g>
        </g>
      </g>
      <g id="Group_2950" data-name="Group 2950" transform="translate(5.586 122.101)">
        <g id="Group_2949" data-name="Group 2949">
          <g id="Group_2948" data-name="Group 2948">
            <path id="Path_2337" data-name="Path 2337" class="cls-16" d="M104.689,200.579a3.289,3.289,0,1,0-3.289-3.289,3.405,3.405,0,0,0,3.289,3.289Z" transform="translate(-101.4 -194)"/>
          </g>
        </g>
      </g>
      <g id="Group_2953" data-name="Group 2953" transform="translate(3.509 132.142)">
        <g id="Group_2952" data-name="Group 2952">
          <g id="Group_2951" data-name="Group 2951">
            <path id="Path_2338" data-name="Path 2338" class="cls-16" d="M101.758,202.916h0a1.6,1.6,0,0,0,1.731-1.558,1.552,1.552,0,0,0-1.558-1.558h-.173a1.558,1.558,0,1,0,0,3.116Z" transform="translate(-100.2 -199.8)"/>
          </g>
        </g>
      </g>
      <g id="Group_2956" data-name="Group 2956" transform="translate(9.914 140.625)">
        <g id="Group_2955" data-name="Group 2955">
          <g id="Group_2954" data-name="Group 2954">
            <path id="Path_2339" data-name="Path 2339" class="cls-16" d="M105.977,208.855a2.077,2.077,0,1,0-2.077-2.077,2,2,0,0,0,2.077,2.077Z" transform="translate(-103.9 -204.7)"/>
          </g>
        </g>
      </g>
      <g id="Group_2959" data-name="Group 2959" transform="translate(9.568 134.22)">
        <g id="Group_2958" data-name="Group 2958">
          <g id="Group_2957" data-name="Group 2957">
            <path id="Path_2340" data-name="Path 2340" class="cls-16" d="M104.912,203.424a1.212,1.212,0,1,0-1.212-1.212,1.183,1.183,0,0,0,1.212,1.212Z" transform="translate(-103.7 -201)"/>
          </g>
        </g>
      </g>
      <g id="Group_2962" data-name="Group 2962" transform="translate(50.468 89.381)">
        <g id="Group_2961" data-name="Group 2961">
          <g id="Group_2960" data-name="Group 2960">
            <path id="Path_2341" data-name="Path 2341" class="cls-16" d="M128.494,177.524a1.213,1.213,0,0,0,0-2.424,1.213,1.213,0,0,0,0,2.424Z" transform="translate(-127.325 -175.1)"/>
          </g>
        </g>
      </g>
      <g id="Group_2965" data-name="Group 2965" transform="translate(54.969 88.951)">
        <g id="Group_2964" data-name="Group 2964">
          <g id="Group_2963" data-name="Group 2963">
            <path id="Path_2342" data-name="Path 2342" class="cls-16" d="M130.055,175.109h0c-.173.346-.173.519,0,.692h0a.663.663,0,0,0,1.039-.346.57.57,0,0,0-1.039-.346Z" transform="translate(-129.925 -174.852)"/>
          </g>
        </g>
      </g>
      <g id="Group_2968" data-name="Group 2968" transform="translate(33.546 92.671)">
        <g id="Group_2967" data-name="Group 2967">
          <g id="Group_2966" data-name="Group 2966">
            <path id="Path_2343" data-name="Path 2343" class="cls-16" d="M118.848,179.6a1.3,1.3,0,0,0,0-2.6,1.3,1.3,0,0,0,0,2.6Z" transform="translate(-117.55 -177)"/>
          </g>
        </g>
      </g>
      <g id="Group_2971" data-name="Group 2971" transform="translate(90.892 152.917)">
        <g id="Group_2970" data-name="Group 2970">
          <g id="Group_2969" data-name="Group 2969">
            <path id="Path_2344" data-name="Path 2344" class="cls-16" d="M151.584,213.531a.867.867,0,1,0,0-1.731.867.867,0,1,0,0,1.731Z" transform="translate(-150.675 -211.8)"/>
          </g>
        </g>
      </g>
      <g id="Group_2974" data-name="Group 2974" transform="translate(108.074 147.377)">
        <g id="Group_2973" data-name="Group 2973">
          <g id="Group_2972" data-name="Group 2972">
            <path id="Path_2345" data-name="Path 2345" class="cls-16" d="M164.236,215.871a3.657,3.657,0,0,0,3.636-3.636,3.777,3.777,0,0,0-3.636-3.636,3.657,3.657,0,0,0-3.636,3.636,3.777,3.777,0,0,0,3.636,3.636Z" transform="translate(-160.6 -208.6)"/>
          </g>
        </g>
      </g>
      <g id="Group_2977" data-name="Group 2977" transform="translate(116.73 153.436)">
        <g id="Group_2976" data-name="Group 2976">
          <g id="Group_2975" data-name="Group 2975">
            <path id="Path_2346" data-name="Path 2346" class="cls-16" d="M168.2,217.294a2.6,2.6,0,1,0-2.6-2.6,2.55,2.55,0,0,0,2.6,2.6Z" transform="translate(-165.6 -212.1)"/>
          </g>
        </g>
      </g>
      <g id="Group_2980" data-name="Group 2980" transform="translate(148.065 147.031)">
        <g id="Group_2979" data-name="Group 2979">
          <g id="Group_2978" data-name="Group 2978">
            <path id="Path_2347" data-name="Path 2347" class="cls-16" d="M185.777,212.555a2.077,2.077,0,1,0-2.077-2.077,2.228,2.228,0,0,0,2.077,2.077Z" transform="translate(-183.7 -208.4)"/>
          </g>
        </g>
      </g>
      <g id="Group_3002" data-name="Group 3002" transform="translate(113.96 173.865)">
        <g id="Group_2983" data-name="Group 2983" class="cls-17">
          <g id="Group_2982" data-name="Group 2982" transform="translate(8.675 3.089)">
            <g id="Group_2981" data-name="Group 2981">
              <path id="Path_2348" data-name="Path 2348" class="cls-7" d="M169.338,226.4c3.116.346,6.059.692,9.175,1.039,2.251.173,4.847.692,7.1-.173.346-.173.173-.692-.173-.866-2.077-.692-4.674-.346-6.925-.519a54.129,54.129,0,0,0-9.175,0c-.519,0-.346.519,0,.519Z" transform="translate(-169.011 -225.685)"/>
            </g>
          </g>
        </g>
        <g id="Group_2986" data-name="Group 2986" class="cls-17">
          <g id="Group_2985" data-name="Group 2985" transform="translate(8.743 6.584)">
            <g id="Group_2984" data-name="Group 2984">
              <path id="Path_2350" data-name="Path 2350" class="cls-7" d="M169.31,229.083a46.969,46.969,0,0,0,7.1.692c2.943.346,6.059,1.385,9,1.039a.372.372,0,0,0,.173-.692,13.879,13.879,0,0,0-6.925-1.9c-3.116-.346-6.232-.866-9.349-.173a.649.649,0,0,0,0,1.039Z" transform="translate(-169.05 -227.703)"/>
            </g>
          </g>
        </g>
        <g id="Group_2989" data-name="Group 2989" class="cls-17">
          <g id="Group_2988" data-name="Group 2988" transform="translate(7.477 10.89)">
            <g id="Group_2987" data-name="Group 2987">
              <path id="Path_2352" data-name="Path 2352" class="cls-7" d="M168.806,231.246c2.6.346,5.021,1.039,7.617,1.212,2.943.346,5.713.346,8.656.866.346,0,.519-.346.346-.519-1.9-1.9-4.674-1.9-7.1-2.077-3.289-.173-6.579-.866-9.695-.346a.444.444,0,0,0,.173.866Z" transform="translate(-168.319 -230.19)"/>
            </g>
          </g>
        </g>
        <g id="Group_2992" data-name="Group 2992" class="cls-17">
          <g id="Group_2991" data-name="Group 2991" transform="translate(8.743 14.442)">
            <g id="Group_2990" data-name="Group 2990">
              <path id="Path_2354" data-name="Path 2354" class="cls-7" d="M169.31,233.381a36.964,36.964,0,0,0,7.617,1.385c2.251.346,4.5,1.039,6.752,1.385a.52.52,0,0,0,.346-.866c-3.462-2.943-10.387-3.462-14.715-2.77a.491.491,0,0,0,0,.866Z" transform="translate(-169.05 -232.242)"/>
            </g>
          </g>
        </g>
        <g id="Group_2995" data-name="Group 2995" class="cls-17">
          <g id="Group_2994" data-name="Group 2994" transform="translate(8.64 18.351)">
            <g id="Group_2993" data-name="Group 2993">
              <path id="Path_2356" data-name="Path 2356" class="cls-7" d="M169.18,235.192c4.5,2.6,10.734,2.077,15.581,2.6.346,0,.346-.346.173-.519-4.328-2.77-10.56-2.424-15.581-2.77a.372.372,0,0,0-.173.693Z" transform="translate(-168.991 -234.5)"/>
            </g>
          </g>
        </g>
        <g id="Group_2998" data-name="Group 2998" class="cls-17">
          <g id="Group_2997" data-name="Group 2997" transform="translate(9.262 21.933)">
            <g id="Group_2996" data-name="Group 2996">
              <path id="Path_2358" data-name="Path 2358" class="cls-7" d="M169.61,237.661c2.424.692,5.021,1.039,7.444,1.558a12.674,12.674,0,0,0,6.232.173.49.49,0,0,0,0-.866c-2.6-.519-5.021-1.039-7.617-1.558-2.077-.346-4.155-.692-6.059,0a.361.361,0,0,0,0,.692Z" transform="translate(-169.35 -236.569)"/>
            </g>
          </g>
        </g>
        <g id="Group_3001" data-name="Group 3001" class="cls-17">
          <g id="Group_3000" data-name="Group 3000" transform="translate(8.34 24.722)">
            <g id="Group_2999" data-name="Group 2999">
              <path id="Path_2360" data-name="Path 2360" class="cls-7" d="M168.961,238.907a16.807,16.807,0,0,0,5.886,1.9c2.77.346,5.54,1.212,8.31,1.212a.454.454,0,0,0,.173-.866,23.037,23.037,0,0,0-5.886-1.731c-2.6-.346-5.713,0-8.137-1.212-.346-.173-.693.346-.346.692Z" transform="translate(-168.817 -238.18)"/>
            </g>
          </g>
        </g>
      </g>
    </g>
  </g>
</svg>
