<svg xmlns="http://www.w3.org/2000/svg" xmlns:xlink="http://www.w3.org/1999/xlink" viewBox="0 0 70 69">
  <defs>
    <style>
      .cls-1 {
        fill: none;
        stroke: #707070;
      }

      .cls-2 {
        clip-path: url(#clip-path);
      }

      .cls-3 {
        fill: #00b2aa;
      }
    </style>
    <clipPath id="clip-path">
      <rect id="Rectangle_770" data-name="Rectangle 770" class="cls-1" width="70" height="69" transform="translate(1302 3815)"/>
    </clipPath>
  </defs>
  <g id="Mask_Group_124" data-name="Mask Group 124" class="cls-2" transform="translate(-1302 -3815)">
    <path id="Path_1885" data-name="Path 1885" class="cls-3" d="M47.8,35.109A27.777,27.777,0,0,0,31.281,27.1V14.875h15.7a1.08,1.08,0,0,0,1.006-.678A1.1,1.1,0,0,0,47.742,13L43.258,8.531l4.5-4.473a1.094,1.094,0,0,0-.766-1.87H31.1a3.282,3.282,0,0,0-6.377,1.094v7.711a1.094,1.094,0,0,0,2.188,0V3.281a1.094,1.094,0,1,1,2.187,0V26.928c-.361-.011-.733-.022-1.094-.022s-.733.011-1.094.022V20.18a1.094,1.094,0,0,0-2.188,0v6.913A28,28,0,0,0,0,54.906a1.094,1.094,0,0,0,2.188,0,25.631,25.631,0,0,1,3.773-13.42h.033a6.163,6.163,0,0,1,3.97,10.872,1.089,1.089,0,0,0,.7,1.925,1.052,1.052,0,0,0,.7-.263A8.346,8.346,0,0,0,7.35,39.408a25.8,25.8,0,0,1,34.6-6.213,6.9,6.9,0,1,0,7.82,7.853,25.661,25.661,0,0,1,4.047,13.869,1.094,1.094,0,0,0,2.188,0A27.785,27.785,0,0,0,47.8,35.109ZM40.928,7.755a1.083,1.083,0,0,0-.317.777,1.13,1.13,0,0,0,.317.777l3.4,3.38H31.281V4.375H44.33Zm2.013,36.98a4.714,4.714,0,1,1,4.714-4.714A4.722,4.722,0,0,1,42.941,44.734Z" transform="translate(1308.516 3821.935)"/>
  </g>
</svg>
