<svg xmlns="http://www.w3.org/2000/svg" xmlns:xlink="http://www.w3.org/1999/xlink" viewBox="0 0 70 69">
  <defs>
    <style>
      .cls-1 {
        fill: none;
        stroke: #707070;
      }

      .cls-2 {
        clip-path: url(#clip-path);
      }

      .cls-3 {
        fill: #00b2aa;
      }
    </style>
    <clipPath id="clip-path">
      <rect id="Rectangle_509" data-name="Rectangle 509" class="cls-1" width="70" height="69" transform="translate(639 3113)"/>
    </clipPath>
  </defs>
  <g id="restaurant_green_icon" class="cls-2" transform="translate(-639 -3113)">
    <g id="Group_1871" data-name="Group 1871" transform="translate(650 3122.898)">
      <path id="Path_819" data-name="Path 819" class="cls-3" d="M48.625,25.12V1.624A1.617,1.617,0,0,0,47,0H45.377a3.236,3.236,0,0,0-3.239,3.239V16.25A20.265,20.265,0,0,0,8.1,18.681V14.5a4.054,4.054,0,0,0,3.239-3.97V.807a.807.807,0,1,0-1.615,0v8.1H8.1V.807a.807.807,0,0,0-1.615,0v8.1H4.863V.807a.807.807,0,0,0-1.615,0v8.1H1.624V.807A.807.807,0,0,0,.817,0,.809.809,0,0,0,0,.807v9.725A4.056,4.056,0,0,0,3.239,14.5V25.12h0V46.194a2.431,2.431,0,1,0,4.863,0V38.017a20.282,20.282,0,0,0,35.652,0v8.177a2.431,2.431,0,1,0,4.863,0l.009-21.074ZM43.763,3.239a1.623,1.623,0,0,1,1.624-1.624h1.624v22.7H45.2a1.617,1.617,0,0,1-1.425-1.624V3.239ZM6.487,22.822v1.491H4.863V14.588H6.487v8.006A.915.915,0,0,0,6.487,22.822ZM1.624,10.532h8.1a2.436,2.436,0,0,1-2.431,2.431H4.055A2.424,2.424,0,0,1,1.624,10.532ZM6.487,46.194h0a.807.807,0,1,1-1.615,0V25.937H6.5v7.978a.993.993,0,0,0,0,.237h0V46.194Zm24.882-.009A18.641,18.641,0,0,1,8.1,33.791V25.12h0V22.945a18.641,18.641,0,0,1,34.038-3.77v3.514h0a3.251,3.251,0,0,0,1.624,2.84v8.262A18.642,18.642,0,0,1,31.369,46.184ZM47,46.194h0a.807.807,0,1,1-1.615,0V34.152a.993.993,0,0,0,0-.237V25.927h1.624V46.194Z"/>
      <path id="Path_820" data-name="Path 820" class="cls-3" d="M141.78,153.6a13.78,13.78,0,1,0,13.78,13.78A13.779,13.779,0,0,0,141.78,153.6Zm0,25.937a12.156,12.156,0,1,1,12.156-12.156A12.155,12.155,0,0,1,141.78,179.537Z" transform="translate(-115.844 -139.012)"/>
      <path id="Path_821" data-name="Path 821" class="cls-3" d="M173.54,188.607a.807.807,0,0,0-.807-.807A10.532,10.532,0,0,0,162.2,198.332a.807.807,0,0,0,1.615,0,8.919,8.919,0,0,1,8.918-8.918A.807.807,0,0,0,173.54,188.607Z" transform="translate(-146.796 -169.964)"/>
      <path id="Path_822" data-name="Path 822" class="cls-3" d="M265.407,299.825a.807.807,0,1,0,0,1.615,10.532,10.532,0,0,0,10.532-10.532.807.807,0,1,0-1.614,0A8.925,8.925,0,0,1,265.407,299.825Z" transform="translate(-239.471 -262.549)"/>
    </g>
  </g>
</svg>
