<svg xmlns="http://www.w3.org/2000/svg" xmlns:xlink="http://www.w3.org/1999/xlink" viewBox="0 0 70 69">
  <defs>
    <style>
      .cls-1 {
        fill: none;
        stroke: #707070;
      }

      .cls-2 {
        fill: #00b2aa;
      }

      .cls-3 {
        clip-path: url(#clip-path);
      }

      .cls-4 {
        clip-path: url(#clip-path-2);
      }
    </style>
    <clipPath id="clip-path">
      <rect id="Rectangle_512" data-name="Rectangle 512" class="cls-1" width="70" height="69" transform="translate(475 3453)"/>
    </clipPath>
    <clipPath id="clip-path-2">
      <path id="Path_851" data-name="Path 851" class="cls-2" d="M0-100H53.643v53.653H0Z" transform="translate(0 100)"/>
    </clipPath>
  </defs>
  <g id="bath_green_icon" class="cls-3" transform="translate(-475 -3453)">
    <g id="Group_1873" data-name="Group 1873" transform="translate(483 3460.967)">
      <g id="Group_1468" data-name="Group 1468" class="cls-4">
        <g id="Group_1460" data-name="Group 1460" transform="translate(35.701 21.39)">
          <path id="Path_843" data-name="Path 843" class="cls-2" d="M-10.188,0H-21.2a.786.786,0,0,0-.786.786.786.786,0,0,0,.786.786h11.008A.786.786,0,0,0-9.4.786.786.786,0,0,0-10.188,0" transform="translate(21.982)"/>
        </g>
        <g id="Group_1461" data-name="Group 1461" transform="translate(9.393 20.845)">
          <path id="Path_844" data-name="Path 844" class="cls-2" d="M-2.2-3.037a.972.972,0,0,1-.972-.972A.973.973,0,0,1-2.2-4.981a.973.973,0,0,1,.972.972.972.972,0,0,1-.972.972m0-3.515A2.546,2.546,0,0,0-4.741-4.008,2.546,2.546,0,0,0-2.2-1.465,2.547,2.547,0,0,0,.346-4.008,2.547,2.547,0,0,0-2.2-6.552" transform="translate(4.741 6.552)"/>
        </g>
        <g id="Group_1462" data-name="Group 1462" transform="translate(20.243 17.396)">
          <path id="Path_845" data-name="Path 845" class="cls-2" d="M-2.611-3.864A1.452,1.452,0,0,1-4.062-5.315,1.452,1.452,0,0,1-2.611-6.766,1.452,1.452,0,0,1-1.16-5.315,1.452,1.452,0,0,1-2.611-3.864m0-4.474A3.026,3.026,0,0,0-5.634-5.315,3.027,3.027,0,0,0-2.611-2.292,3.026,3.026,0,0,0,.412-5.315,3.026,3.026,0,0,0-2.611-8.338" transform="translate(5.634 8.338)"/>
        </g>
        <g id="Group_1463" data-name="Group 1463" transform="translate(14.903 13.456)">
          <path id="Path_846" data-name="Path 846" class="cls-2" d="M-.964,0A1.116,1.116,0,0,1,.152,1.115,1.115,1.115,0,0,1-.964,2.231,1.115,1.115,0,0,1-2.079,1.115,1.116,1.116,0,0,1-.964,0" transform="translate(2.079)"/>
        </g>
        <g id="Group_1464" data-name="Group 1464" transform="translate(37.374 39.447)">
          <path id="Path_847" data-name="Path 847" class="cls-2" d="M-7.277,0h-7.638A.785.785,0,0,0-15.7.786a.786.786,0,0,0,.786.786h7.638A.786.786,0,0,0-6.491.786.785.785,0,0,0-7.277,0" transform="translate(15.701 0)"/>
        </g>
        <g id="Group_1465" data-name="Group 1465" transform="translate(38.69 29.665)">
          <path id="Path_848" data-name="Path 848" class="cls-2" d="M-3.739-5.329h0A1.753,1.753,0,0,1-6.152-7.817l1.374-1.921L-3.4-7.817a1.815,1.815,0,0,1-.335,2.489m1.614-3.4L-3.71-10.948A1.314,1.314,0,0,0-4.778-11.5a1.314,1.314,0,0,0-1.067.549L-7.431-8.732a3.4,3.4,0,0,0,.663,4.656A3.332,3.332,0,0,0-4.855-3.4l.074,0,.069,0h.031A3.359,3.359,0,0,0-2.125-8.732" transform="translate(8.067 11.497)"/>
        </g>
        <g id="Group_1466" data-name="Group 1466" transform="translate(37.374 42.337)">
          <path id="Path_849" data-name="Path 849" class="cls-2" d="M-7.277,0h-7.638A.785.785,0,0,0-15.7.786a.786.786,0,0,0,.786.786h7.638A.786.786,0,0,0-6.491.786.785.785,0,0,0-7.277,0" transform="translate(15.701 0)"/>
        </g>
        <g id="Group_1467" data-name="Group 1467" transform="translate(0 0)">
          <path id="Path_850" data-name="Path 850" class="cls-2" d="M-39.713-14.052h-7.965a.63.63,0,0,1-.629-.629.63.63,0,0,1,.629-.629h7.965a.63.63,0,0,1,.629.629.629.629,0,0,1-.629.629m-4.611-9.108v-2.758h1.258v2.758a3.465,3.465,0,0,0-1.258,0m1.2,1.605c.059.019.12.043.16.061a1.835,1.835,0,0,1,1.1,1.682v2.931h-3.668v-2.931a1.836,1.836,0,0,1,2.4-1.743m-2.921-5.936a3.286,3.286,0,0,0-2.573,1.233c-1.113,1.282-1.162,1.7-1.669,1.7h0a.628.628,0,0,1-.489-1.022l1.178-1.466a4.538,4.538,0,0,1,3.553-1.7h6.972a.629.629,0,0,1,.629.629.629.629,0,0,1-.629.629h-6.972Zm8.433,13.473a2.2,2.2,0,0,0-2.1-2.863h-.576v-2.931a3.4,3.4,0,0,0-1.205-2.6v-3.509h2.418a2.2,2.2,0,0,0,2.2-2.2,2.2,2.2,0,0,0-2.2-2.2h-6.972c-3.826,0-5.27,3.126-5.956,3.756a2.2,2.2,0,0,0,.336,3.094,2.193,2.193,0,0,0,1.378.486,2.192,2.192,0,0,0,1.716-.823l1.178-1.466a1.72,1.72,0,0,1,1.347-.646h.151v3.509a3.4,3.4,0,0,0-1.206,2.6v2.932h-.576a2.2,2.2,0,0,0-2.2,2.2,2.2,2.2,0,0,0,.1.663,6.232,6.232,0,0,0-5.572,6.19v1.342a.785.785,0,0,0,.786.786.786.786,0,0,0,.786-.786V-7.828a4.657,4.657,0,0,1,4.652-4.652h10.857a4.657,4.657,0,0,1,4.652,4.652V17.107a4.658,4.658,0,0,1-4.652,4.653H-49.123A4.631,4.631,0,0,1-52.4,20.405a5.533,5.533,0,0,0,2.122-1.95c.087,0,8.654,0,13.073,0a1.786,1.786,0,0,0,1.784-1.783V14.636a.786.786,0,0,0-.786-.786.785.785,0,0,0-.786.786v2.037a.213.213,0,0,1-.212.212H-49.586a5.592,5.592,0,0,0-.816-4.6V-4.175a.213.213,0,0,1,.213-.212H-37.2a.213.213,0,0,1,.212.212V10.969a.786.786,0,0,0,.786.786.786.786,0,0,0,.786-.786V-4.175A1.786,1.786,0,0,0-37.2-5.96H-50.189a1.787,1.787,0,0,0-1.785,1.784V10.768a5.544,5.544,0,0,0-1.8-.745V-2.819a.786.786,0,0,0-.786-.785.786.786,0,0,0-.786.785V6.6A5.549,5.549,0,0,0-60.925,2.9c.514-3.748-2.509-6.695-6.042-8.209a1.622,1.622,0,0,0-1.578.163,1.6,1.6,0,0,0-.688,1.408c.087,1.588-1.609,1.523-3.347,3.776A4.629,4.629,0,0,0-73.652,2.96,5.575,5.575,0,0,0-79.886,9.9,5.567,5.567,0,0,0-85.3,13.419a5.637,5.637,0,0,0,3.284,7.286,41.314,41.314,0,0,0,4.948,1.514.786.786,0,0,0,.946-.583.786.786,0,0,0-.583-.947,39.365,39.365,0,0,1-4.758-1.455,4.125,4.125,0,0,1-2.3-2.182,3.976,3.976,0,0,1,4.91-5.375.786.786,0,0,0,.863-.253.786.786,0,0,0,.061-.9,4,4,0,0,1,4.721-5.843l.291.1a.786.786,0,0,0,.987-1c-.685-2.045,1.124-3.545,2.875-4.793a3.117,3.117,0,0,0,1.392-2.81c0-.009,0-.02.019-.034a.054.054,0,0,1,.058-.007c3.279,1.406,6.035,4.184,4.875,7.486a.787.787,0,0,0,.968,1.014,4,4,0,0,1,4.575,5.889.786.786,0,0,0,.924,1.15,4,4,0,0,1,4.866,5.534,3.967,3.967,0,0,1-2.179,1.994l-.337.123-.044.016h0a39.319,39.319,0,0,1-13.607,2.415,39.874,39.874,0,0,1-5.623-.4.788.788,0,0,0-.89.667.785.785,0,0,0,.667.888,41.423,41.423,0,0,0,5.846.416,40.907,40.907,0,0,0,13.6-2.311,6.2,6.2,0,0,0,4.829,2.31h10.857a6.231,6.231,0,0,0,6.224-6.224V-7.828a6.232,6.232,0,0,0-5.572-6.19" transform="translate(85.685 30.32)"/>
        </g>
      </g>
    </g>
  </g>
</svg>
