<svg xmlns="http://www.w3.org/2000/svg" xmlns:xlink="http://www.w3.org/1999/xlink" viewBox="0 0 70 69">
  <defs>
    <style>
      .cls-1 {
        fill: none;
        stroke: #707070;
      }

      .cls-2 {
        clip-path: url(#clip-path);
      }

      .cls-3 {
        fill: #00b2aa;
      }
    </style>
    <clipPath id="clip-path">
      <rect id="Rectangle_508" data-name="Rectangle 508" class="cls-1" width="70" height="69" transform="translate(475 3113)"/>
    </clipPath>
  </defs>
  <g id="cafe_green_icon" class="cls-2" transform="translate(-475 -3113)">
    <path id="Path_1352" data-name="Path 1352" class="cls-3" d="M.92,49.9a.92.92,0,0,1-.92-.92V.92A.933.933,0,0,1,.92,0a.92.92,0,0,1,.92.92V9.489H12.767l.153.019.1-.115A22.308,22.308,0,1,1,29.023,47.234a22.167,22.167,0,0,1-16.007-6.786l-.115-.115-.153.019H1.859v8.569A.938.938,0,0,1,.92,49.9ZM29.042,4.5A20.454,20.454,0,1,0,49.5,24.959,20.486,20.486,0,0,0,29.042,4.5ZM1.859,38.55h9.508l-.345-.479a22.305,22.305,0,0,1,0-26.262l.345-.479H1.859Zm16.7-1.9a.92.92,0,1,1,0-1.84H39.278a.92.92,0,1,1,0,1.84ZM26.971,31.4A7.993,7.993,0,0,1,19,23.425V16.371a.92.92,0,0,1,.92-.92H25.9a1.122,1.122,0,0,1,.249.038l.23.058.115-.211a3.41,3.41,0,0,0-.23-3.949.915.915,0,0,1-.038-1.3.9.9,0,0,1,.671-.288.972.972,0,0,1,.633.249c1.917,1.783,1.591,5.08.115,6.92-1.093,1.361-1.15,3.489-.115,4.466a.915.915,0,0,1,.038,1.3.9.9,0,0,1-.671.288.972.972,0,0,1-.633-.249,4.9,4.9,0,0,1-1.054-5.08l.115-.383H20.856v6.115a6.119,6.119,0,0,0,6.115,6.115h3.891a6.119,6.119,0,0,0,6.115-6.115V17.291h-4.7a.92.92,0,0,1,0-1.84h5.636a.92.92,0,0,1,.92.92v1h.92a3.763,3.763,0,0,1,3.757,3.757v1.361a3.763,3.763,0,0,1-3.757,3.757H38.32l-.077.192a7.965,7.965,0,0,1-7.38,4.946H26.971Zm11.866-7h.92a1.9,1.9,0,0,0,1.9-1.9V21.144a1.9,1.9,0,0,0-1.9-1.9h-.92Z" transform="translate(484 3122)"/>
  </g>
</svg>
