<svg xmlns="http://www.w3.org/2000/svg" xmlns:xlink="http://www.w3.org/1999/xlink" viewBox="0 0 70 69">
  <defs>
    <style>
      .cls-1 {
        fill: none;
        stroke: #707070;
      }

      .cls-2 {
        clip-path: url(#clip-path);
      }

      .cls-3 {
        fill: #00b2aa;
      }
    </style>
    <clipPath id="clip-path">
      <rect id="Rectangle_510" data-name="Rectangle 510" class="cls-1" width="70" height="69" transform="translate(639 3292)"/>
    </clipPath>
  </defs>
  <g id="health_green_icon" class="cls-2" transform="translate(-639 -3292)">
    <g id="Group_1875" data-name="Group 1875" transform="translate(645 3301)">
      <path id="Path_829" data-name="Path 829" class="cls-3" d="M346.2,222.691a3.9,3.9,0,1,0,3.9-3.891A3.9,3.9,0,0,0,346.2,222.691Zm6.107,0a2.216,2.216,0,1,1-2.216-2.2A2.21,2.21,0,0,1,352.307,222.691Z" transform="translate(-307.265 -194.193)"/>
      <path id="Path_830" data-name="Path 830" class="cls-3" d="M343.139,205.74a.842.842,0,1,0-.6.247A.843.843,0,0,0,343.139,205.74Z" transform="translate(-303.272 -181.324)"/>
      <path id="Path_831" data-name="Path 831" class="cls-3" d="M319.043,183.1a.845.845,0,1,0,.6.247A.843.843,0,0,0,319.043,183.1Z" transform="translate(-282.414 -162.508)"/>
      <path id="Path_832" data-name="Path 832" class="cls-3" d="M376.4,192.943a.845.845,0,1,0,.247-.6A.823.823,0,0,0,376.4,192.943Z" transform="translate(-334.069 -170.496)"/>
      <path id="Path_833" data-name="Path 833" class="cls-3" d="M348.143,178.087a.845.845,0,1,0-.6-.247A.843.843,0,0,0,348.143,178.087Z" transform="translate(-308.242 -156.562)"/>
      <path id="Path_834" data-name="Path 834" class="cls-3" d="M319.043,149.7a.845.845,0,1,0,.6.247A.843.843,0,0,0,319.043,149.7Z" transform="translate(-282.414 -132.864)"/>
      <path id="Path_835" data-name="Path 835" class="cls-3" d="M233.343,260.687h3.644a.843.843,0,1,0,0-1.687h-3.644a.843.843,0,1,0,0,1.687Z" transform="translate(-206.352 -229.872)"/>
      <path id="Path_836" data-name="Path 836" class="cls-3" d="M233.343,288.887h3.644a.843.843,0,0,0,0-1.687h-3.644a.843.843,0,0,0,0,1.687Z" transform="translate(-206.352 -254.901)"/>
      <path id="Path_837" data-name="Path 837" class="cls-3" d="M56.175,23.415H50.439V1.406A1.406,1.406,0,0,0,49.034,0H32.952a1.406,1.406,0,0,0-1.406,1.406V19.287H28.5V17.634h.416a1.406,1.406,0,0,0,1.406-1.406V12.371a1.406,1.406,0,0,0-1.406-1.406H13.394a1.406,1.406,0,0,0-1.406,1.406v3.857a1.406,1.406,0,0,0,1.406,1.406h.416v1.653H10.077A3.115,3.115,0,0,0,6.961,22.4v5.185H4.285a1.406,1.406,0,0,0-1.406,1.406v2.767H1.968A1.978,1.978,0,0,0,0,33.728v14.2A1.978,1.978,0,0,0,1.968,49.9H17.443a1.978,1.978,0,0,0,1.968-1.968V46.706H32.232a3.115,3.115,0,0,0,3.115-3.115v-3.9H48.314v8.806A1.406,1.406,0,0,0,49.72,49.9h5.162a1.406,1.406,0,0,0,1.406-1.406V28.217a1.405,1.405,0,0,0,1.282-1.395V24.832A1.392,1.392,0,0,0,56.175,23.415ZM54.612,37.551l-4.6,4.577v-3.4l4.6-4.577Zm-4.588-1.2V28.217h4.6v3.554Zm5.871-9.818H48.741V25.1h7.153ZM48.753,1.687V12.922H47.234a.843.843,0,1,0,0,1.687h1.518v8.806H48.46a1.406,1.406,0,0,0-1.406,1.406v1.991a1.4,1.4,0,0,0,1.282,1.395v6.557H35.358V22.391a3.109,3.109,0,0,0-2.126-2.947V14.6h8.941a.843.843,0,1,0,0-1.687H33.233V1.687ZM33.671,37h-10.1V25.968h10.1ZM15.5,17.634H21.48a.843.843,0,0,0,0-1.687h-7.8v-3.3H28.633v3.3H25.979a.843.843,0,1,0,0,1.687h.843v1.653H15.5ZM8.637,22.4a1.43,1.43,0,0,1,1.428-1.428H32.232A1.43,1.43,0,0,1,33.66,22.4v1.878H23.179a1.3,1.3,0,0,0-1.3,1.293V37.383a1.3,1.3,0,0,0,1.3,1.293H33.66v3.306H19.411V33.716a1.978,1.978,0,0,0-1.968-1.968h-.911V28.982a1.406,1.406,0,0,0-1.406-1.406H8.637ZM4.566,29.274H14.845v2.485H4.566Zm-2.6,4.172H17.443a.278.278,0,0,1,.281.281v2.036H15.407a.843.843,0,0,0,0,1.687h2.317v6.185H6.68V37.45h4.229a.843.843,0,1,0,0-1.687H1.687V33.728A.278.278,0,0,1,1.968,33.446Zm-.281,4H4.993v6.185H1.687ZM17.443,48.213H1.968a.278.278,0,0,1-.281-.281V45.322H17.724v2.609A.286.286,0,0,1,17.443,48.213Zm14.8-3.194H19.422V43.68h14.26A1.447,1.447,0,0,1,32.243,45.019ZM35.358,38V36.46H48.325V38ZM50.023,48.213v-3.7l4.6-4.577v8.277Z" transform="translate(0)"/>
    </g>
  </g>
</svg>
